<?xml version="1.0" standalone="no"?>
<!DOCTYPE svg PUBLIC "-//W3C//DTD SVG 1.1//EN" "http://www.w3.org/Graphics/SVG/1.1/DTD/svg11.dtd" >
<svg xmlns="http://www.w3.org/2000/svg" xmlns:xlink="http://www.w3.org/1999/xlink" version="1.1">
<metadata>
Created by FontForge 20170910 at Thu Dec 17 14:23:03 2015
 By Jimmy Wärting
DIN 2014 is a contemporary version of a well-known DIN typeface. The Regular performs well in long text settings, while Light and Bold faces are extremely legible at large sizes. Type family spans 18 faces: 6 Upright with the matching Italics of normal width and 6 Narrow ones. The typeface was designed by Vasily Biryukov and released by Paratype in 2015.
</metadata>
<defs>
<font id="DIN2014-Light" horiz-adv-x="526" >
  <font-face 
    font-family="DIN 2014 Light"
    font-weight="300"
    font-stretch="normal"
    units-per-em="1000"
    panose-1="2 11 4 4 2 2 2 2 2 4"
    ascent="779"
    descent="-221"
    x-height="500"
    cap-height="690"
    bbox="-325 -271 3054 953"
    underline-thickness="50"
    underline-position="-100"
    stemh="54"
    stemv="58"
    unicode-range="U+0020-1F4F1"
  />
<missing-glyph horiz-adv-x="250" 
 />
    <glyph glyph-name="afii10017.var.accented" unicode="&#x410;`" horiz-adv-x="551" 
d="M74 0h-62l236 690h54l236 -690h-61l-57 168h-290zM275 597l-127 -375h254zM257 757l72 129h68l-87 -129h-53z" />
    <glyph glyph-name="afii10022.var.accented" unicode="&#x415;`" horiz-adv-x="543" 
d="M90 690h406v-54h-348v-252h318v-54h-318v-276h348v-54h-406v690zM254 757l72 129h68l-87 -129h-53z" />
    <glyph glyph-name="afii10026.var.accented" unicode="&#x418;`" horiz-adv-x="656" 
d="M90 690h58v-576l368 576h50v-690h-58v573l-367 -573h-51v690zM290 757l72 129h68l-87 -129h-53z" />
    <glyph glyph-name="afii10032.var.accented" unicode="&#x41e;`" horiz-adv-x="600" 
d="M545 304c0 -218 -97 -310 -245 -310s-245 92 -245 310v82c0 217 97 310 245 310s245 -93 245 -310v-82zM113 386v-82c0 -187 74 -256 187 -256s187 69 187 256v82c0 186 -74 256 -187 256s-187 -70 -187 -256zM256 757l72 129h68l-87 -129h-53z" />
    <glyph glyph-name="afii10037.var.accented" unicode="&#x423;`" horiz-adv-x="577" 
d="M499 690h61l-235 -574c-39 -95 -77 -122 -192 -122v54c83 0 111 13 140 85l-246 557h64l212 -483zM273 757l72 129h68l-87 -129h-53z" />
    <glyph glyph-name="afii10045.var.accented" unicode="&#x42b;`" horiz-adv-x="758" 
d="M90 690h58v-285h135c177 0 238 -106 238 -203s-61 -202 -238 -202h-193v690zM283 351h-135v-297h135c123 0 180 62 180 148c0 85 -57 149 -180 149zM668 690v-690h-58v690h58zM341 757l72 129h68l-87 -129h-53z" />
    <glyph glyph-name="afii10047.var.accented" unicode="&#x42d;`" horiz-adv-x="580" 
d="M183 320v54h284v12c0 188 -69 256 -187 256c-94 0 -163 -44 -186 -161h-57c22 151 120 215 243 215c150 0 245 -87 245 -310v-82c0 -223 -95 -310 -245 -310c-118 0 -220 62 -242 217h56c22 -110 86 -163 186 -163c117 0 187 67 187 256v16h-284zM254 757l72 129h68
l-87 -129h-53z" />
    <glyph glyph-name="afii10048.var.accented" unicode="&#x42e;`" horiz-adv-x="788" 
d="M733 299c0 -218 -89 -305 -228 -305c-138 0 -227 87 -227 305v31h-130v-330h-58v690h58v-306h130v7c0 217 89 305 227 305c139 0 228 -88 228 -305v-92zM336 391v-92c0 -187 66 -251 169 -251c104 0 170 64 170 251v92c0 186 -66 251 -170 251c-103 0 -169 -65 -169 -251
zM254 757l72 129h68l-87 -129h-53z" />
    <glyph glyph-name="afii10049.var.accented" unicode="&#x42f;`" horiz-adv-x="604" 
d="M35 0h65l153 295c15 -2 30 -2 46 -2h157v-293h58v690h-215c-156 0 -246 -68 -246 -199c0 -98 51 -161 142 -186zM456 347h-157c-121 0 -188 41 -188 144s67 145 188 145h157v-289zM284 757l72 129h68l-87 -129h-53z" />
    <glyph glyph-name="afii10023.var.accented" unicode="&#x401;`" horiz-adv-x="543" 
d="M90 690h406v-54h-348v-252h318v-54h-318v-276h348v-54h-406v690zM431 802h-67v67h67v-67zM221 802h-67v67h67v-67zM250 824l72 129h68l-87 -129h-53z" />
    <glyph glyph-name="afii10065.var.accented" unicode="&#x430;`" horiz-adv-x="486" 
d="M45 143c0 96 67 141 170 141h146v62c0 85 -34 108 -126 108c-60 0 -99 -4 -131 -57l-42 29c35 59 85 80 174 80c122 0 180 -38 180 -160v-346h-55v62c-28 -53 -78 -68 -142 -68c-111 0 -174 53 -174 149zM361 186v49h-146c-86 0 -115 -40 -115 -93c0 -70 49 -96 119 -96
c81 0 142 28 142 140zM218 567l75 158h66l-88 -158h-53z" />
    <glyph glyph-name="afii10070.var.accented" unicode="&#x435;`" horiz-adv-x="484" 
d="M431 236h-331v-21c0 -99 46 -170 152 -170c61 0 102 18 130 61l44 -31c-35 -55 -90 -81 -171 -81c-133 0 -210 82 -210 221v72c0 142 68 219 193 219s193 -77 193 -219v-51zM100 287v-1h276v1c0 109 -47 168 -138 168s-138 -60 -138 -168zM199 567l75 158h66l-88 -158
h-53z" />
    <glyph glyph-name="afii10074.var.accented" unicode="&#x438;`" horiz-adv-x="536" 
d="M125 500v-404l288 404h53v-500h-55v408l-289 -408h-52v500h55zM222 567l75 158h66l-88 -158h-53z" />
    <glyph glyph-name="afii10080.var.accented" unicode="&#x43e;`" horiz-adv-x="496" 
d="M451 214c0 -136 -69 -220 -203 -220c-129 0 -203 80 -203 220v73c0 142 75 219 203 219s203 -77 203 -219v-73zM396 214v73c0 109 -53 168 -148 168c-96 0 -148 -59 -148 -168v-73c0 -105 47 -169 148 -169c97 0 148 64 148 169zM204 567l75 158h66l-88 -158h-53z" />
    <glyph glyph-name="afii10085.var.accented" unicode="&#x443;`" horiz-adv-x="459" 
d="M73 -190v54c78 0 103 26 137 122l2 6l-205 508h60l173 -428l148 428h58l-181 -520c-41 -120 -73 -170 -192 -170zM207 567l75 158h66l-88 -158h-53z" />
    <glyph glyph-name="afii10093.var.accented" unicode="&#x44b;`" horiz-adv-x="619" 
d="M125 301h102c133 0 195 -55 195 -149c0 -86 -52 -152 -181 -152h-171v500h55v-199zM125 250v-199h106c85 0 131 33 131 101c0 66 -45 98 -137 98h-100zM494 500h55v-500h-55v500zM272 567l75 158h66l-88 -158h-53z" />
    <glyph glyph-name="afii10095.var.accented" unicode="&#x44d;`" horiz-adv-x="459" 
d="M142 228v51h217v8c0 108 -57 168 -156 168c-50 0 -97 -18 -125 -56l-44 30c37 51 96 77 169 77c132 0 211 -77 211 -219v-72c0 -141 -77 -221 -211 -221c-78 0 -137 28 -170 81l44 31c28 -44 75 -61 126 -61c110 0 156 71 156 170v13h-217zM182 567l75 158h66l-88 -158
h-53z" />
    <glyph glyph-name="afii10096.var.accented" unicode="&#x44e;`" horiz-adv-x="660" 
d="M428 -6c-122 0 -188 80 -188 221v13h-115v-228h-55v500h55v-221h115v8c0 142 67 219 188 219s187 -77 187 -219v-72c0 -137 -60 -221 -187 -221zM428 45c89 0 132 65 132 169v73c0 109 -45 168 -132 168c-88 0 -133 -60 -133 -168v-73c0 -105 40 -169 133 -169zM217 567
l75 158h66l-88 -158h-53z" />
    <glyph glyph-name="afii10097.var.accented" unicode="&#x44f;`" horiz-adv-x="500" 
d="M430 0h-55v199h-119c-8 0 -16 0 -23 1l-130 -200h-63l135 208c-75 20 -117 70 -117 144c0 77 54 148 189 148h183v-500zM375 250v199h-123c-89 0 -134 -36 -134 -98c0 -65 44 -101 140 -101h117zM227 567l75 158h66l-88 -158h-53z" />
    <glyph glyph-name="afii10071.var.accented" unicode="&#x451;`" horiz-adv-x="484" 
d="M431 236h-331v-21c0 -99 46 -170 152 -170c61 0 102 18 130 61l44 -31c-35 -55 -90 -81 -171 -81c-133 0 -210 82 -210 221v72c0 142 68 219 193 219s193 -77 193 -219v-51zM100 287v-1h276v1c0 109 -47 168 -138 168s-138 -60 -138 -168zM377 623h-67v67h67v-67z
M167 623h-67v67h67v-67zM218 717l75 158h66l-88 -158h-53z" />
    <glyph glyph-name="fi" unicode="fi" horiz-adv-x="465" 
d="M320 0v449h-175v-449h-55v449h-64v51h64v36c0 104 32 154 142 154h23v-53h-20c-81 0 -90 -37 -90 -111v-26h230v-500h-55z" />
    <glyph glyph-name="fl" unicode="fl" horiz-adv-x="510" 
d="M320 154v483h-85c-81 0 -90 -37 -90 -111v-26h110v-51h-110v-449h-55v449h-64v51h64v36c0 104 32 154 142 154h143v-526c0 -67 7 -112 95 -112v-52c-115 0 -150 50 -150 154z" />
    <glyph glyph-name=".notdef" horiz-adv-x="250" 
 />
    <glyph glyph-name="space" unicode=" " horiz-adv-x="250" 
 />
    <glyph glyph-name="exclam" unicode="!" horiz-adv-x="208" 
d="M133 690v-516h-58v516h58zM138 0v68h-68v-68h68z" />
    <glyph glyph-name="quotedbl" unicode="&#x22;" horiz-adv-x="291" 
d="M104 690v-169h-58v169h58zM240 690v-169h-58v169h58z" />
    <glyph glyph-name="numbersign" unicode="#" horiz-adv-x="580" 
d="M15 482h137l39 208h59l-39 -208h178l39 208h60l-39 -208h119v-54h-129l-29 -156h121v-54h-131l-41 -218h-59l40 218h-178l-40 -218h-60l41 218h-125v54h135l29 156h-127v54zM201 428l-29 -156h178l29 156h-178z" />
    <glyph glyph-name="dollar" unicode="$" horiz-adv-x="490" 
d="M456 583l-47 -32c-32 50 -64 82 -135 89v-271c122 -28 194 -75 194 -195c0 -84 -50 -171 -194 -179v-111h-52v111c-94 6 -156 44 -202 112l47 32c37 -49 74 -84 155 -90v275c-117 27 -187 84 -187 194c0 92 51 170 187 177v117h52v-117c88 -7 141 -44 182 -112zM410 172
c0 71 -33 115 -136 141v-264c103 7 136 60 136 123zM93 518c0 -81 51 -114 129 -136v259c-81 -5 -129 -44 -129 -123z" />
    <glyph glyph-name="percent" unicode="%" horiz-adv-x="718" 
d="M516 690h59l-385 -690h-60zM162 387c66 0 93 47 93 107v52c0 69 -34 105 -93 105c-58 0 -92 -36 -92 -105v-52c0 -60 24 -107 92 -107zM162 342c-89 0 -139 55 -139 152v53c0 97 52 150 139 150c88 0 139 -53 139 -150v-53c0 -94 -45 -152 -139 -152zM554 39
c66 0 93 47 93 107v52c0 69 -34 105 -93 105c-58 0 -92 -36 -92 -105v-52c0 -60 24 -107 92 -107zM554 -6c-89 0 -139 55 -139 152v53c0 97 52 150 139 150c88 0 139 -53 139 -150v-53c0 -94 -45 -152 -139 -152z" />
    <glyph glyph-name="ampersand" unicode="&#x26;" horiz-adv-x="651" 
d="M47 182c0 96 64 156 134 206c-45 53 -74 100 -74 160c0 91 64 148 153 148c108 0 148 -65 148 -129c0 -82 -73 -132 -147 -184l196 -219c26 46 39 102 39 158h54c0 -70 -18 -141 -55 -200l109 -122h-77l-68 76c-47 -50 -113 -82 -199 -82c-144 0 -213 94 -213 188z
M260 48c70 0 125 26 163 68l-209 234c-60 -44 -111 -94 -111 -167c0 -83 63 -135 157 -135zM165 548c0 -54 35 -98 62 -128c65 44 123 85 123 144c0 40 -27 78 -90 78c-56 0 -95 -35 -95 -94z" />
    <glyph glyph-name="quotesingle" unicode="'" horiz-adv-x="153" 
d="M104 690v-169h-58v169h58z" />
    <glyph glyph-name="parenleft" unicode="(" horiz-adv-x="301" 
d="M271 -72l-34 -44c-137 103 -162 167 -162 278v372c0 111 25 175 162 278l34 -44c-120 -92 -141 -145 -141 -253v-334c0 -108 21 -162 141 -253z" />
    <glyph glyph-name="parenright" unicode=")" horiz-adv-x="301" 
d="M64 -116l-34 44c120 91 141 145 141 253v334c0 108 -21 161 -141 253l34 44c137 -103 162 -167 162 -278v-372c0 -111 -25 -175 -162 -278z" />
    <glyph glyph-name="asterisk" unicode="*" horiz-adv-x="432" 
d="M236 685l-3 -133l113 69l25 -42l-116 -64l116 -63l-25 -43l-113 69l3 -132h-49l3 131l-113 -68l-24 43l116 63l-116 64l24 42l113 -69l-3 133h49z" />
    <glyph glyph-name="plus" unicode="+" horiz-adv-x="490" 
d="M56 328v51h163v165h51v-165h165v-51h-165v-163h-51v163h-163z" />
    <glyph glyph-name="comma" unicode="," horiz-adv-x="198" 
d="M133 78v-143l-68 -59v202h68z" />
    <glyph glyph-name="hyphen" unicode="-" horiz-adv-x="309" 
d="M30 263v51h249v-51h-249z" />
    <glyph glyph-name="period" unicode="." horiz-adv-x="211" 
d="M146 81v-81h-81v81h81z" />
    <glyph glyph-name="slash" unicode="/" horiz-adv-x="464" 
d="M100 -116h-54l336 928h54z" />
    <glyph glyph-name="zero" unicode="0" horiz-adv-x="490" 
d="M438 497v-304c0 -127 -89 -199 -193 -199s-193 72 -193 200v302c0 128 89 200 193 200s193 -72 193 -199zM380 497c0 90 -59 145 -135 145c-77 0 -136 -55 -136 -145v-304c0 -90 59 -145 136 -145c76 0 135 55 135 145v304z" />
    <glyph glyph-name="one" unicode="1" horiz-adv-x="490" 
d="M291 690v-690h-58v620l-99 -71v65l99 76h58z" />
    <glyph glyph-name="two" unicode="2" horiz-adv-x="490" 
d="M441 54v-54h-395v48l248 292c60 71 91 119 91 171c0 87 -67 131 -135 131c-74 0 -133 -45 -136 -131h-57c0 114 87 185 193 185c107 0 193 -71 193 -189c0 -79 -64 -148 -117 -212l-202 -241h317z" />
    <glyph glyph-name="three" unicode="3" horiz-adv-x="490" 
d="M188 329v54h38c107 0 153 50 153 133c0 68 -53 126 -135 126c-78 0 -133 -52 -135 -122h-57c0 109 91 176 192 176c112 0 193 -77 193 -181c0 -84 -49 -135 -111 -158c70 -24 121 -82 121 -170c0 -108 -77 -193 -196 -193c-129 0 -201 77 -208 181h57
c9 -74 55 -127 151 -127c78 0 138 56 138 137c0 89 -56 144 -163 144h-38z" />
    <glyph glyph-name="four" unicode="4" horiz-adv-x="490" 
d="M275 690h59l-238 -512h241v215h58v-215h69v-54h-69v-124h-58v124h-309v43z" />
    <glyph glyph-name="five" unicode="5" horiz-adv-x="490" 
d="M243 410c-59 0 -97 -37 -120 -79h-52v359h340v-58h-284v-224c25 34 67 60 125 60c132 0 188 -97 188 -252c0 -136 -69 -222 -197 -222c-104 0 -181 75 -188 170h57c10 -71 64 -116 131 -116c85 0 139 46 139 168c0 126 -41 194 -139 194z" />
    <glyph glyph-name="six" unicode="6" horiz-adv-x="490" 
d="M255 402c110 0 184 -85 184 -202c0 -122 -79 -206 -194 -206c-113 0 -194 83 -194 203c0 54 25 109 46 159l143 334h65l-138 -312c24 16 57 24 88 24zM109 200c0 -93 54 -152 136 -152c80 0 136 59 136 152c0 90 -56 150 -136 150c-82 0 -136 -60 -136 -150z" />
    <glyph glyph-name="seven" unicode="7" horiz-adv-x="490" 
d="M115 506h-54v184h378v-54l-228 -636h-62l229 636h-263v-130z" />
    <glyph glyph-name="eight" unicode="8" horiz-adv-x="490" 
d="M105 188c0 -78 61 -140 140 -140c78 0 140 62 140 140c0 82 -67 141 -140 141c-74 0 -140 -59 -140 -141zM115 512c0 -72 57 -130 130 -130c72 0 130 58 130 130s-58 130 -130 130c-73 0 -130 -58 -130 -130zM47 188c0 78 49 143 110 169c-58 27 -100 87 -100 155
c0 107 87 184 188 184s188 -77 188 -184c0 -68 -43 -128 -101 -155c62 -26 111 -91 111 -169c0 -113 -92 -194 -198 -194s-198 81 -198 194z" />
    <glyph glyph-name="nine" unicode="9" horiz-adv-x="490" 
d="M236 288c-111 0 -185 85 -185 202c0 122 79 206 194 206c113 0 194 -83 194 -203c0 -54 -25 -109 -46 -159l-143 -334h-65l137 312c-24 -17 -52 -24 -86 -24zM381 490c0 92 -54 152 -136 152c-81 0 -136 -60 -136 -152c0 -91 55 -150 136 -150c82 0 136 59 136 150z" />
    <glyph glyph-name="colon" unicode=":" horiz-adv-x="198" 
d="M133 73v-73h-68v73h68zM133 500v-73h-68v73h68z" />
    <glyph glyph-name="semicolon" unicode=";" horiz-adv-x="198" 
d="M133 68v-143l-68 -59v202h68zM133 500v-73h-68v73h68z" />
    <glyph glyph-name="less" unicode="&#x3c;" horiz-adv-x="431" 
d="M368 502l-255 -148l255 -147v-63l-315 183v55l315 183v-63z" />
    <glyph glyph-name="equal" unicode="=" horiz-adv-x="490" 
d="M50 410v51h389v-51h-389zM50 246v51h389v-51h-389z" />
    <glyph glyph-name="greater" unicode="&#x3e;" horiz-adv-x="431" 
d="M309 354l-256 148v63l315 -183v-55l-315 -183v63z" />
    <glyph glyph-name="question" unicode="?" horiz-adv-x="487" 
d="M270 174h-55v67c0 33 7 56 32 79l48 43c58 52 87 90 87 148c0 87 -67 131 -135 131c-74 0 -133 -45 -136 -131h-57c0 114 87 185 193 185c107 0 193 -71 193 -189c0 -82 -59 -139 -105 -182l-36 -33c-22 -20 -29 -35 -29 -71v-47zM277 0v68h-68v-68h68z" />
    <glyph glyph-name="at" unicode="@" horiz-adv-x="898" 
d="M615 484v-259c0 -98 39 -116 79 -116c73 0 104 71 104 167c0 258 -184 358 -349 358c-231 0 -349 -181 -349 -358c0 -235 173 -357 357 -357c77 0 157 14 225 54l23 -41c-32 -25 -125 -64 -251 -64c-206 0 -409 143 -409 408c0 257 194 409 404 409
c214 0 404 -149 404 -409c0 -123 -50 -218 -160 -218c-53 0 -97 23 -116 73c-20 -49 -61 -73 -138 -73c-111 0 -163 74 -163 187v58c0 124 61 186 163 186c59 0 97 -17 121 -47v42h55zM446 109c89 0 114 51 114 138v54c0 94 -34 137 -114 137s-115 -42 -115 -137v-54
c0 -88 32 -138 115 -138z" />
    <glyph glyph-name="A" unicode="A" horiz-adv-x="551" 
d="M74 0h-62l236 690h54l236 -690h-61l-57 168h-290zM275 597l-127 -375h254z" />
    <glyph glyph-name="B" unicode="B" horiz-adv-x="596" 
d="M90 690h204c158 0 235 -61 235 -175c0 -77 -52 -139 -119 -155c87 -19 141 -77 141 -168c0 -94 -61 -192 -233 -192h-228v690zM148 331v-277h170c119 0 175 57 175 138c0 93 -63 139 -194 139h-151zM148 636v-251h164c112 0 159 59 159 130c0 70 -36 121 -177 121h-146z
" />
    <glyph glyph-name="C" unicode="C" horiz-adv-x="580" 
d="M543 481h-57c-23 117 -92 161 -186 161c-118 0 -187 -68 -187 -256v-82c0 -189 70 -256 187 -256c100 0 164 53 186 163h56c-22 -155 -124 -217 -242 -217c-150 0 -245 87 -245 310v82c0 223 95 310 245 310c123 0 221 -64 243 -215z" />
    <glyph glyph-name="D" unicode="D" horiz-adv-x="605" 
d="M300 0h-210v690h210c153 0 250 -81 250 -304v-82c0 -223 -97 -304 -250 -304zM300 54c118 0 192 58 192 250v82c0 189 -73 250 -192 250h-152v-582h152z" />
    <glyph glyph-name="E" unicode="E" horiz-adv-x="543" 
d="M90 690h406v-54h-348v-252h318v-54h-318v-276h348v-54h-406v690z" />
    <glyph glyph-name="F" unicode="F" horiz-adv-x="536" 
d="M90 690h406v-54h-348v-268h318v-54h-318v-314h-58v690z" />
    <glyph glyph-name="G" unicode="G" horiz-adv-x="604" 
d="M303 337h246v-28c0 -220 -95 -315 -249 -315c-150 0 -245 87 -245 310v82c0 223 95 310 245 310c122 0 221 -64 243 -215h-57c-22 115 -90 161 -186 161c-117 0 -187 -68 -187 -256v-82c0 -188 70 -256 187 -256c115 0 184 66 190 235h-187v54z" />
    <glyph glyph-name="H" unicode="H" horiz-adv-x="638" 
d="M148 690v-305h342v305h58v-690h-58v331h-342v-331h-58v690h58z" />
    <glyph glyph-name="I" unicode="I" horiz-adv-x="258" 
d="M158 690v-690h-58v690h58z" />
    <glyph glyph-name="J" unicode="J" horiz-adv-x="505" 
d="M10 80l50 28c29 -39 69 -60 128 -60c117 0 169 73 169 238v404h58v-404c0 -210 -85 -292 -227 -292c-72 0 -140 26 -178 86z" />
    <glyph glyph-name="K" unicode="K" horiz-adv-x="619" 
d="M612 0h-70l-254 368l-140 -166v-202h-58v690h58v-401l337 401h76l-234 -276z" />
    <glyph glyph-name="L" unicode="L" horiz-adv-x="501" 
d="M148 690v-636h348v-54h-406v690h58z" />
    <glyph glyph-name="M" unicode="M" horiz-adv-x="752" 
d="M146 690l230 -459l229 459h57v-690h-58v563l-203 -409h-52l-201 408v-562h-58v690h56z" />
    <glyph glyph-name="N" unicode="N" horiz-adv-x="638" 
d="M490 690h58v-690h-56l-344 574v-574h-58v690h55l345 -579v579z" />
    <glyph glyph-name="O" unicode="O" horiz-adv-x="600" 
d="M545 304c0 -218 -97 -310 -245 -310s-245 92 -245 310v82c0 217 97 310 245 310s245 -93 245 -310v-82zM113 386v-82c0 -187 74 -256 187 -256s187 69 187 256v82c0 186 -74 256 -187 256s-187 -70 -187 -256z" />
    <glyph glyph-name="P" unicode="P" horiz-adv-x="587" 
d="M300 273h-152v-273h-58v690h210c159 0 251 -78 251 -209c0 -130 -91 -208 -251 -208zM148 327h152c133 0 193 57 193 154c0 98 -60 155 -193 155h-152v-309z" />
    <glyph glyph-name="Q" unicode="Q" horiz-adv-x="600" 
d="M545 304c0 -85 -15 -152 -42 -200l91 -86l-36 -38l-86 80c-43 -45 -102 -66 -172 -66c-148 0 -245 92 -245 310v82c0 217 97 310 245 310s245 -93 245 -310v-82zM113 386v-82c0 -187 74 -256 187 -256c53 0 98 15 130 51l-116 109l38 40l108 -103c17 39 27 91 27 159v82
c0 186 -74 256 -187 256s-187 -70 -187 -256z" />
    <glyph glyph-name="R" unicode="R" horiz-adv-x="604" 
d="M569 0h-65l-153 295c-15 -2 -30 -2 -46 -2h-157v-293h-58v690h215c156 0 246 -68 246 -199c0 -98 -51 -161 -142 -186zM148 347h157c121 0 188 41 188 144s-67 145 -188 145h-157v-289z" />
    <glyph glyph-name="S" unicode="S" horiz-adv-x="569" 
d="M506 583l-46 -33c-36 53 -84 92 -179 92s-158 -39 -158 -124c0 -99 79 -124 179 -146c130 -28 216 -68 216 -198c0 -88 -62 -180 -227 -180c-110 0 -190 38 -241 113l47 33c43 -54 91 -92 194 -92c123 0 169 57 169 124c0 83 -48 123 -178 148c-129 25 -217 75 -217 198
c0 97 63 178 218 178c107 0 175 -37 223 -113z" />
    <glyph glyph-name="T" unicode="T" horiz-adv-x="516" 
d="M10 690h496v-54h-219v-636h-58v636h-219v54z" />
    <glyph glyph-name="U" unicode="U" horiz-adv-x="670" 
d="M335 -6c-150 0 -245 85 -245 288v408h58v-408c0 -160 66 -234 187 -234s187 74 187 234v408h58v-408c0 -203 -95 -288 -245 -288z" />
    <glyph glyph-name="V" unicode="V" horiz-adv-x="574" 
d="M10 690h63l213 -596l215 596h63l-250 -690h-54z" />
    <glyph glyph-name="W" unicode="W" horiz-adv-x="819" 
d="M10 690h60l139 -582l170 582h59l174 -573l137 573h60l-169 -690h-62l-169 586l-169 -586h-61z" />
    <glyph glyph-name="X" unicode="X" horiz-adv-x="552" 
d="M92 0h-65l215 357l-196 333h65l165 -280l164 280h66l-197 -333l216 -357h-66l-183 301z" />
    <glyph glyph-name="Y" unicode="Y" horiz-adv-x="536" 
d="M15 690h68l185 -324l185 324h68l-224 -388v-302h-58v302z" />
    <glyph glyph-name="Z" unicode="Z" horiz-adv-x="514" 
d="M32 690h439v-43l-365 -593h375v-54h-449v43l365 593h-365v54z" />
    <glyph glyph-name="bracketleft" unicode="[" horiz-adv-x="305" 
d="M77 -81v852h175v-51h-120v-750h120v-51h-175z" />
    <glyph glyph-name="backslash" unicode="\" horiz-adv-x="464" 
d="M38 812h55l336 -928h-55z" />
    <glyph glyph-name="bracketright" unicode="]" horiz-adv-x="305" 
d="M52 771h175v-852h-175v51h120v750h-120v51z" />
    <glyph glyph-name="asciicircum" unicode="^" horiz-adv-x="454" 
d="M186 690h63l175 -253h-64l-142 209l-142 -209h-64z" />
    <glyph glyph-name="underscore" unicode="_" 
d="M0 -93h526v-46h-526v46z" />
    <glyph glyph-name="grave" unicode="`" horiz-adv-x="279" 
d="M134 725l75 -158h-52l-88 158h65z" />
    <glyph glyph-name="a" unicode="a" horiz-adv-x="486" 
d="M45 143c0 96 67 141 170 141h146v62c0 85 -34 108 -126 108c-60 0 -99 -4 -131 -57l-42 29c35 59 85 80 174 80c122 0 180 -38 180 -160v-346h-55v62c-28 -53 -78 -68 -142 -68c-111 0 -174 53 -174 149zM361 186v49h-146c-86 0 -115 -40 -115 -93c0 -70 49 -96 119 -96
c81 0 142 28 142 140z" />
    <glyph glyph-name="b" unicode="b" horiz-adv-x="516" 
d="M125 690v-253c28 45 75 69 151 69c124 0 195 -77 195 -219v-72c0 -137 -65 -221 -195 -221c-76 0 -123 21 -151 65v-59h-55v690h55zM272 45c96 0 144 65 144 170v72c0 109 -49 168 -144 168c-106 0 -147 -64 -147 -162v-87c1 -94 37 -161 147 -161z" />
    <glyph glyph-name="c" unicode="c" horiz-adv-x="443" 
d="M382 106l44 -31c-33 -53 -92 -81 -170 -81c-134 0 -211 80 -211 221v72c0 142 79 219 211 219c73 0 132 -26 169 -77l-44 -30c-28 38 -75 56 -125 56c-99 0 -156 -60 -156 -168v-72c0 -99 46 -170 156 -170c51 0 98 17 126 61z" />
    <glyph glyph-name="d" unicode="d" horiz-adv-x="516" 
d="M391 435v255h55v-690h-55v61c-28 -46 -76 -67 -151 -67c-130 0 -195 84 -195 221v72c0 142 71 219 195 219c75 0 123 -24 151 -71zM244 45c112 0 147 71 147 169v72c0 102 -40 169 -147 169c-95 0 -144 -59 -144 -168v-72c0 -105 47 -170 144 -170z" />
    <glyph glyph-name="e" unicode="e" horiz-adv-x="484" 
d="M431 236h-331v-21c0 -99 46 -170 152 -170c61 0 102 18 130 61l44 -31c-35 -55 -90 -81 -171 -81c-133 0 -210 82 -210 221v72c0 142 68 219 193 219s193 -77 193 -219v-51zM100 287v-1h276v1c0 109 -47 168 -138 168s-138 -60 -138 -168z" />
    <glyph glyph-name="f" unicode="f" horiz-adv-x="285" 
d="M26 500h64v36c0 105 32 154 142 154h23v-53h-22c-80 0 -88 -38 -88 -115v-22h110v-51h-110v-449h-55v449h-64v51z" />
    <glyph glyph-name="g" unicode="g" horiz-adv-x="516" 
d="M45 215v72c0 142 71 219 195 219c75 0 123 -24 151 -71v65h55v-480c0 -139 -75 -216 -204 -216c-80 0 -133 26 -166 81l43 31c27 -43 68 -61 126 -61c101 0 146 66 146 165v41c-28 -46 -76 -67 -151 -67c-130 0 -195 84 -195 221zM244 45c112 0 147 71 147 169v79
c0 98 -43 162 -147 162c-95 0 -144 -59 -144 -168v-72c0 -105 47 -170 144 -170z" />
    <glyph glyph-name="h" unicode="h" 
d="M70 0v690h55v-258c27 48 73 74 147 74c111 0 184 -69 184 -210v-296h-55v295c0 114 -57 159 -135 159c-94 0 -141 -62 -141 -154v-300h-55z" />
    <glyph glyph-name="i" unicode="i" horiz-adv-x="225" 
d="M85 0v500h55v-500h-55zM79 623v67h67v-67h-67z" />
    <glyph glyph-name="j" unicode="j" horiz-adv-x="225" 
d="M150 500v-536c0 -104 -35 -154 -150 -154v52c88 0 95 45 95 120v518h55zM89 623v67h67v-67h-67z" />
    <glyph glyph-name="k" unicode="k" horiz-adv-x="489" 
d="M371 500h72l-214 -221l248 -279h-72l-216 238l-64 -66v-172h-55v690h55v-441z" />
    <glyph glyph-name="l" unicode="l" horiz-adv-x="268" 
d="M70 152v538h55v-524c0 -70 8 -116 95 -116v-52c-115 0 -150 50 -150 154z" />
    <glyph glyph-name="m" unicode="m" horiz-adv-x="797" 
d="M70 0v500h55v-68c21 46 66 74 132 74c71 0 123 -34 149 -98c28 63 83 98 152 98c105 0 169 -74 169 -210v-296h-55v295c0 109 -48 159 -120 159c-80 0 -126 -59 -126 -147v-307h-55v295c0 109 -48 159 -120 159c-82 0 -126 -62 -126 -154v-300h-55z" />
    <glyph glyph-name="n" unicode="n" 
d="M70 0v500h55v-68c26 48 72 74 147 74c111 0 184 -69 184 -210v-296h-55v295c0 114 -57 159 -135 159c-94 0 -141 -62 -141 -154v-300h-55z" />
    <glyph glyph-name="o" unicode="o" horiz-adv-x="496" 
d="M451 214c0 -136 -69 -220 -203 -220c-129 0 -203 80 -203 220v73c0 142 75 219 203 219s203 -77 203 -219v-73zM396 214v73c0 109 -53 168 -148 168c-96 0 -148 -59 -148 -168v-73c0 -105 47 -169 148 -169c97 0 148 64 148 169z" />
    <glyph glyph-name="p" unicode="p" horiz-adv-x="516" 
d="M471 287v-72c0 -137 -65 -221 -195 -221c-76 0 -123 21 -151 65v-249h-55v690h55v-63c28 45 75 69 151 69c124 0 195 -77 195 -219zM272 45c96 0 144 65 144 170v72c0 109 -49 168 -144 168c-106 0 -147 -64 -147 -162v-87c1 -94 37 -161 147 -161z" />
    <glyph glyph-name="q" unicode="q" horiz-adv-x="516" 
d="M45 215v72c0 142 71 219 195 219c75 0 123 -24 151 -71v65h55v-690h-55v251c-28 -46 -76 -67 -151 -67c-130 0 -195 84 -195 221zM244 45c109 0 147 67 147 161v87c0 98 -43 162 -147 162c-95 0 -144 -59 -144 -168v-72c0 -105 47 -170 144 -170z" />
    <glyph glyph-name="r" unicode="r" horiz-adv-x="387" 
d="M246 454c-78 0 -121 -62 -121 -153v-301h-55v500h55v-68c21 46 63 74 126 74c65 0 108 -25 141 -69l-46 -34c-26 34 -56 51 -100 51z" />
    <glyph glyph-name="s" unicode="s" horiz-adv-x="461" 
d="M398 423l-42 -30c-31 44 -63 61 -136 61c-67 0 -118 -25 -118 -82c0 -70 63 -84 133 -93c97 -13 178 -41 178 -147c0 -78 -50 -138 -183 -138c-99 0 -151 31 -188 83l43 30c30 -42 68 -61 146 -61s127 25 127 85c0 64 -50 86 -149 99c-85 11 -162 40 -162 141
c0 81 61 135 174 135c79 0 139 -21 177 -83z" />
    <glyph glyph-name="t" unicode="t" horiz-adv-x="308" 
d="M26 449v51h64v110h55v-110h123v-51h-123v-280c0 -80 9 -116 90 -116h33v-53h-35c-111 0 -143 50 -143 154v295h-64z" />
    <glyph glyph-name="u" unicode="u" 
d="M456 500v-500h-55v67c-27 -47 -73 -73 -148 -73c-111 0 -183 68 -183 210v296h55v-296c0 -113 57 -158 134 -158c95 0 142 63 142 154v300h55z" />
    <glyph glyph-name="v" unicode="v" horiz-adv-x="480" 
d="M409 500h61l-202 -500h-54l-204 500h61l169 -427z" />
    <glyph glyph-name="w" unicode="w" horiz-adv-x="701" 
d="M497 0l-147 412l-146 -412h-49l-145 500h58l114 -399l143 399h47l146 -400l115 400h58l-145 -500h-49z" />
    <glyph glyph-name="x" unicode="x" horiz-adv-x="452" 
d="M437 0h-66l-145 208l-146 -208h-65l179 256l-164 244h65l131 -197l130 197h66l-164 -244z" />
    <glyph glyph-name="y" unicode="y" horiz-adv-x="459" 
d="M73 -190v54c78 0 103 26 137 122l2 6l-205 508h60l173 -428l148 428h58l-181 -520c-41 -120 -73 -170 -192 -170z" />
    <glyph glyph-name="z" unicode="z" horiz-adv-x="449" 
d="M45 43l287 406h-287v51h359v-43l-285 -406h285v-51h-359v43z" />
    <glyph glyph-name="braceleft" unicode="{" horiz-adv-x="316" 
d="M159 630v-214c0 -41 -12 -60 -40 -70c28 -10 40 -36 40 -70v-215c0 -90 39 -105 106 -105h16v-51h-13c-102 0 -164 25 -164 155v208c0 38 -15 52 -50 52h-19v51h19c35 0 50 14 50 52v209c0 130 62 155 164 155h13v-51h-16c-67 0 -106 -15 -106 -106z" />
    <glyph glyph-name="bar" unicode="|" horiz-adv-x="227" 
d="M137 812v-928h-52v928h52z" />
    <glyph glyph-name="braceright" unicode="}" horiz-adv-x="316" 
d="M157 416v214c0 91 -39 106 -106 106h-16v51h7c106 0 170 -22 170 -155v-193c0 -49 9 -68 50 -68h19v-51h-19c-35 0 -50 -14 -50 -52v-208c0 -137 -67 -156 -177 -155v51h16c67 0 106 15 106 105v215c0 34 13 60 40 70c-27 10 -40 29 -40 70z" />
    <glyph glyph-name="asciitilde" unicode="~" horiz-adv-x="490" 
d="M329 286c-78 0 -107 48 -169 48c-44 0 -83 -21 -107 -50l-40 33c38 43 90 68 147 68c77 0 107 -48 169 -48c45 0 83 21 107 49l40 -33c-38 -43 -90 -67 -147 -67z" />
    <glyph glyph-name="uni00A0" unicode="&#xa0;" horiz-adv-x="250" 
 />
    <glyph glyph-name="exclamdown" unicode="&#xa1;" horiz-adv-x="216" 
d="M123 326v-516h-58v516h58zM128 500v-68h-68v68h68z" />
    <glyph glyph-name="cent" unicode="&#xa2;" horiz-adv-x="490" 
d="M293 -116h-52v111c-117 10 -184 89 -184 220v72c0 132 68 208 184 218v117h52v-117c61 -6 111 -31 144 -76l-44 -30c-28 38 -75 56 -125 56c-99 0 -156 -60 -156 -168v-72c0 -99 46 -170 156 -170c51 0 98 17 126 61l44 -31c-30 -47 -80 -75 -145 -80v-111z" />
    <glyph glyph-name="sterling" unicode="&#xa3;" horiz-adv-x="490" 
d="M39 0v54h71v288h-71v54h71v43c0 160 56 257 185 257c71 0 122 -28 159 -76l-49 -31c-29 35 -64 53 -110 53c-92 0 -127 -65 -127 -203v-43h156v-54h-156v-288h275v-54h-404z" />
    <glyph glyph-name="currency" unicode="&#xa4;" horiz-adv-x="637" 
d="M69 366c0 59 20 113 53 156l-80 81l39 39l80 -80c42 34 97 55 157 55s114 -21 157 -56l81 81l39 -39l-81 -81c34 -43 55 -97 55 -156c0 -60 -21 -114 -55 -157l81 -81l-39 -39l-81 82c-43 -35 -98 -55 -157 -55c-60 0 -114 20 -157 54l-80 -80l-39 39l81 81
c-34 42 -54 96 -54 156zM127 366c0 -108 83 -194 191 -194s193 86 193 194s-85 195 -193 195s-191 -87 -191 -195z" />
    <glyph glyph-name="yen" unicode="&#xa5;" horiz-adv-x="490" 
d="M47 212h164v90h-164v54h132l-156 334h64l153 -331l161 331h65l-167 -334h134v-54h-164v-90h164v-54h-164v-158h-58v158h-164v54z" />
    <glyph glyph-name="brokenbar" unicode="&#xa6;" horiz-adv-x="278" 
d="M175 243v-243h-58v243h58zM175 690v-243h-58v243h58z" />
    <glyph glyph-name="section" unicode="&#xa7;" horiz-adv-x="502" 
d="M84 -52h58c4 -49 29 -85 107 -85c71 0 110 32 110 87c0 57 -42 82 -135 108c-97 27 -169 70 -169 192c0 87 46 145 122 167c-60 25 -100 63 -100 131c0 83 65 143 168 143c109 0 163 -55 165 -139h-58c-4 49 -29 85 -107 85c-72 0 -110 -32 -110 -87
c0 -58 42 -83 135 -109c97 -27 169 -69 169 -191c0 -87 -47 -147 -123 -168c61 -25 101 -63 101 -131c0 -83 -65 -142 -168 -142c-109 0 -163 55 -165 139zM247 124c79 0 134 42 134 126v6c-3 79 -57 120 -134 120c-79 0 -134 -43 -134 -126c0 -84 55 -126 134 -126z" />
    <glyph glyph-name="dieresis" unicode="&#xa8;" horiz-adv-x="385" 
d="M331 623h-67v67h67v-67zM121 623h-67v67h67v-67z" />
    <glyph glyph-name="copyright" unicode="&#xa9;" horiz-adv-x="977" 
d="M45 250c0 246 197 440 440 440s440 -194 440 -440s-197 -440 -440 -440s-440 194 -440 440zM100 250c0 -218 171 -390 385 -390c215 0 385 172 385 390c0 217 -170 389 -385 389c-214 0 -385 -172 -385 -389zM620 106l43 -31c-32 -53 -91 -81 -170 -81
c-134 0 -211 80 -211 221v72c0 142 79 219 211 219c73 0 133 -26 169 -77l-44 -30c-27 38 -75 56 -125 56c-98 0 -156 -60 -156 -168v-72c0 -99 46 -170 156 -170c51 0 99 17 127 61z" />
    <glyph glyph-name="ordfeminine" unicode="&#xaa;" horiz-adv-x="316" 
d="M30 466c0 68 47 92 113 92h82v28c0 51 -23 66 -77 66c-36 0 -60 -5 -78 -39l-33 24c21 36 54 55 112 55c76 0 118 -26 118 -101v-217h-42v37c-20 -33 -48 -41 -87 -41c-70 0 -108 35 -108 96zM225 495v25h-79c-56 0 -74 -19 -74 -56c0 -39 28 -55 69 -55
c45 0 84 25 84 86z" />
    <glyph glyph-name="guillemotleft" unicode="&#xab;" horiz-adv-x="519" 
d="M30 283l232 231v-72l-160 -159l160 -159v-72zM232 283l232 231v-72l-160 -159l160 -159v-72z" />
    <glyph glyph-name="logicalnot" unicode="&#xac;" horiz-adv-x="550" 
d="M487 194h-52v132h-371v54h423v-186z" />
    <glyph glyph-name="uni00AD" unicode="&#xad;" horiz-adv-x="309" 
d="M30 263v51h249v-51h-249z" />
    <glyph glyph-name="registered" unicode="&#xae;" horiz-adv-x="567" 
d="M28 501c0 139 114 253 253 253s253 -114 253 -253s-114 -253 -253 -253s-253 114 -253 253zM72 501c0 -116 94 -210 209 -210c116 0 210 94 210 210c0 115 -94 209 -210 209c-115 0 -209 -94 -209 -209zM228 374h-41v261h97c72 0 97 -43 97 -79c0 -41 -22 -65 -57 -76
l70 -106h-48l-65 100h-53v-100zM228 511h50c45 0 62 16 62 44c0 24 -16 42 -59 42h-53v-86z" />
    <glyph glyph-name="macron" unicode="&#xaf;" horiz-adv-x="378" 
d="M59 621v51h259v-51h-259z" />
    <glyph glyph-name="degree" unicode="&#xb0;" horiz-adv-x="308" 
d="M20 559c0 76 60 134 134 134s134 -58 134 -134s-60 -134 -134 -134s-134 58 -134 134zM69 559c0 -49 37 -86 85 -86c47 0 84 37 84 86c0 48 -37 85 -84 85c-48 0 -85 -37 -85 -85z" />
    <glyph glyph-name="plusminus" unicode="&#xb1;" horiz-adv-x="490" 
d="M55 368v51h163v170h51v-170h165v-51h-165v-138h-51v138h-163zM55 138v51h379v-51h-379z" />
    <glyph glyph-name="twosuperior" unicode="&#xb2;" horiz-adv-x="278" 
d="M241 414v-40h-198v40l100 100c36 36 49 59 49 84c0 36 -25 55 -51 55c-29 0 -54 -22 -56 -57h-41c0 59 45 97 97 97c55 0 93 -35 93 -93c0 -46 -26 -72 -71 -119l-65 -67h143z" />
    <glyph glyph-name="threesuperior" unicode="&#xb3;" horiz-adv-x="301" 
d="M110 517v40h17c42 0 65 15 65 50c0 30 -21 46 -49 46c-33 0 -54 -17 -56 -48h-42c0 50 41 88 98 88c55 0 91 -31 91 -84c0 -37 -23 -63 -55 -71c37 -7 61 -37 61 -76c0 -58 -41 -91 -97 -91c-62 0 -99 42 -102 90h43c4 -29 22 -50 59 -50c30 0 54 16 54 52
c0 32 -18 54 -70 54h-17z" />
    <glyph glyph-name="acute" unicode="&#xb4;" horiz-adv-x="340" 
d="M99 567l75 158h66l-88 -158h-53z" />
    <glyph glyph-name="mu" unicode="&#x3bc;" 
d="M125 -137h-55v637h55v-301c0 -128 74 -153 134 -153c93 0 142 61 142 153v301h55v-500h-55v67c-28 -51 -78 -73 -148 -73c-58 0 -101 16 -128 55v-186z" />
    <glyph glyph-name="mu" unicode="&#xb5;" 
d="M125 -137h-55v637h55v-301c0 -128 74 -153 134 -153c93 0 142 61 142 153v301h55v-500h-55v67c-28 -51 -78 -73 -148 -73c-58 0 -101 16 -128 55v-186z" />
    <glyph glyph-name="paragraph" unicode="&#xb6;" horiz-adv-x="564" 
d="M467 690v-880h-58v826h-116v-826h-58v500c-105 0 -190 85 -190 190s85 190 190 190h232z" />
    <glyph glyph-name="periodcentered" unicode="&#xb7;" horiz-adv-x="198" 
d="M133 382v-68h-68v68h68z" />
    <glyph glyph-name="cedilla" unicode="&#xb8;" horiz-adv-x="338" 
d="M123 -55l16 77l44 -3l-12 -41c43 -10 71 -34 71 -75c0 -55 -46 -82 -109 -82c-14 0 -28 1 -37 3l9 40c8 -1 16 -1 25 -1c32 0 62 8 62 40c0 29 -31 40 -69 42z" />
    <glyph glyph-name="onesuperior" unicode="&#xb9;" horiz-adv-x="277" 
d="M174 690v-316h-42v266l-57 -41v48l57 43h42z" />
    <glyph glyph-name="ordmasculine" unicode="&#xba;" horiz-adv-x="356" 
d="M296 557v-50c0 -80 -43 -136 -128 -136c-79 0 -127 51 -127 136v50c0 87 50 136 127 136c79 0 128 -48 128 -136zM168 411c53 0 86 34 86 96v50c0 69 -35 96 -86 96c-50 0 -85 -27 -85 -96v-50c0 -63 28 -96 85 -96z" />
    <glyph glyph-name="guillemotright" unicode="&#xbb;" horiz-adv-x="519" 
d="M257 514l232 -231l-232 -231v72l160 159l-160 159v72zM55 514l232 -231l-232 -231v72l160 159l-160 159v72z" />
    <glyph glyph-name="onequarter" unicode="&#xbc;" horiz-adv-x="603" 
d="M486 690h57l-474 -690h-58zM150 690v-316h-42v266l-57 -41v48l57 43h42zM436 316h48l-126 -210h106v61h42v-61h39v-40h-39v-66h-42v66h-159v38z" />
    <glyph glyph-name="onehalf" unicode="&#xbd;" horiz-adv-x="603" 
d="M486 690h57l-474 -690h-58zM150 690v-316h-42v266l-57 -41v48l57 43h42zM552 40v-40h-198v40l100 100c36 36 49 59 49 84c0 36 -25 55 -51 55c-29 0 -54 -22 -56 -57h-41c0 59 45 97 97 97c55 0 93 -35 93 -93c0 -46 -26 -72 -71 -119l-65 -67h143z" />
    <glyph glyph-name="threequarters" unicode="&#xbe;" horiz-adv-x="577" 
d="M486 690h57l-474 -690h-58zM436 316h48l-126 -210h106v61h42v-61h39v-40h-39v-66h-42v66h-159v38zM83 517v40h17c42 0 65 15 65 50c0 30 -21 46 -49 46c-33 0 -54 -17 -56 -48h-42c0 50 41 88 98 88c55 0 91 -31 91 -84c0 -37 -23 -63 -55 -71c37 -7 61 -37 61 -76
c0 -58 -41 -91 -97 -91c-62 0 -99 42 -102 90h43c4 -29 22 -50 59 -50c30 0 54 16 54 52c0 32 -18 54 -70 54h-17z" />
    <glyph glyph-name="questiondown" unicode="&#xbf;" horiz-adv-x="487" 
d="M224 326h55v-67c0 -33 -7 -56 -32 -79l-48 -43c-58 -52 -87 -90 -87 -148c0 -87 67 -131 135 -131c74 0 133 45 136 131h57c0 -114 -87 -185 -193 -185c-107 0 -193 71 -193 189c0 82 59 139 105 182l36 33c22 20 29 35 29 71v47zM217 432v68h68v-68h-68z" />
    <glyph glyph-name="Agrave" unicode="&#xc0;" horiz-adv-x="551" 
d="M74 0h-62l236 690h54l236 -690h-61l-57 168h-290zM275 597l-127 -375h254zM153 886h68l72 -129h-50z" />
    <glyph glyph-name="Aacute" unicode="&#xc1;" horiz-adv-x="551" 
d="M74 0h-62l236 690h54l236 -690h-61l-57 168h-290zM275 597l-127 -375h254zM255 757l72 129h68l-87 -129h-53z" />
    <glyph glyph-name="Acircumflex" unicode="&#xc2;" horiz-adv-x="551" 
d="M74 0h-62l236 690h54l236 -690h-61l-57 168h-290zM275 597l-127 -375h254zM250 889h52l148 -142h-74l-100 100l-101 -100h-74z" />
    <glyph glyph-name="Atilde" unicode="&#xc3;" horiz-adv-x="551" 
d="M74 0h-62l236 690h54l236 -690h-61l-57 168h-290zM275 597l-127 -375h254zM333 775c-46 0 -74 30 -115 30c-21 0 -45 -9 -65 -29l-35 36c26 29 60 47 100 47c44 0 72 -30 115 -30c19 0 45 10 64 30l35 -37c-23 -26 -60 -47 -99 -47z" />
    <glyph glyph-name="Adieresis" unicode="&#xc4;" horiz-adv-x="551" 
d="M74 0h-62l236 690h54l236 -690h-61l-57 168h-290zM275 597l-127 -375h254zM414 802h-67v67h67v-67zM204 802h-67v67h67v-67z" />
    <glyph glyph-name="Aring" unicode="&#xc5;" horiz-adv-x="580" 
d="M76 0h-62l224 655c-41 13 -69 46 -69 92c0 61 49 99 109 99c61 0 110 -38 110 -99c0 -47 -30 -80 -72 -93l224 -654h-61l-57 168h-290zM277 597l-127 -375h254zM210 747c0 -38 31 -58 68 -58c38 0 68 20 68 58c0 39 -30 58 -68 58c-37 0 -68 -19 -68 -58z" />
    <glyph glyph-name="AE" unicode="&#xc6;" horiz-adv-x="861" 
d="M83 0h-66l401 690h396v-54h-338v-252h308v-54h-308v-276h338v-54h-396v170h-237zM212 224h206v358z" />
    <glyph glyph-name="Ccedilla" unicode="&#xc7;" horiz-adv-x="580" 
d="M275 -56l10 50c-141 6 -230 94 -230 310v82c0 223 95 310 245 310c123 0 221 -64 243 -215h-57c-23 117 -92 161 -186 161c-118 0 -187 -68 -187 -256v-82c0 -189 70 -256 187 -256c100 0 164 53 186 163h56c-20 -143 -108 -207 -214 -216l-5 -18c43 -10 71 -34 71 -75
c0 -55 -46 -82 -109 -82c-14 0 -28 1 -37 3l9 40c8 -1 16 -1 25 -1c32 0 62 8 62 40c0 29 -31 40 -69 42z" />
    <glyph glyph-name="Egrave" unicode="&#xc8;" horiz-adv-x="543" 
d="M90 690h406v-54h-348v-252h318v-54h-318v-276h348v-54h-406v690zM208 886h68l72 -129h-50z" />
    <glyph glyph-name="Eacute" unicode="&#xc9;" horiz-adv-x="543" 
d="M90 690h406v-54h-348v-252h318v-54h-318v-276h348v-54h-406v690zM254 757l72 129h68l-87 -129h-53z" />
    <glyph glyph-name="Ecircumflex" unicode="&#xca;" horiz-adv-x="543" 
d="M90 690h406v-54h-348v-252h318v-54h-318v-276h348v-54h-406v690zM267 889h52l148 -142h-74l-100 100l-101 -100h-74z" />
    <glyph glyph-name="Edieresis" unicode="&#xcb;" horiz-adv-x="543" 
d="M90 690h406v-54h-348v-252h318v-54h-318v-276h348v-54h-406v690zM431 802h-67v67h67v-67zM221 802h-67v67h67v-67z" />
    <glyph glyph-name="Igrave" unicode="&#xcc;" horiz-adv-x="258" 
d="M158 690v-690h-58v690h58zM17 886h68l72 -129h-50z" />
    <glyph glyph-name="Iacute" unicode="&#xcd;" horiz-adv-x="258" 
d="M158 690v-690h-58v690h58zM100 757l72 129h68l-87 -129h-53z" />
    <glyph glyph-name="Icircumflex" unicode="&#xce;" horiz-adv-x="258" 
d="M158 690v-690h-58v690h58zM103 889h52l148 -142h-74l-100 100l-101 -100h-74z" />
    <glyph glyph-name="Idieresis" unicode="&#xcf;" horiz-adv-x="246" 
d="M153 0h-58v690h58v-690zM71 804h-65v65h65v-65zM241 804h-65v65h65v-65z" />
    <glyph glyph-name="Eth" unicode="&#xd0;" horiz-adv-x="603" 
d="M298 0h-210v330h-103v54h103v306h210c153 0 250 -81 250 -304v-82c0 -223 -97 -304 -250 -304zM298 54c118 0 192 58 192 250v82c0 189 -73 250 -192 250h-152v-252h198v-54h-198v-276h152z" />
    <glyph glyph-name="Ntilde" unicode="&#xd1;" horiz-adv-x="638" 
d="M490 690h58v-690h-56l-344 574v-574h-58v690h55l345 -579v579zM377 775c-46 0 -74 30 -115 30c-21 0 -45 -9 -65 -29l-35 36c26 29 60 47 100 47c44 0 72 -30 115 -30c19 0 45 10 64 30l35 -37c-23 -26 -60 -47 -99 -47z" />
    <glyph glyph-name="Ograve" unicode="&#xd2;" horiz-adv-x="600" 
d="M545 304c0 -218 -97 -310 -245 -310s-245 92 -245 310v82c0 217 97 310 245 310s245 -93 245 -310v-82zM113 386v-82c0 -187 74 -256 187 -256s187 69 187 256v82c0 186 -74 256 -187 256s-187 -70 -187 -256zM200 886h68l72 -129h-50z" />
    <glyph glyph-name="Oacute" unicode="&#xd3;" horiz-adv-x="600" 
d="M545 304c0 -218 -97 -310 -245 -310s-245 92 -245 310v82c0 217 97 310 245 310s245 -93 245 -310v-82zM113 386v-82c0 -187 74 -256 187 -256s187 69 187 256v82c0 186 -74 256 -187 256s-187 -70 -187 -256zM256 757l72 129h68l-87 -129h-53z" />
    <glyph glyph-name="Ocircumflex" unicode="&#xd4;" horiz-adv-x="600" 
d="M545 304c0 -218 -97 -310 -245 -310s-245 92 -245 310v82c0 217 97 310 245 310s245 -93 245 -310v-82zM113 386v-82c0 -187 74 -256 187 -256s187 69 187 256v82c0 186 -74 256 -187 256s-187 -70 -187 -256zM274 889h52l148 -142h-74l-100 100l-101 -100h-74z" />
    <glyph glyph-name="Otilde" unicode="&#xd5;" horiz-adv-x="600" 
d="M545 304c0 -218 -97 -310 -245 -310s-245 92 -245 310v82c0 217 97 310 245 310s245 -93 245 -310v-82zM113 386v-82c0 -187 74 -256 187 -256s187 69 187 256v82c0 186 -74 256 -187 256s-187 -70 -187 -256zM358 775c-46 0 -74 30 -115 30c-21 0 -45 -9 -65 -29l-35 36
c26 29 60 47 100 47c44 0 72 -30 115 -30c19 0 45 10 64 30l35 -37c-23 -26 -60 -47 -99 -47z" />
    <glyph glyph-name="Odieresis" unicode="&#xd6;" horiz-adv-x="600" 
d="M545 304c0 -218 -97 -310 -245 -310s-245 92 -245 310v82c0 217 97 310 245 310s245 -93 245 -310v-82zM113 386v-82c0 -187 74 -256 187 -256s187 69 187 256v82c0 186 -74 256 -187 256s-187 -70 -187 -256zM439 802h-67v67h67v-67zM229 802h-67v67h67v-67z" />
    <glyph glyph-name="multiply" unicode="&#xd7;" horiz-adv-x="490" 
d="M404 477l-124 -124l123 -122l-36 -36l-123 122l-122 -122l-36 36l122 122l-123 124l36 36l123 -124l124 124z" />
    <glyph glyph-name="Oslash" unicode="&#xd8;" horiz-adv-x="600" 
d="M164 -116h-54l53 147c-68 45 -108 133 -108 273v82c0 217 97 310 245 310c36 0 68 -6 98 -17l48 133h54l-57 -158c64 -46 102 -133 102 -268v-82c0 -218 -97 -310 -245 -310c-33 0 -64 5 -91 14zM113 386v-82c0 -111 25 -180 70 -218l196 541c-24 10 -50 15 -79 15
c-113 0 -187 -70 -187 -256zM487 386c0 105 -24 173 -65 212l-195 -538c22 -8 46 -12 73 -12c113 0 187 69 187 256v82z" />
    <glyph glyph-name="Ugrave" unicode="&#xd9;" horiz-adv-x="670" 
d="M335 -6c-150 0 -245 85 -245 288v408h58v-408c0 -160 66 -234 187 -234s187 74 187 234v408h58v-408c0 -203 -95 -288 -245 -288zM240 886h68l72 -129h-50z" />
    <glyph glyph-name="Uacute" unicode="&#xda;" horiz-adv-x="670" 
d="M335 -6c-150 0 -245 85 -245 288v408h58v-408c0 -160 66 -234 187 -234s187 74 187 234v408h58v-408c0 -203 -95 -288 -245 -288zM288 757l72 129h68l-87 -129h-53z" />
    <glyph glyph-name="Ucircumflex" unicode="&#xdb;" horiz-adv-x="670" 
d="M335 -6c-150 0 -245 85 -245 288v408h58v-408c0 -160 66 -234 187 -234s187 74 187 234v408h58v-408c0 -203 -95 -288 -245 -288zM309 889h52l148 -142h-74l-100 100l-101 -100h-74z" />
    <glyph glyph-name="Udieresis" unicode="&#xdc;" horiz-adv-x="670" 
d="M335 -6c-150 0 -245 85 -245 288v408h58v-408c0 -160 66 -234 187 -234s187 74 187 234v408h58v-408c0 -203 -95 -288 -245 -288zM474 802h-67v67h67v-67zM264 802h-67v67h67v-67z" />
    <glyph glyph-name="Yacute" unicode="&#xdd;" horiz-adv-x="536" 
d="M15 690h68l185 -324l185 324h68l-224 -388v-302h-58v302zM238 757l72 129h68l-87 -129h-53z" />
    <glyph glyph-name="Thorn" unicode="&#xde;" horiz-adv-x="577" 
d="M282 148h-134v-148h-58v690h58v-125h134c159 0 251 -78 251 -209c0 -130 -92 -208 -251 -208zM148 202h134c131 0 193 57 193 154s-62 155 -193 155h-134v-309z" />
    <glyph glyph-name="germandbls" unicode="&#xdf;" horiz-adv-x="527" 
d="M457 563c0 -43 -17 -76 -61 -96c50 -18 61 -56 61 -115v-212c0 -120 -50 -140 -152 -140h-32v51h40c62 0 89 21 89 89v212c0 63 -18 86 -89 86h-40v51h40c53 0 89 23 89 71c0 45 -33 85 -129 85c-95 0 -148 -36 -148 -154v-491h-55v499c0 128 64 197 203 197
c137 0 184 -66 184 -133z" />
    <glyph glyph-name="agrave" unicode="&#xe0;" horiz-adv-x="486" 
d="M45 143c0 96 67 141 170 141h146v62c0 85 -34 108 -126 108c-60 0 -99 -4 -131 -57l-42 29c35 59 85 80 174 80c122 0 180 -38 180 -160v-346h-55v62c-28 -53 -78 -68 -142 -68c-111 0 -174 53 -174 149zM361 186v49h-146c-86 0 -115 -40 -115 -93c0 -70 49 -96 119 -96
c81 0 142 28 142 140zM217 725l75 -158h-52l-88 158h65z" />
    <glyph glyph-name="aacute" unicode="&#xe1;" horiz-adv-x="486" 
d="M45 143c0 96 67 141 170 141h146v62c0 85 -34 108 -126 108c-60 0 -99 -4 -131 -57l-42 29c35 59 85 80 174 80c122 0 180 -38 180 -160v-346h-55v62c-28 -53 -78 -68 -142 -68c-111 0 -174 53 -174 149zM361 186v49h-146c-86 0 -115 -40 -115 -93c0 -70 49 -96 119 -96
c81 0 142 28 142 140zM213 567l75 158h66l-88 -158h-53z" />
    <glyph glyph-name="acircumflex" unicode="&#xe2;" horiz-adv-x="486" 
d="M45 143c0 96 67 141 170 141h146v62c0 85 -34 108 -126 108c-60 0 -99 -4 -131 -57l-42 29c35 59 85 80 174 80c122 0 180 -38 180 -160v-346h-55v62c-28 -53 -78 -68 -142 -68c-111 0 -174 53 -174 149zM361 186v49h-146c-86 0 -115 -40 -115 -93c0 -70 49 -96 119 -96
c81 0 142 28 142 140zM219 700h62l108 -142h-60l-79 105l-79 -105h-60z" />
    <glyph glyph-name="atilde" unicode="&#xe3;" horiz-adv-x="486" 
d="M45 143c0 96 67 141 170 141h146v62c0 85 -34 108 -126 108c-60 0 -99 -4 -131 -57l-42 29c35 59 85 80 174 80c122 0 180 -38 180 -160v-346h-55v62c-28 -53 -78 -68 -142 -68c-111 0 -174 53 -174 149zM361 186v49h-146c-86 0 -115 -40 -115 -93c0 -70 49 -96 119 -96
c81 0 142 28 142 140zM301 603c-46 0 -74 30 -115 30c-21 0 -45 -9 -65 -29l-35 31c26 29 60 47 100 47c44 0 72 -30 115 -30c19 0 45 10 64 30l35 -32c-23 -26 -60 -47 -99 -47z" />
    <glyph glyph-name="adieresis" unicode="&#xe4;" horiz-adv-x="486" 
d="M45 143c0 96 67 141 170 141h146v62c0 85 -34 108 -126 108c-60 0 -99 -4 -131 -57l-42 29c35 59 85 80 174 80c122 0 180 -38 180 -160v-346h-55v62c-28 -53 -78 -68 -142 -68c-111 0 -174 53 -174 149zM361 186v49h-146c-86 0 -115 -40 -115 -93c0 -70 49 -96 119 -96
c81 0 142 28 142 140zM382 623h-67v67h67v-67zM172 623h-67v67h67v-67z" />
    <glyph glyph-name="aring" unicode="&#xe5;" horiz-adv-x="486" 
d="M45 143c0 96 67 141 170 141h146v62c0 85 -34 108 -126 108c-60 0 -99 -4 -131 -57l-42 29c35 59 85 80 174 80c122 0 180 -38 180 -160v-346h-55v62c-28 -53 -78 -68 -142 -68c-111 0 -174 53 -174 149zM361 186v49h-146c-86 0 -115 -40 -115 -93c0 -70 49 -96 119 -96
c81 0 142 28 142 140zM144 646c0 61 49 110 109 110c61 0 110 -49 110 -110c0 -60 -49 -109 -110 -109c-60 0 -109 49 -109 109zM185 646c0 -37 31 -68 68 -68c38 0 68 31 68 68c0 38 -30 68 -68 68c-37 0 -68 -30 -68 -68z" />
    <glyph glyph-name="ae" unicode="&#xe6;" horiz-adv-x="785" 
d="M45 143c0 96 67 141 170 141h146v62c0 85 -34 108 -126 108c-60 0 -99 -4 -131 -57l-42 29c35 59 85 80 174 80c91 0 141 -24 162 -85c30 54 82 85 153 85c125 0 186 -82 186 -224v-46h-321v-21c0 -99 43 -170 142 -170c60 0 102 18 130 61l44 -31
c-35 -55 -90 -81 -171 -81c-83 0 -141 33 -171 99c-28 -67 -86 -99 -171 -99c-111 0 -174 53 -174 149zM361 186v49h-146c-86 0 -115 -40 -115 -93c0 -70 49 -96 119 -96c81 0 142 28 142 140zM416 287v-1h266c-1 106 -41 169 -131 169c-85 0 -135 -60 -135 -168z" />
    <glyph glyph-name="ccedilla" unicode="&#xe7;" horiz-adv-x="444" 
d="M221 -56l10 51c-118 9 -186 88 -186 220v72c0 142 79 219 211 219c73 0 132 -26 169 -77l-44 -30c-28 38 -75 56 -125 56c-99 0 -156 -60 -156 -168v-72c0 -99 46 -170 156 -170c51 0 98 17 126 61l44 -31c-31 -49 -83 -76 -152 -80l-5 -18c43 -10 71 -34 71 -75
c0 -55 -46 -82 -109 -82c-14 0 -28 1 -37 3l9 40c8 -1 16 -1 25 -1c32 0 62 8 62 40c0 29 -31 40 -69 42z" />
    <glyph glyph-name="egrave" unicode="&#xe8;" horiz-adv-x="484" 
d="M431 236h-331v-21c0 -99 46 -170 152 -170c61 0 102 18 130 61l44 -31c-35 -55 -90 -81 -171 -81c-133 0 -210 82 -210 221v72c0 142 68 219 193 219s193 -77 193 -219v-51zM100 287v-1h276v1c0 109 -47 168 -138 168s-138 -60 -138 -168zM215 725l75 -158h-52l-88 158
h65z" />
    <glyph glyph-name="eacute" unicode="&#xe9;" horiz-adv-x="484" 
d="M431 236h-331v-21c0 -99 46 -170 152 -170c61 0 102 18 130 61l44 -31c-35 -55 -90 -81 -171 -81c-133 0 -210 82 -210 221v72c0 142 68 219 193 219s193 -77 193 -219v-51zM100 287v-1h276v1c0 109 -47 168 -138 168s-138 -60 -138 -168zM199 567l75 158h66l-88 -158
h-53z" />
    <glyph glyph-name="ecircumflex" unicode="&#xea;" horiz-adv-x="484" 
d="M431 236h-331v-21c0 -99 46 -170 152 -170c61 0 102 18 130 61l44 -31c-35 -55 -90 -81 -171 -81c-133 0 -210 82 -210 221v72c0 142 68 219 193 219s193 -77 193 -219v-51zM100 287v-1h276v1c0 109 -47 168 -138 168s-138 -60 -138 -168zM207 700h62l108 -142h-60
l-79 105l-79 -105h-60z" />
    <glyph glyph-name="edieresis" unicode="&#xeb;" horiz-adv-x="484" 
d="M431 236h-331v-21c0 -99 46 -170 152 -170c61 0 102 18 130 61l44 -31c-35 -55 -90 -81 -171 -81c-133 0 -210 82 -210 221v72c0 142 68 219 193 219s193 -77 193 -219v-51zM100 287v-1h276v1c0 109 -47 168 -138 168s-138 -60 -138 -168zM377 623h-67v67h67v-67z
M167 623h-67v67h67v-67z" />
    <glyph glyph-name="igrave" unicode="&#xec;" horiz-adv-x="213" 
d="M59 725l75 -158h-53l-88 158h66zM79 0v500h55v-500h-55z" />
    <glyph glyph-name="iacute" unicode="&#xed;" horiz-adv-x="213" 
d="M79 567l75 158h65l-88 -158h-52zM79 0v500h55v-500h-55z" />
    <glyph glyph-name="icircumflex" unicode="&#xee;" horiz-adv-x="213" 
d="M79 0v500h55v-500h-55zM75 700h62l108 -142h-60l-79 105l-79 -105h-60z" />
    <glyph glyph-name="idieresis" unicode="&#xef;" horiz-adv-x="225" 
d="M140 0h-55v500h55v-500zM71 623h-67v67h67v-67zM154 690h67v-67h-67v67z" />
    <glyph glyph-name="eth" unicode="&#xf0;" horiz-adv-x="496" 
d="M157 660l26 46c24 -11 47 -20 67 -29l36 59l43 -26l-33 -55c116 -56 155 -105 155 -260v-181c0 -136 -69 -220 -203 -220c-129 0 -203 80 -203 220v73c0 142 75 219 203 219c69 0 118 -24 148 -65c-3 85 -34 125 -126 170l-35 -59l-44 25l33 55zM248 45
c97 0 148 64 148 169v73c0 109 -53 168 -148 168c-96 0 -148 -59 -148 -168v-73c0 -105 47 -169 148 -169z" />
    <glyph glyph-name="ntilde" unicode="&#xf1;" 
d="M70 0v500h55v-68c26 48 72 74 147 74c111 0 184 -69 184 -210v-296h-55v295c0 114 -57 159 -135 159c-94 0 -141 -62 -141 -154v-300h-55zM321 603c-46 0 -74 30 -115 30c-21 0 -45 -9 -65 -29l-35 31c26 29 60 47 100 47c44 0 72 -30 115 -30c19 0 45 10 64 30l35 -32
c-23 -26 -60 -47 -99 -47z" />
    <glyph glyph-name="ograve" unicode="&#xf2;" horiz-adv-x="496" 
d="M451 214c0 -136 -69 -220 -203 -220c-129 0 -203 80 -203 220v73c0 142 75 219 203 219s203 -77 203 -219v-73zM396 214v73c0 109 -53 168 -148 168c-96 0 -148 -59 -148 -168v-73c0 -105 47 -169 148 -169c97 0 148 64 148 169zM225 725l75 -158h-52l-88 158h65z" />
    <glyph glyph-name="oacute" unicode="&#xf3;" horiz-adv-x="496" 
d="M451 214c0 -136 -69 -220 -203 -220c-129 0 -203 80 -203 220v73c0 142 75 219 203 219s203 -77 203 -219v-73zM396 214v73c0 109 -53 168 -148 168c-96 0 -148 -59 -148 -168v-73c0 -105 47 -169 148 -169c97 0 148 64 148 169zM204 567l75 158h66l-88 -158h-53z" />
    <glyph glyph-name="ocircumflex" unicode="&#xf4;" horiz-adv-x="496" 
d="M451 214c0 -136 -69 -220 -203 -220c-129 0 -203 80 -203 220v73c0 142 75 219 203 219s203 -77 203 -219v-73zM396 214v73c0 109 -53 168 -148 168c-96 0 -148 -59 -148 -168v-73c0 -105 47 -169 148 -169c97 0 148 64 148 169zM217 700h62l108 -142h-60l-79 105
l-79 -105h-60z" />
    <glyph glyph-name="otilde" unicode="&#xf5;" horiz-adv-x="496" 
d="M451 214c0 -136 -69 -220 -203 -220c-129 0 -203 80 -203 220v73c0 142 75 219 203 219s203 -77 203 -219v-73zM396 214v73c0 109 -53 168 -148 168c-96 0 -148 -59 -148 -168v-73c0 -105 47 -169 148 -169c97 0 148 64 148 169zM306 603c-46 0 -74 30 -115 30
c-21 0 -45 -9 -65 -29l-35 31c26 29 60 47 100 47c44 0 72 -30 115 -30c19 0 45 10 64 30l35 -32c-23 -26 -60 -47 -99 -47z" />
    <glyph glyph-name="odieresis" unicode="&#xf6;" horiz-adv-x="496" 
d="M451 214c0 -136 -69 -220 -203 -220c-129 0 -203 80 -203 220v73c0 142 75 219 203 219s203 -77 203 -219v-73zM396 214v73c0 109 -53 168 -148 168c-96 0 -148 -59 -148 -168v-73c0 -105 47 -169 148 -169c97 0 148 64 148 169zM387 623h-67v67h67v-67zM177 623h-67v67
h67v-67z" />
    <glyph glyph-name="divide" unicode="&#xf7;" horiz-adv-x="490" 
d="M434 328h-379v51h379v-51zM275 480h-65v65h65v-65zM210 227h65v-65h-65v65z" />
    <glyph glyph-name="oslash" unicode="&#xf8;" horiz-adv-x="496" 
d="M128 -79h-55l49 109c-50 37 -77 99 -77 184v73c0 142 75 219 203 219c30 0 57 -4 81 -13l40 89h55l-50 -112c50 -35 77 -98 77 -183v-73c0 -136 -69 -220 -203 -220c-31 0 -58 5 -82 13zM396 214v73c0 59 -16 103 -45 131l-163 -364c17 -6 37 -9 60 -9
c96 0 148 65 148 169zM100 214c0 -58 14 -104 44 -133l163 364c-17 6 -37 10 -59 10c-95 0 -148 -60 -148 -168v-73z" />
    <glyph glyph-name="ugrave" unicode="&#xf9;" 
d="M456 500v-500h-55v67c-27 -47 -73 -73 -148 -73c-111 0 -183 68 -183 210v296h55v-296c0 -113 57 -158 134 -158c95 0 142 63 142 154v300h55zM235 725l75 -158h-52l-88 158h65z" />
    <glyph glyph-name="uacute" unicode="&#xfa;" 
d="M456 500v-500h-55v67c-27 -47 -73 -73 -148 -73c-111 0 -183 68 -183 210v296h55v-296c0 -113 57 -158 134 -158c95 0 142 63 142 154v300h55zM225 567l75 158h66l-88 -158h-53z" />
    <glyph glyph-name="ucircumflex" unicode="&#xfb;" 
d="M456 500v-500h-55v67c-27 -47 -73 -73 -148 -73c-111 0 -183 68 -183 210v296h55v-296c0 -113 57 -158 134 -158c95 0 142 63 142 154v300h55zM232 700h62l108 -142h-60l-79 105l-79 -105h-60z" />
    <glyph glyph-name="udieresis" unicode="&#xfc;" 
d="M456 500v-500h-55v67c-27 -47 -73 -73 -148 -73c-111 0 -183 68 -183 210v296h55v-296c0 -113 57 -158 134 -158c95 0 142 63 142 154v300h55zM401 623h-67v67h67v-67zM191 623h-67v67h67v-67z" />
    <glyph glyph-name="yacute" unicode="&#xfd;" horiz-adv-x="459" 
d="M73 -190v54c78 0 103 26 137 122l2 6l-205 508h60l173 -428l148 428h58l-181 -520c-41 -120 -73 -170 -192 -170zM207 567l75 158h66l-88 -158h-53z" />
    <glyph glyph-name="thorn" unicode="&#xfe;" horiz-adv-x="521" 
d="M471 287v-72c0 -138 -68 -221 -195 -221c-77 0 -124 24 -151 70v-254h-55v880h55v-253c27 44 74 69 151 69c121 0 195 -76 195 -219zM272 45c93 0 144 65 144 170v72c0 110 -54 168 -144 168c-99 0 -147 -59 -147 -160v-80c0 -96 34 -170 147 -170z" />
    <glyph glyph-name="ydieresis" unicode="&#xff;" horiz-adv-x="459" 
d="M73 -190v54c78 0 103 26 137 122l2 6l-205 508h60l173 -428l148 428h58l-181 -520c-41 -120 -73 -170 -192 -170zM365 623h-67v67h67v-67zM155 623h-67v67h67v-67z" />
    <glyph glyph-name="Amacron" unicode="&#x100;" horiz-adv-x="551" 
d="M74 0h-62l236 690h54l236 -690h-61l-57 168h-290zM275 597l-127 -375h254zM127 787v51h299v-51h-299z" />
    <glyph glyph-name="amacron" unicode="&#x101;" horiz-adv-x="486" 
d="M45 143c0 96 67 141 170 141h146v62c0 85 -34 108 -126 108c-60 0 -99 -4 -131 -57l-42 29c35 59 85 80 174 80c122 0 180 -38 180 -160v-346h-55v62c-28 -53 -78 -68 -142 -68c-111 0 -174 53 -174 149zM361 186v49h-146c-86 0 -115 -40 -115 -93c0 -70 49 -96 119 -96
c81 0 142 28 142 140zM115 621v51h259v-51h-259z" />
    <glyph glyph-name="Abreve" unicode="&#x102;" horiz-adv-x="551" 
d="M74 0h-62l236 690h54l236 -690h-61l-57 168h-290zM275 597l-127 -375h254zM402 889h54c0 -97 -72 -147 -179 -147s-180 50 -180 147h54c5 -51 36 -93 126 -93c89 0 120 42 125 93z" />
    <glyph glyph-name="abreve" unicode="&#x103;" horiz-adv-x="486" 
d="M45 143c0 96 67 141 170 141h146v62c0 85 -34 108 -126 108c-60 0 -99 -4 -131 -57l-42 29c35 59 85 80 174 80c122 0 180 -38 180 -160v-346h-55v62c-28 -53 -78 -68 -142 -68c-111 0 -174 53 -174 149zM361 186v49h-146c-86 0 -115 -40 -115 -93c0 -70 49 -96 119 -96
c81 0 142 28 142 140zM329 690h48c-3 -75 -50 -113 -131 -113s-128 38 -131 113h48c4 -45 26 -69 83 -69c56 0 79 24 83 69z" />
    <glyph glyph-name="Aogonek" unicode="&#x104;" horiz-adv-x="580" 
d="M76 0h-62l236 690h54l236 -690h-25c-42 -22 -80 -40 -80 -73c0 -30 31 -35 57 -35c10 0 20 1 27 2l9 -41c-8 -2 -23 -3 -41 -3c-49 0 -102 19 -102 74c0 44 33 72 86 99l-49 145h-290zM277 597l-127 -375h254z" />
    <glyph glyph-name="aogonek" unicode="&#x105;" horiz-adv-x="491" 
d="M50 143c0 96 67 141 170 141h146v62c0 85 -34 108 -126 108c-60 0 -99 -4 -131 -57l-42 29c35 59 85 80 174 80c122 0 180 -38 180 -160v-346h-13c-42 -22 -80 -40 -80 -73c0 -30 31 -35 57 -35c10 0 20 1 27 2l9 -41c-8 -2 -23 -3 -41 -3c-49 0 -102 19 -102 74
c0 44 32 72 88 100v38c-28 -53 -78 -68 -142 -68c-111 0 -174 53 -174 149zM366 186v49h-146c-86 0 -115 -40 -115 -93c0 -70 49 -96 119 -96c81 0 142 28 142 140z" />
    <glyph glyph-name="Cacute" unicode="&#x106;" horiz-adv-x="580" 
d="M543 481h-57c-23 117 -92 161 -186 161c-118 0 -187 -68 -187 -256v-82c0 -189 70 -256 187 -256c100 0 164 53 186 163h56c-22 -155 -124 -217 -242 -217c-150 0 -245 87 -245 310v82c0 223 95 310 245 310c123 0 221 -64 243 -215zM266 757l72 129h68l-87 -129h-53z
" />
    <glyph glyph-name="cacute" unicode="&#x107;" horiz-adv-x="443" 
d="M382 106l44 -31c-33 -53 -92 -81 -170 -81c-134 0 -211 80 -211 221v72c0 142 79 219 211 219c73 0 132 -26 169 -77l-44 -30c-28 38 -75 56 -125 56c-99 0 -156 -60 -156 -168v-72c0 -99 46 -170 156 -170c51 0 98 17 126 61zM203 567l75 158h66l-88 -158h-53z" />
    <glyph glyph-name="Ccircumflex" unicode="&#x108;" horiz-adv-x="580" 
d="M543 481h-57c-23 117 -92 161 -186 161c-118 0 -187 -68 -187 -256v-82c0 -189 70 -256 187 -256c100 0 164 53 186 163h56c-22 -155 -124 -217 -242 -217c-150 0 -245 87 -245 310v82c0 223 95 310 245 310c123 0 221 -64 243 -215zM274 889h52l148 -142h-74l-100 100
l-101 -100h-74z" />
    <glyph glyph-name="ccircumflex" unicode="&#x109;" horiz-adv-x="443" 
d="M382 106l44 -31c-33 -53 -92 -81 -170 -81c-134 0 -211 80 -211 221v72c0 142 79 219 211 219c73 0 132 -26 169 -77l-44 -30c-28 38 -75 56 -125 56c-99 0 -156 -60 -156 -168v-72c0 -99 46 -170 156 -170c51 0 98 17 126 61zM216 700h62l108 -142h-60l-79 105l-79 -105
h-60z" />
    <glyph glyph-name="Cdotaccent" unicode="&#x10a;" horiz-adv-x="580" 
d="M543 481h-57c-23 117 -92 161 -186 161c-118 0 -187 -68 -187 -256v-82c0 -189 70 -256 187 -256c100 0 164 53 186 163h56c-22 -155 -124 -217 -242 -217c-150 0 -245 87 -245 310v82c0 223 95 310 245 310c123 0 221 -64 243 -215zM333 802h-67v67h67v-67z" />
    <glyph glyph-name="cdotaccent" unicode="&#x10b;" horiz-adv-x="443" 
d="M382 106l44 -31c-33 -53 -92 -81 -170 -81c-134 0 -211 80 -211 221v72c0 142 79 219 211 219c73 0 132 -26 169 -77l-44 -30c-28 38 -75 56 -125 56c-99 0 -156 -60 -156 -168v-72c0 -99 46 -170 156 -170c51 0 98 17 126 61zM280 623h-67v67h67v-67z" />
    <glyph glyph-name="Ccaron" unicode="&#x10c;" horiz-adv-x="580" 
d="M543 481h-57c-23 117 -92 161 -186 161c-118 0 -187 -68 -187 -256v-82c0 -189 70 -256 187 -256c100 0 164 53 186 163h56c-22 -155 -124 -217 -242 -217c-150 0 -245 87 -245 310v82c0 223 95 310 245 310c123 0 221 -64 243 -215zM198 889l101 -100l100 100h74
l-148 -142h-52l-149 142h74z" />
    <glyph glyph-name="ccaron" unicode="&#x10d;" horiz-adv-x="443" 
d="M382 106l44 -31c-33 -53 -92 -81 -170 -81c-134 0 -211 80 -211 221v72c0 142 79 219 211 219c73 0 132 -26 169 -77l-44 -30c-28 38 -75 56 -125 56c-99 0 -156 -60 -156 -168v-72c0 -99 46 -170 156 -170c51 0 98 17 126 61zM276 558h-62l-108 142h60l79 -105l79 105
h60z" />
    <glyph glyph-name="Dcaron" unicode="&#x10e;" horiz-adv-x="605" 
d="M300 0h-210v690h210c153 0 250 -81 250 -304v-82c0 -223 -97 -304 -250 -304zM300 54c118 0 192 58 192 250v82c0 189 -73 250 -192 250h-152v-582h152zM188 889l101 -100l100 100h74l-148 -142h-52l-149 142h74z" />
    <glyph glyph-name="dcaron" unicode="&#x10f;" horiz-adv-x="593" 
d="M391 435v255h55v-690h-55v61c-28 -46 -76 -67 -151 -67c-130 0 -195 84 -195 221v72c0 142 71 219 195 219c75 0 123 -24 151 -71zM244 45c112 0 147 71 147 169v72c0 102 -40 169 -147 169c-95 0 -144 -59 -144 -168v-72c0 -105 47 -170 144 -170zM568 690v-103l-63 -55
v158h63z" />
    <glyph glyph-name="Dcroat" unicode="&#x110;" horiz-adv-x="613" 
d="M308 0h-210v330h-113v54h113v306h210c153 0 250 -81 250 -304v-82c0 -223 -97 -304 -250 -304zM308 54c118 0 192 58 192 250v82c0 189 -73 250 -192 250h-152v-252h188v-54h-188v-276h152z" />
    <glyph glyph-name="dcroat" unicode="&#x111;" horiz-adv-x="521" 
d="M391 619v71h55v-71h101v-51h-101v-568h-55v61c-28 -46 -76 -67 -151 -67c-130 0 -195 84 -195 221v72c0 142 71 219 195 219c75 0 123 -24 151 -71v133h-173v51h173zM244 45c112 0 147 71 147 169v72c0 102 -40 169 -147 169c-95 0 -144 -59 -144 -168v-72
c0 -105 47 -170 144 -170z" />
    <glyph glyph-name="Emacron" unicode="&#x112;" horiz-adv-x="543" 
d="M90 690h406v-54h-348v-252h318v-54h-318v-276h348v-54h-406v690zM144 787v51h299v-51h-299z" />
    <glyph glyph-name="emacron" unicode="&#x113;" horiz-adv-x="484" 
d="M431 236h-331v-21c0 -99 46 -170 152 -170c61 0 102 18 130 61l44 -31c-35 -55 -90 -81 -171 -81c-133 0 -210 82 -210 221v72c0 142 68 219 193 219s193 -77 193 -219v-51zM100 287v-1h276v1c0 109 -47 168 -138 168s-138 -60 -138 -168zM109 621v51h259v-51h-259z" />
    <glyph glyph-name="Edotaccent" unicode="&#x116;" horiz-adv-x="543" 
d="M90 690h406v-54h-348v-252h318v-54h-318v-276h348v-54h-406v690zM326 802h-67v67h67v-67z" />
    <glyph glyph-name="edotaccent" unicode="&#x117;" horiz-adv-x="484" 
d="M431 236h-331v-21c0 -99 46 -170 152 -170c61 0 102 18 130 61l44 -31c-35 -55 -90 -81 -171 -81c-133 0 -210 82 -210 221v72c0 142 68 219 193 219s193 -77 193 -219v-51zM100 287v-1h276v1c0 109 -47 168 -138 168s-138 -60 -138 -168zM272 623h-67v67h67v-67z" />
    <glyph glyph-name="Eogonek" unicode="&#x118;" horiz-adv-x="543" 
d="M90 690h406v-54h-348v-252h318v-54h-318v-276h348v-54h-128c-42 -22 -80 -40 -80 -73c0 -30 31 -35 57 -35c10 0 20 1 27 2l9 -41c-8 -2 -23 -3 -41 -3c-49 0 -102 19 -102 74c0 32 16 55 46 76h-194v690z" />
    <glyph glyph-name="eogonek" unicode="&#x119;" horiz-adv-x="478" 
d="M431 236h-331v-21c0 -99 46 -170 152 -170c61 0 102 18 130 61l44 -31c-26 -40 -62 -65 -111 -75c-42 -22 -80 -40 -80 -73c0 -30 31 -35 57 -35c10 0 20 1 27 2l9 -41c-8 -2 -23 -3 -41 -3c-49 0 -102 19 -102 74c0 30 15 52 41 72c-115 11 -181 90 -181 219v72
c0 142 68 219 193 219s193 -77 193 -219v-51zM100 287v-1h276v1c0 109 -47 168 -138 168s-138 -60 -138 -168z" />
    <glyph glyph-name="Ecaron" unicode="&#x11a;" horiz-adv-x="543" 
d="M90 690h406v-54h-348v-252h318v-54h-318v-276h348v-54h-406v690zM192 889l101 -100l100 100h74l-148 -142h-52l-149 142h74z" />
    <glyph glyph-name="ecaron" unicode="&#x11b;" horiz-adv-x="484" 
d="M431 236h-331v-21c0 -99 46 -170 152 -170c61 0 102 18 130 61l44 -31c-35 -55 -90 -81 -171 -81c-133 0 -210 82 -210 221v72c0 142 68 219 193 219s193 -77 193 -219v-51zM100 287v-1h276v1c0 109 -47 168 -138 168s-138 -60 -138 -168zM268 558h-62l-108 142h60
l79 -105l79 105h60z" />
    <glyph glyph-name="Gcircumflex" unicode="&#x11c;" horiz-adv-x="604" 
d="M303 337h246v-28c0 -220 -95 -315 -249 -315c-150 0 -245 87 -245 310v82c0 223 95 310 245 310c122 0 221 -64 243 -215h-57c-22 115 -90 161 -186 161c-117 0 -187 -68 -187 -256v-82c0 -188 70 -256 187 -256c115 0 184 66 190 235h-187v54zM276 889h52l148 -142h-74
l-100 100l-101 -100h-74z" />
    <glyph glyph-name="gcircumflex" unicode="&#x11d;" horiz-adv-x="516" 
d="M45 215v72c0 142 71 219 195 219c75 0 123 -24 151 -71v65h55v-480c0 -139 -75 -216 -204 -216c-80 0 -133 26 -166 81l43 31c27 -43 68 -61 126 -61c101 0 146 66 146 165v41c-28 -46 -76 -67 -151 -67c-130 0 -195 84 -195 221zM244 45c112 0 147 71 147 169v79
c0 98 -43 162 -147 162c-95 0 -144 -59 -144 -168v-72c0 -105 47 -170 144 -170zM212 700h62l108 -142h-60l-79 105l-79 -105h-60z" />
    <glyph glyph-name="Gbreve" unicode="&#x11e;" horiz-adv-x="604" 
d="M303 337h246v-28c0 -220 -95 -315 -249 -315c-150 0 -245 87 -245 310v82c0 223 95 310 245 310c122 0 221 -64 243 -215h-57c-22 115 -90 161 -186 161c-117 0 -187 -68 -187 -256v-82c0 -188 70 -256 187 -256c115 0 184 66 190 235h-187v54zM428 889h54
c0 -97 -72 -147 -179 -147s-180 50 -180 147h54c5 -51 36 -93 126 -93c89 0 120 42 125 93z" />
    <glyph glyph-name="gbreve" unicode="&#x11f;" horiz-adv-x="516" 
d="M45 215v72c0 142 71 219 195 219c75 0 123 -24 151 -71v65h55v-480c0 -139 -75 -216 -204 -216c-80 0 -133 26 -166 81l43 31c27 -43 68 -61 126 -61c101 0 146 66 146 165v41c-28 -46 -76 -67 -151 -67c-130 0 -195 84 -195 221zM244 45c112 0 147 71 147 169v79
c0 98 -43 162 -147 162c-95 0 -144 -59 -144 -168v-72c0 -105 47 -170 144 -170zM326 690h48c-3 -75 -50 -113 -131 -113s-128 38 -131 113h48c4 -45 26 -69 83 -69c56 0 79 24 83 69z" />
    <glyph glyph-name="Gdotaccent" unicode="&#x120;" horiz-adv-x="604" 
d="M303 337h246v-28c0 -220 -95 -315 -249 -315c-150 0 -245 87 -245 310v82c0 223 95 310 245 310c122 0 221 -64 243 -215h-57c-22 115 -90 161 -186 161c-117 0 -187 -68 -187 -256v-82c0 -188 70 -256 187 -256c115 0 184 66 190 235h-187v54zM336 802h-67v67h67v-67z
" />
    <glyph glyph-name="gdotaccent" unicode="&#x121;" horiz-adv-x="516" 
d="M45 215v72c0 142 71 219 195 219c75 0 123 -24 151 -71v65h55v-480c0 -139 -75 -216 -204 -216c-80 0 -133 26 -166 81l43 31c27 -43 68 -61 126 -61c101 0 146 66 146 165v41c-28 -46 -76 -67 -151 -67c-130 0 -195 84 -195 221zM244 45c112 0 147 71 147 169v79
c0 98 -43 162 -147 162c-95 0 -144 -59 -144 -168v-72c0 -105 47 -170 144 -170zM277 623h-67v67h67v-67z" />
    <glyph glyph-name="Gcommaaccent" unicode="&#x122;" horiz-adv-x="604" 
d="M303 337h246v-28c0 -220 -95 -315 -249 -315c-150 0 -245 87 -245 310v82c0 223 95 310 245 310c122 0 221 -64 243 -215h-57c-22 115 -90 161 -186 161c-117 0 -187 -68 -187 -256v-82c0 -188 70 -256 187 -256c115 0 184 66 190 235h-187v54zM333 -64v-103l-63 -55v158
h63z" />
    <glyph glyph-name="gcommaaccent" unicode="&#x123;" horiz-adv-x="516" 
d="M45 215v72c0 142 71 219 195 219c75 0 123 -24 151 -71v65h55v-480c0 -139 -75 -216 -204 -216c-80 0 -133 26 -166 81l43 31c27 -43 68 -61 126 -61c101 0 146 66 146 165v41c-28 -46 -76 -67 -151 -67c-130 0 -195 84 -195 221zM244 45c112 0 147 71 147 169v79
c0 98 -43 162 -147 162c-95 0 -144 -59 -144 -168v-72c0 -105 47 -170 144 -170zM226 588v103l63 55v-158h-63z" />
    <glyph glyph-name="Hcircumflex" unicode="&#x124;" horiz-adv-x="638" 
d="M148 690v-305h342v305h58v-690h-58v331h-342v-331h-58v690h58zM293 889h52l148 -142h-74l-100 100l-101 -100h-74z" />
    <glyph glyph-name="hcircumflex" unicode="&#x125;" 
d="M70 0v690h55v-258c27 48 73 74 147 74c111 0 184 -69 184 -210v-296h-55v295c0 114 -57 159 -135 159c-94 0 -141 -62 -141 -154v-300h-55zM66 866h62l108 -142h-60l-79 105l-79 -105h-60z" />
    <glyph glyph-name="Hbar" unicode="&#x126;" horiz-adv-x="663" 
d="M502 690h58v-156h100v-54h-100v-480h-58v331h-342v-331h-58v480h-100v54h100v156h58v-156h342v156zM160 480v-95h342v95h-342z" />
    <glyph glyph-name="hbar" unicode="&#x127;" horiz-adv-x="545" 
d="M-5 568v51h94v71h55v-71h180v-51h-180v-136c27 48 73 74 148 74c111 0 183 -69 183 -210v-296h-55v295c0 114 -57 159 -134 159c-95 0 -141 -62 -142 -154v-300h-55v568h-94z" />
    <glyph glyph-name="Imacron" unicode="&#x12a;" horiz-adv-x="258" 
d="M158 690v-690h-58v690h58zM-20 787v51h299v-51h-299z" />
    <glyph glyph-name="imacron" unicode="&#x12b;" horiz-adv-x="213" 
d="M79 0v500h55v-500h-55zM-23 621v51h259v-51h-259z" />
    <glyph glyph-name="Iogonek" unicode="&#x12e;" horiz-adv-x="258" 
d="M158 690v-690h-20c-42 -22 -80 -40 -80 -73c0 -30 31 -35 57 -35c10 0 20 1 27 2l9 -41c-8 -2 -23 -3 -41 -3c-49 0 -102 19 -102 74c0 45 33 73 92 102v664h58z" />
    <glyph glyph-name="iogonek" unicode="&#x12f;" horiz-adv-x="225" 
d="M140 0h-20c-42 -22 -80 -40 -80 -73c0 -30 31 -35 57 -35c10 0 20 1 27 2l9 -41c-8 -2 -23 -3 -41 -3c-49 0 -102 19 -102 74c0 46 34 74 95 104v472h55v-500zM79 623v67h67v-67h-67z" />
    <glyph glyph-name="Idotaccent" unicode="&#x130;" horiz-adv-x="258" 
d="M158 690v-690h-58v690h58zM162 802h-67v67h67v-67z" />
    <glyph glyph-name="dotlessi" unicode="&#x131;" horiz-adv-x="213" 
d="M79 0v500h55v-500h-55z" />
    <glyph glyph-name="Jcircumflex" unicode="&#x134;" horiz-adv-x="505" 
d="M10 80l50 28c29 -39 69 -60 128 -60c117 0 169 73 169 238v404h58v-404c0 -210 -85 -292 -227 -292c-72 0 -140 26 -178 86zM362 889h52l148 -142h-74l-100 100l-101 -100h-74z" />
    <glyph glyph-name="jcircumflex" unicode="&#x135;" horiz-adv-x="235" 
d="M150 500v-536c0 -104 -35 -154 -150 -154v52c88 0 95 45 95 112v526h55zM91 700h62l108 -142h-60l-79 105l-79 -105h-60z" />
    <glyph glyph-name="Kcommaaccent" unicode="&#x136;" horiz-adv-x="619" 
d="M612 0h-70l-254 368l-140 -166v-202h-58v690h58v-401l337 401h76l-234 -276zM353 -64v-103l-63 -55v158h63z" />
    <glyph glyph-name="kcommaaccent" unicode="&#x137;" horiz-adv-x="489" 
d="M371 500h72l-214 -221l248 -279h-72l-216 238l-64 -66v-172h-55v690h55v-441zM279 -64v-103l-63 -55v158h63z" />
    <glyph glyph-name="Lacute" unicode="&#x139;" horiz-adv-x="501" 
d="M148 690v-636h348v-54h-406v690h58zM94 757l72 129h68l-87 -129h-53z" />
    <glyph glyph-name="lacute" unicode="&#x13a;" horiz-adv-x="268" 
d="M70 152v538h55v-524c0 -70 8 -116 95 -116v-52c-115 0 -150 50 -150 154zM70 726l75 158h66l-88 -158h-53z" />
    <glyph glyph-name="Lcommaaccent" unicode="&#x13b;" horiz-adv-x="501" 
d="M148 690v-636h348v-54h-406v690h58zM332 -64v-103l-63 -55v158h63z" />
    <glyph glyph-name="lcommaaccent" unicode="&#x13c;" horiz-adv-x="268" 
d="M70 152v538h55v-524c0 -70 8 -116 95 -116v-52c-115 0 -150 50 -150 154zM181 -64v-103l-63 -55v158h63z" />
    <glyph glyph-name="Lcaron" unicode="&#x13d;" horiz-adv-x="501" 
d="M148 690v-636h348v-54h-406v690h58zM370 705v-142l-68 -59v201h68z" />
    <glyph glyph-name="lcaron" unicode="&#x13e;" horiz-adv-x="297" 
d="M70 152v538h55v-524c0 -70 8 -116 95 -116v-52c-115 0 -150 50 -150 154zM284 690v-103l-63 -55v158h63z" />
    <glyph glyph-name="Ldot" unicode="&#x13f;" horiz-adv-x="501" 
d="M148 690v-636h348v-54h-406v690h58zM403 363h-67v67h67v-67z" />
    <glyph glyph-name="ldot" unicode="&#x140;" horiz-adv-x="247" 
d="M70 152v538h55v-524c0 -70 8 -116 95 -116v-52c-115 0 -150 50 -150 154zM261 371h-67v67h67v-67z" />
    <glyph glyph-name="Lslash" unicode="&#x141;" horiz-adv-x="501" 
d="M143 690v-281l162 130l32 -39l-194 -156v-290h348v-54h-406v298l-77 -62l-32 40l109 87v327h58z" />
    <glyph glyph-name="lslash" unicode="&#x142;" horiz-adv-x="255" 
d="M-6 244l-28 42l104 72v332h55v-294l110 76l28 -41l-138 -96v-169c0 -70 8 -116 95 -116v-52c-115 0 -150 50 -150 154v145z" />
    <glyph glyph-name="Nacute" unicode="&#x143;" horiz-adv-x="638" 
d="M490 690h58v-690h-56l-344 574v-574h-58v690h55l345 -579v579zM290 757l72 129h68l-87 -129h-53z" />
    <glyph glyph-name="nacute" unicode="&#x144;" 
d="M70 0v500h55v-68c26 48 72 74 147 74c111 0 184 -69 184 -210v-296h-55v295c0 114 -57 159 -135 159c-94 0 -141 -62 -141 -154v-300h-55zM243 567l75 158h66l-88 -158h-53z" />
    <glyph glyph-name="Ncommaaccent" unicode="&#x145;" horiz-adv-x="638" 
d="M490 690h58v-690h-56l-344 574v-574h-58v690h55l345 -579v579zM354 -64v-103l-63 -55v158h63z" />
    <glyph glyph-name="ncommaaccent" unicode="&#x146;" 
d="M70 0v500h55v-68c26 48 72 74 147 74c111 0 184 -69 184 -210v-296h-55v295c0 114 -57 159 -135 159c-94 0 -141 -62 -141 -154v-300h-55zM294 -64v-103l-63 -55v158h63z" />
    <glyph glyph-name="Ncaron" unicode="&#x147;" horiz-adv-x="638" 
d="M490 690h58v-690h-56l-344 574v-574h-58v690h55l345 -579v579zM218 889l101 -100l100 100h74l-148 -142h-52l-149 142h74z" />
    <glyph glyph-name="ncaron" unicode="&#x148;" 
d="M70 0v500h55v-68c26 48 72 74 147 74c111 0 184 -69 184 -210v-296h-55v295c0 114 -57 159 -135 159c-94 0 -141 -62 -141 -154v-300h-55zM293 558h-62l-108 142h60l79 -105l79 105h60z" />
    <glyph glyph-name="Omacron" unicode="&#x14c;" horiz-adv-x="600" 
d="M545 304c0 -218 -97 -310 -245 -310s-245 92 -245 310v82c0 217 97 310 245 310s245 -93 245 -310v-82zM113 386v-82c0 -187 74 -256 187 -256s187 69 187 256v82c0 186 -74 256 -187 256s-187 -70 -187 -256zM151 787v51h299v-51h-299z" />
    <glyph glyph-name="omacron" unicode="&#x14d;" horiz-adv-x="496" 
d="M451 214c0 -136 -69 -220 -203 -220c-129 0 -203 80 -203 220v73c0 142 75 219 203 219s203 -77 203 -219v-73zM396 214v73c0 109 -53 168 -148 168c-96 0 -148 -59 -148 -168v-73c0 -105 47 -169 148 -169c97 0 148 64 148 169zM119 621v51h259v-51h-259z" />
    <glyph glyph-name="Ohungarumlaut" unicode="&#x150;" horiz-adv-x="600" 
d="M545 304c0 -218 -97 -310 -245 -310s-245 92 -245 310v82c0 217 97 310 245 310s245 -93 245 -310v-82zM113 386v-82c0 -187 74 -256 187 -256s187 69 187 256v82c0 186 -74 256 -187 256s-187 -70 -187 -256zM172 757l80 129h68l-94 -129h-54zM350 757l85 129h67
l-99 -129h-53z" />
    <glyph glyph-name="ohungarumlaut" unicode="&#x151;" horiz-adv-x="496" 
d="M451 214c0 -136 -69 -220 -203 -220c-129 0 -203 80 -203 220v73c0 142 75 219 203 219s203 -77 203 -219v-73zM396 214v73c0 109 -53 168 -148 168c-96 0 -148 -59 -148 -168v-73c0 -105 47 -169 148 -169c97 0 148 64 148 169zM298 567l85 158h66l-98 -158h-53z
M129 567l75 158h65l-88 -158h-52z" />
    <glyph glyph-name="OE" unicode="&#x152;" horiz-adv-x="940" 
d="M545 54h348v-54h-406v78c-43 -58 -108 -84 -187 -84c-148 0 -245 92 -245 310v82c0 217 97 310 245 310c79 0 144 -27 187 -85v79h406v-54h-348v-252h318v-54h-318v-276zM113 386v-82c0 -187 74 -256 187 -256c110 0 187 65 187 242v96c0 186 -74 256 -187 256
s-187 -70 -187 -256z" />
    <glyph glyph-name="oe" unicode="&#x153;" horiz-adv-x="835" 
d="M248 506c81 0 141 -32 174 -91c31 59 87 91 167 91c125 0 193 -77 193 -219v-51h-331v-21c0 -99 46 -170 152 -170c61 0 102 18 130 61l44 -31c-35 -55 -90 -81 -171 -81c-86 0 -148 34 -182 95c-31 -60 -91 -95 -176 -95c-129 0 -203 80 -203 220v73
c0 142 75 219 203 219zM396 215v72c0 112 -56 168 -148 168c-96 0 -148 -59 -148 -168v-73c0 -105 47 -169 148 -169c97 0 148 65 148 170zM451 287v-1h276v1c0 109 -47 168 -138 168s-138 -60 -138 -168z" />
    <glyph glyph-name="Racute" unicode="&#x154;" horiz-adv-x="604" 
d="M569 0h-65l-153 295c-15 -2 -30 -2 -46 -2h-157v-293h-58v690h215c156 0 246 -68 246 -199c0 -98 -51 -161 -142 -186zM148 347h157c121 0 188 41 188 144s-67 145 -188 145h-157v-289zM246 757l72 129h68l-87 -129h-53z" />
    <glyph glyph-name="racute" unicode="&#x155;" horiz-adv-x="387" 
d="M246 454c-78 0 -121 -62 -121 -153v-301h-55v500h55v-68c21 46 63 74 126 74c65 0 108 -25 141 -69l-46 -34c-26 34 -56 51 -100 51zM204 567l75 158h66l-88 -158h-53z" />
    <glyph glyph-name="Rcommaaccent" unicode="&#x156;" horiz-adv-x="604" 
d="M569 0h-65l-153 295c-15 -2 -30 -2 -46 -2h-157v-293h-58v690h215c156 0 246 -68 246 -199c0 -98 -51 -161 -142 -186zM148 347h157c121 0 188 41 188 144s-67 145 -188 145h-157v-289zM330 -64v-103l-63 -55v158h63z" />
    <glyph glyph-name="rcommaaccent" unicode="&#x157;" horiz-adv-x="387" 
d="M246 454c-78 0 -121 -62 -121 -153v-301h-55v500h55v-68c21 46 63 74 126 74c65 0 108 -25 141 -69l-46 -34c-26 34 -56 51 -100 51zM130 -64v-103l-63 -55v158h63z" />
    <glyph glyph-name="Rcaron" unicode="&#x158;" horiz-adv-x="604" 
d="M569 0h-65l-153 295c-15 -2 -30 -2 -46 -2h-157v-293h-58v690h215c156 0 246 -68 246 -199c0 -98 -51 -161 -142 -186zM148 347h157c121 0 188 41 188 144s-67 145 -188 145h-157v-289zM189 889l101 -100l100 100h74l-148 -142h-52l-149 142h74z" />
    <glyph glyph-name="rcaron" unicode="&#x159;" horiz-adv-x="387" 
d="M246 454c-78 0 -121 -62 -121 -153v-301h-55v500h55v-68c21 46 63 74 126 74c65 0 108 -25 141 -69l-46 -34c-26 34 -56 51 -100 51zM276 558h-62l-108 142h60l79 -105l79 105h60z" />
    <glyph glyph-name="Sacute" unicode="&#x15a;" horiz-adv-x="569" 
d="M506 583l-46 -33c-36 53 -84 92 -179 92s-158 -39 -158 -124c0 -99 79 -124 179 -146c130 -28 216 -68 216 -198c0 -88 -62 -180 -227 -180c-110 0 -190 38 -241 113l47 33c43 -54 91 -92 194 -92c123 0 169 57 169 124c0 83 -48 123 -178 148c-129 25 -217 75 -217 198
c0 97 63 178 218 178c107 0 175 -37 223 -113zM239 757l72 129h68l-87 -129h-53z" />
    <glyph glyph-name="sacute" unicode="&#x15b;" horiz-adv-x="461" 
d="M398 423l-42 -30c-31 44 -63 61 -136 61c-67 0 -118 -25 -118 -82c0 -70 63 -84 133 -93c97 -13 178 -41 178 -147c0 -78 -50 -138 -183 -138c-99 0 -151 31 -188 83l43 30c30 -42 68 -61 146 -61s127 25 127 85c0 64 -50 86 -149 99c-85 11 -162 40 -162 141
c0 81 61 135 174 135c79 0 139 -21 177 -83zM195 567l75 158h66l-88 -158h-53z" />
    <glyph glyph-name="Scircumflex" unicode="&#x15c;" horiz-adv-x="569" 
d="M506 583l-46 -33c-36 53 -84 92 -179 92s-158 -39 -158 -124c0 -99 79 -124 179 -146c130 -28 216 -68 216 -198c0 -88 -62 -180 -227 -180c-110 0 -190 38 -241 113l47 33c43 -54 91 -92 194 -92c123 0 169 57 169 124c0 83 -48 123 -178 148c-129 25 -217 75 -217 198
c0 97 63 178 218 178c107 0 175 -37 223 -113zM262 889h52l148 -142h-74l-100 100l-101 -100h-74z" />
    <glyph glyph-name="scircumflex" unicode="&#x15d;" horiz-adv-x="461" 
d="M398 423l-42 -30c-31 44 -63 61 -136 61c-67 0 -118 -25 -118 -82c0 -70 63 -84 133 -93c97 -13 178 -41 178 -147c0 -78 -50 -138 -183 -138c-99 0 -151 31 -188 83l43 30c30 -42 68 -61 146 -61s127 25 127 85c0 64 -50 86 -149 99c-85 11 -162 40 -162 141
c0 81 61 135 174 135c79 0 139 -21 177 -83zM194 700h62l108 -142h-60l-79 105l-79 -105h-60z" />
    <glyph glyph-name="Scedilla" unicode="&#x15e;" horiz-adv-x="579" 
d="M256 -55l11 50c-98 5 -170 42 -217 112l47 33c43 -54 91 -92 194 -92c123 0 169 57 169 124c0 83 -48 123 -178 148c-129 25 -217 75 -217 198c0 97 63 178 218 178c107 0 175 -37 223 -113l-46 -33c-36 53 -84 92 -179 92s-158 -39 -158 -124c0 -99 79 -124 179 -146
c130 -28 216 -68 216 -198c0 -85 -58 -174 -210 -180l-4 -15c43 -10 72 -35 72 -76c0 -55 -46 -82 -109 -82c-14 0 -29 1 -37 3l9 40c7 -1 16 -1 25 -1c32 0 62 8 62 40c0 29 -31 40 -70 42z" />
    <glyph glyph-name="scedilla" unicode="&#x15f;" horiz-adv-x="461" 
d="M199 -55l10 50c-86 4 -133 33 -167 82l43 30c30 -42 68 -61 146 -61s127 25 127 85c0 64 -50 86 -149 99c-85 11 -162 40 -162 141c0 81 61 135 174 135c79 0 139 -21 177 -83l-42 -30c-31 44 -63 61 -136 61c-67 0 -118 -25 -118 -82c0 -70 63 -84 133 -93
c97 -13 178 -41 178 -147c0 -74 -45 -131 -161 -137l-5 -17c43 -10 71 -34 71 -75c0 -55 -46 -82 -109 -82c-14 0 -28 1 -37 3l9 40c8 -1 16 -1 25 -1c32 0 62 8 62 40c0 29 -31 40 -69 42z" />
    <glyph glyph-name="Scaron" unicode="&#x160;" horiz-adv-x="569" 
d="M506 583l-46 -33c-36 53 -84 92 -179 92s-158 -39 -158 -124c0 -99 79 -124 179 -146c130 -28 216 -68 216 -198c0 -88 -62 -180 -227 -180c-110 0 -190 38 -241 113l47 33c43 -54 91 -92 194 -92c123 0 169 57 169 124c0 83 -48 123 -178 148c-129 25 -217 75 -217 198
c0 97 63 178 218 178c107 0 175 -37 223 -113zM182 889l101 -100l100 100h74l-148 -142h-52l-149 142h74z" />
    <glyph glyph-name="scaron" unicode="&#x161;" horiz-adv-x="461" 
d="M398 423l-42 -30c-31 44 -63 61 -136 61c-67 0 -118 -25 -118 -82c0 -70 63 -84 133 -93c97 -13 178 -41 178 -147c0 -78 -50 -138 -183 -138c-99 0 -151 31 -188 83l43 30c30 -42 68 -61 146 -61s127 25 127 85c0 64 -50 86 -149 99c-85 11 -162 40 -162 141
c0 81 61 135 174 135c79 0 139 -21 177 -83zM257 558h-62l-108 142h60l79 -105l79 105h60z" />
    <glyph glyph-name="Tcedilla" unicode="&#x162;" horiz-adv-x="516" 
d="M10 690h496v-54h-219v-636h-8l-6 -21c44 -10 72 -35 72 -76c0 -55 -46 -82 -109 -82c-14 0 -29 1 -37 3l9 40c7 -1 16 -1 25 -1c32 0 62 8 62 40c0 29 -31 40 -70 42l11 55h-7v636h-219v54z" />
    <glyph glyph-name="tcedilla" unicode="&#x163;" horiz-adv-x="315" 
d="M164 -55l13 61c-66 16 -87 64 -87 148v295h-64v51h64v110h55v-110h123v-51h-123v-280c0 -80 9 -116 90 -116h33v-53h-50l-6 -22c43 -10 71 -34 71 -75c0 -55 -46 -82 -109 -82c-14 0 -28 1 -37 3l9 40c8 -1 16 -1 25 -1c32 0 62 8 62 40c0 29 -31 40 -69 42z" />
    <glyph glyph-name="Tcaron" unicode="&#x164;" horiz-adv-x="516" 
d="M10 690h496v-54h-219v-636h-58v636h-219v54zM157 889l101 -100l100 100h74l-148 -142h-52l-149 142h74z" />
    <glyph glyph-name="tcaron" unicode="&#x165;" horiz-adv-x="390" 
d="M26 449v51h64v110h55v-110h123v-51h-123v-280c0 -80 9 -116 90 -116h33v-53h-35c-111 0 -143 50 -143 154v295h-64zM351 690v-103l-63 -55v158h63z" />
    <glyph glyph-name="Umacron" unicode="&#x16a;" horiz-adv-x="670" 
d="M335 -6c-150 0 -245 85 -245 288v408h58v-408c0 -160 66 -234 187 -234s187 74 187 234v408h58v-408c0 -203 -95 -288 -245 -288zM186 787v51h299v-51h-299z" />
    <glyph glyph-name="umacron" unicode="&#x16b;" 
d="M456 500v-500h-55v67c-27 -47 -73 -73 -148 -73c-111 0 -183 68 -183 210v296h55v-296c0 -113 57 -158 134 -158c95 0 142 63 142 154v300h55zM134 621v51h259v-51h-259z" />
    <glyph glyph-name="Ubreve" unicode="&#x16c;" horiz-adv-x="670" 
d="M335 -6c-150 0 -245 85 -245 288v408h58v-408c0 -160 66 -234 187 -234s187 74 187 234v408h58v-408c0 -203 -95 -288 -245 -288zM461 889h54c0 -97 -72 -147 -179 -147s-180 50 -180 147h54c5 -51 36 -93 126 -93c89 0 120 42 125 93z" />
    <glyph glyph-name="ubreve" unicode="&#x16d;" 
d="M456 500v-500h-55v67c-27 -47 -73 -73 -148 -73c-111 0 -183 68 -183 210v296h55v-296c0 -113 57 -158 134 -158c95 0 142 63 142 154v300h55zM346 690h48c-3 -75 -50 -113 -131 -113s-128 38 -131 113h48c4 -45 26 -69 83 -69c56 0 79 24 83 69z" />
    <glyph glyph-name="Uring" unicode="&#x16e;" horiz-adv-x="670" 
d="M335 -6c-150 0 -245 85 -245 288v408h58v-408c0 -160 66 -234 187 -234s187 74 187 234v408h58v-408c0 -203 -95 -288 -245 -288zM226 800c0 61 49 99 109 99c61 0 110 -38 110 -99c0 -60 -49 -98 -110 -98c-60 0 -109 38 -109 98zM267 800c0 -38 31 -58 68 -58
c38 0 68 20 68 58c0 39 -30 58 -68 58c-37 0 -68 -19 -68 -58z" />
    <glyph glyph-name="uring" unicode="&#x16f;" 
d="M456 500v-500h-55v67c-27 -47 -73 -73 -148 -73c-111 0 -183 68 -183 210v296h55v-296c0 -113 57 -158 134 -158c95 0 142 63 142 154v300h55zM154 646c0 61 49 110 109 110c61 0 110 -49 110 -110c0 -60 -49 -109 -110 -109c-60 0 -109 49 -109 109zM195 646
c0 -37 31 -68 68 -68c38 0 68 31 68 68c0 38 -30 68 -68 68c-37 0 -68 -30 -68 -68z" />
    <glyph glyph-name="Uhungarumlaut" unicode="&#x170;" horiz-adv-x="670" 
d="M335 -6c-150 0 -245 85 -245 288v408h58v-408c0 -160 66 -234 187 -234s187 74 187 234v408h58v-408c0 -203 -95 -288 -245 -288zM213 757l80 129h68l-94 -129h-54zM391 757l85 129h67l-99 -129h-53z" />
    <glyph glyph-name="uhungarumlaut" unicode="&#x171;" 
d="M456 500v-500h-55v67c-27 -47 -73 -73 -148 -73c-111 0 -183 68 -183 210v296h55v-296c0 -113 57 -158 134 -158c95 0 142 63 142 154v300h55zM315 567l85 158h66l-98 -158h-53zM146 567l75 158h65l-88 -158h-52z" />
    <glyph glyph-name="Uogonek" unicode="&#x172;" horiz-adv-x="670" 
d="M580 282c0 -173 -69 -260 -182 -282c-42 -22 -80 -40 -80 -73c0 -30 31 -35 57 -35c10 0 20 1 27 2l9 -41c-8 -2 -23 -3 -41 -3c-49 0 -102 19 -102 74c0 29 14 51 40 71c-135 10 -218 96 -218 287v408h58v-408c0 -160 66 -234 187 -234s187 74 187 234v408h58v-408z" />
    <glyph glyph-name="uogonek" unicode="&#x173;" 
d="M456 500v-500h-17c-42 -22 -80 -40 -80 -73c0 -30 31 -35 57 -35c10 0 20 1 27 2l9 -41c-8 -2 -23 -3 -41 -3c-49 0 -102 19 -102 74c0 45 33 73 92 102v41c-27 -47 -73 -73 -148 -73c-111 0 -183 68 -183 210v296h55v-296c0 -113 57 -158 134 -158c95 0 142 63 142 154
v300h55z" />
    <glyph glyph-name="Ydieresis" unicode="&#x178;" horiz-adv-x="536" 
d="M15 690h68l185 -324l185 324h68l-224 -388v-302h-58v302zM407 802h-67v67h67v-67zM197 802h-67v67h67v-67z" />
    <glyph glyph-name="Zacute" unicode="&#x179;" horiz-adv-x="514" 
d="M32 690h439v-43l-365 -593h375v-54h-449v43l365 593h-365v54zM218 757l72 129h68l-87 -129h-53z" />
    <glyph glyph-name="zacute" unicode="&#x17a;" horiz-adv-x="449" 
d="M45 43l287 406h-287v51h359v-43l-285 -406h285v-51h-359v43zM200 567l75 158h66l-88 -158h-53z" />
    <glyph glyph-name="Zdotaccent" unicode="&#x17b;" horiz-adv-x="514" 
d="M32 690h439v-43l-365 -593h375v-54h-449v43l365 593h-365v54zM290 802h-67v67h67v-67z" />
    <glyph glyph-name="zdotaccent" unicode="&#x17c;" horiz-adv-x="449" 
d="M45 43l287 406h-287v51h359v-43l-285 -406h285v-51h-359v43zM258 623h-67v67h67v-67z" />
    <glyph glyph-name="Zcaron" unicode="&#x17d;" horiz-adv-x="514" 
d="M32 690h439v-43l-365 -593h375v-54h-449v43l365 593h-365v54zM156 889l101 -100l100 100h74l-148 -142h-52l-149 142h74z" />
    <glyph glyph-name="zcaron" unicode="&#x17e;" horiz-adv-x="449" 
d="M45 43l287 406h-287v51h359v-43l-285 -406h285v-51h-359v43zM255 558h-62l-108 142h60l79 -105l79 105h60z" />
    <glyph glyph-name="uni018F" unicode="&#x18f;" horiz-adv-x="604" 
d="M304 642c-89 0 -156 -41 -185 -143l-51 20c32 126 126 177 236 177c150 0 245 -87 245 -310v-82c0 -223 -95 -310 -245 -310c-152 0 -249 87 -249 310v33h436v49c0 187 -71 256 -187 256zM304 48c111 0 181 63 186 235h-377c6 -172 77 -235 191 -235z" />
    <glyph glyph-name="florin" unicode="&#x192;" horiz-adv-x="490" 
d="M141 500h64v36c0 105 32 154 142 154h23v-53h-21c-81 0 -89 -38 -89 -115v-22h110v-51h-110v-485c0 -104 -35 -154 -150 -154v52c88 0 95 45 95 120v467h-64v51z" />
    <glyph glyph-name="uni01DD" unicode="&#x1dd;" horiz-adv-x="482" 
d="M51 213v51h331v21c0 98 -47 170 -152 170c-60 0 -103 -19 -131 -61l-43 30c34 55 89 82 171 82c132 0 210 -83 210 -221v-72c0 -142 -69 -219 -193 -219c-125 0 -193 76 -193 219zM244 45c91 0 138 59 138 168v1h-276v-1c0 -109 47 -168 138 -168z" />
    <glyph glyph-name="Scommaaccent" unicode="&#x218;" horiz-adv-x="569" 
d="M506 583l-46 -33c-36 53 -84 92 -179 92s-158 -39 -158 -124c0 -99 79 -124 179 -146c130 -28 216 -68 216 -198c0 -88 -62 -180 -227 -180c-110 0 -190 38 -241 113l47 33c43 -54 91 -92 194 -92c123 0 169 57 169 124c0 83 -48 123 -178 148c-129 25 -217 75 -217 198
c0 97 63 178 218 178c107 0 175 -37 223 -113zM322 -64v-103l-63 -55v158h63z" />
    <glyph glyph-name="scommaaccent" unicode="&#x219;" horiz-adv-x="461" 
d="M398 423l-42 -30c-31 44 -63 61 -136 61c-67 0 -118 -25 -118 -82c0 -70 63 -84 133 -93c97 -13 178 -41 178 -147c0 -78 -50 -138 -183 -138c-99 0 -151 31 -188 83l43 30c30 -42 68 -61 146 -61s127 25 127 85c0 64 -50 86 -149 99c-85 11 -162 40 -162 141
c0 81 61 135 174 135c79 0 139 -21 177 -83zM264 -64v-103l-63 -55v158h63z" />
    <glyph glyph-name="Tcommaaccent" unicode="&#x21a;" horiz-adv-x="516" 
d="M10 690h496v-54h-219v-636h-58v636h-219v54zM289 -64v-103l-63 -55v158h63z" />
    <glyph glyph-name="tcommaaccent" unicode="&#x21b;" horiz-adv-x="308" 
d="M26 449v51h64v110h55v-110h123v-51h-123v-280c0 -80 9 -116 90 -116h33v-53h-35c-111 0 -143 50 -143 154v295h-64zM219 -64v-103l-63 -55v158h63z" />
    <glyph glyph-name="uni0237" unicode="&#x237;" horiz-adv-x="235" 
d="M150 500v-536c0 -104 -35 -154 -150 -154v52c88 0 95 45 95 112v526h55z" />
    <glyph glyph-name="uni0259" unicode="&#x259;" horiz-adv-x="482" 
d="M51 213v51h331v21c0 98 -47 170 -152 170c-60 0 -103 -19 -131 -61l-43 30c34 55 89 82 171 82c132 0 210 -83 210 -221v-72c0 -142 -69 -219 -193 -219c-125 0 -193 76 -193 219zM244 45c91 0 138 59 138 168v1h-276v-1c0 -109 47 -168 138 -168z" />
    <glyph glyph-name="afii57929" unicode="&#x2bc;" horiz-adv-x="125" 
d="M100 500v-153l-63 -55v208h63z" />
    <glyph glyph-name="circumflex" unicode="&#x2c6;" horiz-adv-x="382" 
d="M160 700h62l108 -142h-60l-79 105l-79 -105h-60z" />
    <glyph glyph-name="caron" unicode="&#x2c7;" horiz-adv-x="381" 
d="M221 558h-62l-108 142h60l79 -105l79 105h60z" />
    <glyph glyph-name="breve" unicode="&#x2d8;" horiz-adv-x="379" 
d="M272 690h48c-3 -75 -50 -113 -131 -113s-128 38 -131 113h48c4 -45 26 -69 83 -69c56 0 79 24 83 69z" />
    <glyph glyph-name="dotaccent" unicode="&#x2d9;" horiz-adv-x="280" 
d="M173 623h-67v67h67v-67z" />
    <glyph glyph-name="ring" unicode="&#x2da;" horiz-adv-x="358" 
d="M69 646c0 61 49 110 109 110c61 0 110 -49 110 -110c0 -60 -49 -109 -110 -109c-60 0 -109 49 -109 109zM110 646c0 -37 31 -68 68 -68c38 0 68 31 68 68c0 38 -30 68 -68 68c-37 0 -68 -30 -68 -68z" />
    <glyph glyph-name="ogonek" unicode="&#x2db;" horiz-adv-x="318" 
d="M209 41l8 -41c-42 -22 -80 -40 -80 -73c0 -30 31 -35 57 -35c10 0 20 1 27 2l9 -41c-8 -2 -23 -3 -41 -3c-49 0 -102 19 -102 74c0 52 45 81 122 117z" />
    <glyph glyph-name="tilde" unicode="&#x2dc;" horiz-adv-x="416" 
d="M266 603c-46 0 -74 30 -115 30c-21 0 -45 -9 -65 -29l-35 31c26 29 60 47 100 47c44 0 72 -30 115 -30c19 0 45 10 64 30l35 -32c-23 -26 -60 -47 -99 -47z" />
    <glyph glyph-name="hungarumlaut" unicode="&#x2dd;" horiz-adv-x="431" 
d="M224 567l85 158h66l-98 -158h-53zM55 567l75 158h65l-88 -158h-52z" />
    <glyph glyph-name="acutecomb" unicode="&#x301;" horiz-adv-x="0" 
d="M-281 567l75 158h66l-88 -158h-53z" />
    <glyph glyph-name="uni0394" unicode="&#x2206;" horiz-adv-x="506" 
d="M210 690h60c37 -115 173 -575 211 -690h-482c38 115 173 575 211 690zM76 54h328c-33 99 -132 446 -164 545c-33 -99 -132 -446 -164 -545z" />
    <glyph glyph-name="uni0394" unicode="&#x394;" horiz-adv-x="506" 
d="M210 690h60c37 -115 173 -575 211 -690h-482c38 115 173 575 211 690zM76 54h328c-33 99 -132 446 -164 545c-33 -99 -132 -446 -164 -545z" />
    <glyph glyph-name="uni03A9" unicode="&#x2126;" horiz-adv-x="620" 
d="M460 54h95v-54h-184v54c70 25 126 81 126 245v92c0 186 -74 251 -187 251s-187 -65 -187 -251v-92c0 -164 56 -220 126 -245v-54h-184v54h95c-67 47 -95 117 -95 245v92c0 217 97 305 245 305s245 -88 245 -305v-92c0 -128 -29 -198 -95 -245z" />
    <glyph glyph-name="uni03A9" unicode="&#x3a9;" horiz-adv-x="620" 
d="M460 54h95v-54h-184v54c70 25 126 81 126 245v92c0 186 -74 251 -187 251s-187 -65 -187 -251v-92c0 -164 56 -220 126 -245v-54h-184v54h95c-67 47 -95 117 -95 245v92c0 217 97 305 245 305s245 -88 245 -305v-92c0 -128 -29 -198 -95 -245z" />
    <glyph glyph-name="pi" unicode="&#x3c0;" horiz-adv-x="595" 
d="M-5 500h573v-51h-95v-283c0 -70 8 -116 95 -116v-52c-115 0 -150 50 -150 154v297h-276v-449h-55v449h-92v51z" />
    <glyph glyph-name="afii10023" unicode="&#x401;" horiz-adv-x="544" 
d="M91 690h406v-54h-348v-252h318v-54h-318v-276h348v-54h-406v690zM217 804h-65v65h65v-65zM427 804h-65v65h65v-65z" />
    <glyph glyph-name="afii10051" unicode="&#x402;" horiz-adv-x="727" 
d="M606 164v35c0 142 -56 179 -166 179c-78 0 -130 -28 -153 -60v-318h-58v636h-219v54h496v-54h-219v-251c20 18 80 47 160 47c161 0 217 -71 217 -233v-37c0 -148 -79 -162 -161 -162h-26v54h26c79 0 103 33 103 110z" />
    <glyph glyph-name="afii10052" unicode="&#x403;" horiz-adv-x="481" 
d="M476 690v-54h-328v-636h-58v690h386zM243 757l72 129h68l-87 -129h-53z" />
    <glyph glyph-name="afii10053" unicode="&#x404;" horiz-adv-x="580" 
d="M543 481h-57c-23 117 -92 161 -186 161c-118 0 -187 -68 -187 -256v-12h284v-54h-284v-16c0 -189 70 -256 187 -256c100 0 164 53 186 163h56c-22 -155 -124 -217 -242 -217c-150 0 -245 87 -245 310v82c0 223 95 310 245 310c123 0 221 -64 243 -215z" />
    <glyph glyph-name="afii10054" unicode="&#x405;" horiz-adv-x="569" 
d="M506 583l-46 -33c-36 53 -84 92 -179 92s-158 -39 -158 -124c0 -99 79 -124 179 -146c130 -28 216 -68 216 -198c0 -88 -62 -180 -227 -180c-110 0 -190 38 -241 113l47 33c43 -54 91 -92 194 -92c123 0 169 57 169 124c0 83 -48 123 -178 148c-129 25 -217 75 -217 198
c0 97 63 178 218 178c107 0 175 -37 223 -113z" />
    <glyph glyph-name="afii10055" unicode="&#x406;" horiz-adv-x="258" 
d="M158 690v-690h-58v690h58zM160 802h-67v67h67v-67z" />
    <glyph glyph-name="afii10056" unicode="&#x407;" horiz-adv-x="258" 
d="M76 804h-65v65h65v-65zM246 804h-65v65h65v-65zM158 690v-690h-58v690h58z" />
    <glyph glyph-name="afii10057" unicode="&#x408;" horiz-adv-x="505" 
d="M10 80l50 28c29 -39 69 -60 128 -60c117 0 169 73 169 238v404h58v-404c0 -210 -85 -292 -227 -292c-72 0 -140 26 -178 86z" />
    <glyph glyph-name="afii10058" unicode="&#x409;" horiz-adv-x="1001" 
d="M149 690h404v-285h165c177 0 238 -106 238 -203s-61 -202 -238 -202h-223v636h-288v-104c0 -220 -10 -364 -36 -429c-32 -80 -93 -98 -146 -109v63c40 8 75 27 94 78c21 58 30 193 30 397v158zM553 54h165c123 0 180 62 180 148c0 85 -57 149 -180 149h-165v-297z" />
    <glyph glyph-name="afii10059" unicode="&#x40a;" horiz-adv-x="996" 
d="M148 690v-296h342v296h58v-285h165c177 0 238 -106 238 -203s-61 -202 -238 -202h-223v340h-342v-340h-58v690h58zM548 54h165c123 0 180 62 180 148c0 85 -57 149 -180 149h-165v-297z" />
    <glyph glyph-name="afii10060" unicode="&#x40b;" horiz-adv-x="727" 
d="M619 0v194c0 138 -49 184 -167 184c-79 0 -136 -30 -165 -80v-298h-58v636h-219v54h496v-54h-219v-267c23 27 82 63 172 63c168 0 218 -81 218 -238v-194h-58z" />
    <glyph glyph-name="afii10061" unicode="&#x40c;" horiz-adv-x="600" 
d="M588 0h-71l-232 320h-137v-320h-58v690h58v-316h132l201 316h66l-215 -339zM249 757l72 129h68l-87 -129h-53z" />
    <glyph glyph-name="afii10062" unicode="&#x40e;" horiz-adv-x="577" 
d="M499 690h61l-235 -574c-39 -95 -77 -122 -192 -122v54c83 0 111 13 140 85l-246 557h64l212 -483zM413 889h56c0 -100 -62 -142 -169 -142s-170 42 -170 142h56c0 -48 21 -96 114 -96s113 48 113 96z" />
    <glyph glyph-name="afii10145" unicode="&#x40f;" horiz-adv-x="638" 
d="M348 -130h-58v130h-200v690h58v-636h342v636h58v-690h-200v-130z" />
    <glyph glyph-name="afii10017" unicode="&#x410;" horiz-adv-x="551" 
d="M74 0h-62l236 690h54l236 -690h-61l-57 168h-290zM275 597l-127 -375h254z" />
    <glyph glyph-name="afii10018" unicode="&#x411;" horiz-adv-x="596" 
d="M505 690v-54h-357v-231h165c177 0 238 -106 238 -203s-61 -202 -238 -202h-223v690h415zM313 351h-165v-297h165c123 0 180 62 180 148c0 85 -57 149 -180 149z" />
    <glyph glyph-name="afii10019" unicode="&#x412;" horiz-adv-x="596" 
d="M90 690h204c158 0 235 -61 235 -175c0 -77 -52 -139 -119 -155c87 -19 141 -77 141 -168c0 -94 -61 -192 -233 -192h-228v690zM148 331v-277h170c119 0 175 57 175 138c0 93 -63 139 -194 139h-151zM148 636v-251h164c112 0 159 59 159 130c0 70 -36 121 -177 121h-146z
" />
    <glyph glyph-name="afii10020" unicode="&#x413;" horiz-adv-x="481" 
d="M476 690v-54h-328v-636h-58v690h386z" />
    <glyph glyph-name="afii10021" unicode="&#x414;" horiz-adv-x="666" 
d="M72 -130h-57v184h34c28 18 58 71 73 119c21 67 33 181 33 335v182h404v-636h82v-184h-58v130h-511v-130zM170 135c-12 -32 -26 -59 -45 -81h376v582h-288v-128c0 -175 -16 -299 -43 -373z" />
    <glyph glyph-name="afii10022" unicode="&#x415;" horiz-adv-x="543" 
d="M90 690h406v-54h-348v-252h318v-54h-318v-276h348v-54h-406v690z" />
    <glyph glyph-name="afii10024" unicode="&#x416;" horiz-adv-x="863" 
d="M82 0h-70l226 349l-185 341h65l172 -316h112v316h58v-316h113l172 316h64l-186 -341l227 -349h-70l-208 320h-112v-320h-58v320h-112z" />
    <glyph glyph-name="afii10025" unicode="&#x417;" horiz-adv-x="552" 
d="M205 333v54h62c114 0 160 53 160 131c0 68 -42 124 -148 124c-88 0 -153 -45 -171 -130h-56c16 117 120 184 224 184c134 0 209 -69 209 -178c0 -76 -40 -127 -114 -155c80 -19 136 -84 136 -171c0 -94 -59 -198 -224 -198c-129 0 -211 61 -243 196h58
c29 -94 81 -142 185 -142c110 0 166 60 166 144c0 92 -62 141 -186 141h-58z" />
    <glyph glyph-name="afii10026" unicode="&#x418;" horiz-adv-x="656" 
d="M90 690h58v-576l368 576h50v-690h-58v573l-367 -573h-51v690z" />
    <glyph glyph-name="afii10027" unicode="&#x419;" horiz-adv-x="656" 
d="M439 884h56c0 -96 -60 -136 -162 -136c-101 0 -162 40 -162 136h56c0 -45 19 -90 106 -90s106 45 106 90zM90 690h58v-576l368 576h50v-690h-58v573l-367 -573h-51v690z" />
    <glyph glyph-name="afii10028" unicode="&#x41a;" horiz-adv-x="600" 
d="M588 0h-71l-232 320h-137v-320h-58v690h58v-316h132l201 316h66l-215 -339z" />
    <glyph glyph-name="afii10029" unicode="&#x41b;" horiz-adv-x="643" 
d="M149 690h404v-690h-58v636h-288v-104c0 -220 -10 -364 -36 -429c-32 -80 -93 -98 -146 -109v63c40 8 75 27 94 78c21 58 30 193 30 397v158z" />
    <glyph glyph-name="afii10030" unicode="&#x41c;" horiz-adv-x="752" 
d="M146 690l230 -459l229 459h57v-690h-58v563l-203 -409h-52l-201 408v-562h-58v690h56z" />
    <glyph glyph-name="afii10031" unicode="&#x41d;" horiz-adv-x="638" 
d="M148 690v-305h342v305h58v-690h-58v331h-342v-331h-58v690h58z" />
    <glyph glyph-name="afii10032" unicode="&#x41e;" horiz-adv-x="600" 
d="M545 304c0 -218 -97 -310 -245 -310s-245 92 -245 310v82c0 217 97 310 245 310s245 -93 245 -310v-82zM113 386v-82c0 -187 74 -256 187 -256s187 69 187 256v82c0 186 -74 256 -187 256s-187 -70 -187 -256z" />
    <glyph glyph-name="afii10033" unicode="&#x41f;" horiz-adv-x="638" 
d="M90 690h458v-690h-58v636h-342v-636h-58v690z" />
    <glyph glyph-name="afii10034" unicode="&#x420;" horiz-adv-x="587" 
d="M300 273h-152v-273h-58v690h210c159 0 251 -78 251 -209c0 -130 -91 -208 -251 -208zM148 327h152c133 0 193 57 193 154c0 98 -60 155 -193 155h-152v-309z" />
    <glyph glyph-name="afii10035" unicode="&#x421;" horiz-adv-x="580" 
d="M543 481h-57c-23 117 -92 161 -186 161c-118 0 -187 -68 -187 -256v-82c0 -189 70 -256 187 -256c100 0 164 53 186 163h56c-22 -155 -124 -217 -242 -217c-150 0 -245 87 -245 310v82c0 223 95 310 245 310c123 0 221 -64 243 -215z" />
    <glyph glyph-name="afii10036" unicode="&#x422;" horiz-adv-x="516" 
d="M10 690h496v-54h-219v-636h-58v636h-219v54z" />
    <glyph glyph-name="afii10037" unicode="&#x423;" horiz-adv-x="577" 
d="M499 690h61l-235 -574c-39 -95 -77 -122 -192 -122v54c83 0 111 13 140 85l-246 557h64l212 -483z" />
    <glyph glyph-name="afii10038" unicode="&#x424;" horiz-adv-x="746" 
d="M55 324v42c0 213 131 270 289 270v54h58v-54c158 0 289 -57 289 -270v-42c0 -213 -131 -270 -289 -270v-54h-58v54c-158 0 -289 57 -289 270zM344 108v474c-122 0 -231 -36 -231 -216v-42c0 -181 114 -216 231 -216zM402 582v-474c116 0 231 35 231 216v42
c0 157 -86 216 -231 216z" />
    <glyph glyph-name="afii10039" unicode="&#x425;" horiz-adv-x="552" 
d="M92 0h-65l215 357l-196 333h65l165 -280l164 280h66l-197 -333l216 -357h-66l-183 301z" />
    <glyph glyph-name="afii10040" unicode="&#x426;" horiz-adv-x="650" 
d="M630 -130h-58v130h-482v690h58v-636h342v636h58v-636h82v-184z" />
    <glyph glyph-name="afii10041" unicode="&#x427;" horiz-adv-x="580" 
d="M95 690v-183c0 -141 47 -184 176 -184c82 0 131 24 161 74v293h58v-690h-58v324c-26 -28 -79 -55 -168 -55c-177 0 -227 76 -227 238v183h58z" />
    <glyph glyph-name="afii10042" unicode="&#x428;" horiz-adv-x="850" 
d="M148 690v-636h248v636h58v-636h248v636h58v-690h-670v690h58z" />
    <glyph glyph-name="afii10043" unicode="&#x429;" horiz-adv-x="863" 
d="M842 -130h-58v130h-694v690h58v-636h248v636h58v-636h248v636h58v-636h82v-184z" />
    <glyph glyph-name="afii10044" unicode="&#x42a;" horiz-adv-x="654" 
d="M-10 690h216v-285h165c177 0 238 -106 238 -203s-61 -202 -238 -202h-223v636h-158v54zM371 351h-165v-297h165c123 0 180 62 180 148c0 85 -57 149 -180 149z" />
    <glyph glyph-name="afii10045" unicode="&#x42b;" horiz-adv-x="758" 
d="M90 690h58v-285h135c177 0 238 -106 238 -203s-61 -202 -238 -202h-193v690zM283 351h-135v-297h135c123 0 180 62 180 148c0 85 -57 149 -180 149zM668 690v-690h-58v690h58z" />
    <glyph glyph-name="afii10046" unicode="&#x42c;" horiz-adv-x="596" 
d="M90 690h58v-285h165c177 0 238 -106 238 -203s-61 -202 -238 -202h-223v690zM313 351h-165v-297h165c123 0 180 62 180 148c0 85 -57 149 -180 149z" />
    <glyph glyph-name="afii10047" unicode="&#x42d;" horiz-adv-x="580" 
d="M183 320v54h284v12c0 188 -69 256 -187 256c-94 0 -163 -44 -186 -161h-57c22 151 120 215 243 215c150 0 245 -87 245 -310v-82c0 -223 -95 -310 -245 -310c-118 0 -220 62 -242 217h56c22 -110 86 -163 186 -163c117 0 187 67 187 256v16h-284z" />
    <glyph glyph-name="afii10048" unicode="&#x42e;" horiz-adv-x="788" 
d="M733 299c0 -218 -89 -305 -228 -305c-138 0 -227 87 -227 305v31h-130v-330h-58v690h58v-306h130v7c0 217 89 305 227 305c139 0 228 -88 228 -305v-92zM336 391v-92c0 -187 66 -251 169 -251c104 0 170 64 170 251v92c0 186 -66 251 -170 251c-103 0 -169 -65 -169 -251
z" />
    <glyph glyph-name="afii10049" unicode="&#x42f;" horiz-adv-x="604" 
d="M100 0h-65l160 305c-91 25 -142 88 -142 186c0 131 90 199 246 199h215v-690h-58v293h-157c-16 0 -31 0 -46 2zM299 347h157v289h-157c-121 0 -188 -42 -188 -145s67 -144 188 -144z" />
    <glyph glyph-name="afii10065" unicode="&#x430;" horiz-adv-x="486" 
d="M45 143c0 96 67 141 170 141h146v62c0 85 -34 108 -126 108c-60 0 -99 -4 -131 -57l-42 29c35 59 85 80 174 80c122 0 180 -38 180 -160v-346h-55v62c-28 -53 -78 -68 -142 -68c-111 0 -174 53 -174 149zM361 186v49h-146c-86 0 -115 -40 -115 -93c0 -70 49 -96 119 -96
c81 0 142 28 142 140z" />
    <glyph glyph-name="afii10066" unicode="&#x431;" horiz-adv-x="497" 
d="M451 286v-71c0 -134 -68 -221 -203 -221c-130 0 -203 83 -203 221v74c0 124 13 239 44 301c25 52 70 92 157 99l98 8c31 3 41 12 53 25l32 -41c-11 -20 -33 -34 -74 -37l-94 -7c-65 -5 -106 -26 -131 -86c-11 -26 -20 -66 -26 -119c30 46 77 74 148 74
c125 0 199 -80 199 -220zM396 286c0 102 -47 169 -148 169c-95 0 -148 -61 -148 -168v-72c0 -98 41 -170 148 -170c103 0 148 73 148 170v71z" />
    <glyph glyph-name="afii10067" unicode="&#x432;" horiz-adv-x="487" 
d="M70 500h170c109 0 178 -43 178 -128c0 -49 -28 -85 -72 -103c59 -15 101 -61 101 -128c0 -74 -52 -141 -181 -141h-196v500zM125 238v-187h127c86 0 135 28 135 94c0 62 -43 93 -147 93h-115zM125 449v-160h108c87 0 125 29 125 80c0 46 -29 80 -136 80h-97z" />
    <glyph glyph-name="afii10068" unicode="&#x433;" horiz-adv-x="359" 
d="M364 500v-51h-239v-449h-55v500h294z" />
    <glyph glyph-name="afii10069" unicode="&#x434;" 
d="M509 -117h-55v117h-377v-117h-55v168h36c14 11 27 34 40 66c21 53 27 155 27 237v146h314v-449h70v-168zM143 81c-6 -12 -11 -22 -17 -30h258v398h-204v-109c0 -86 -8 -195 -37 -259z" />
    <glyph glyph-name="afii10070" unicode="&#x435;" horiz-adv-x="484" 
d="M431 236h-331v-21c0 -99 46 -170 152 -170c61 0 102 18 130 61l44 -31c-35 -55 -90 -81 -171 -81c-133 0 -210 82 -210 221v72c0 142 68 219 193 219s193 -77 193 -219v-51zM100 287v-1h276v1c0 109 -47 168 -138 168s-138 -60 -138 -168z" />
    <glyph glyph-name="afii10072" unicode="&#x436;" horiz-adv-x="658" 
d="M560 500h61l-143 -243l165 -257h-66l-145 229h-76v-229h-55v229h-75l-146 -229h-65l164 257l-142 243h61l129 -221h74v221h55v-221h74z" />
    <glyph glyph-name="afii10073" unicode="&#x437;" horiz-adv-x="448" 
d="M204 455c-51 0 -92 -17 -124 -56l-44 30c32 44 84 77 171 77c104 0 169 -54 169 -126c0 -55 -31 -90 -79 -110c54 -16 98 -60 98 -128c0 -74 -56 -148 -184 -148c-87 0 -145 29 -179 81l44 31c26 -38 69 -61 133 -61c72 0 126 35 126 100c0 63 -49 95 -139 95h-55v51h56
c72 0 119 27 119 84c0 44 -34 80 -112 80z" />
    <glyph glyph-name="afii10074" unicode="&#x438;" horiz-adv-x="536" 
d="M125 500v-404l288 404h53v-500h-55v408l-289 -408h-52v500h55z" />
    <glyph glyph-name="afii10075" unicode="&#x439;" horiz-adv-x="536" 
d="M348 700h51c0 -78 -46 -118 -131 -118s-131 40 -131 118h50c0 -47 21 -75 81 -75s80 28 80 75zM125 500v-404l288 404h53v-500h-55v408l-289 -408h-52v500h55z" />
    <glyph glyph-name="afii10076" unicode="&#x43a;" horiz-adv-x="473" 
d="M376 500h66l-174 -242l190 -258h-67l-169 229h-97v-229h-55v500h55v-221h94z" />
    <glyph glyph-name="afii10077" unicode="&#x43b;" horiz-adv-x="510" 
d="M114 500h326v-500h-55v449h-216v-165c0 -91 -9 -154 -26 -198c-25 -65 -67 -91 -118 -97v54c31 10 56 28 71 79c15 49 18 112 18 178v200z" />
    <glyph glyph-name="afii10078" unicode="&#x43c;" horiz-adv-x="636" 
d="M123 500l195 -339l194 339h54v-500h-55v392l-171 -294h-48l-167 293v-391h-55v500h53z" />
    <glyph glyph-name="afii10079" unicode="&#x43d;" 
d="M125 500v-221h276v221h55v-500h-55v228h-276v-228h-55v500h55z" />
    <glyph glyph-name="afii10080" unicode="&#x43e;" horiz-adv-x="496" 
d="M451 214c0 -136 -69 -220 -203 -220c-129 0 -203 80 -203 220v73c0 142 75 219 203 219s203 -77 203 -219v-73zM396 214v73c0 109 -53 168 -148 168c-96 0 -148 -59 -148 -168v-73c0 -105 47 -169 148 -169c97 0 148 64 148 169z" />
    <glyph glyph-name="afii10081" unicode="&#x43f;" 
d="M70 500h386v-500h-55v449h-276v-449h-55v500z" />
    <glyph glyph-name="afii10082" unicode="&#x440;" horiz-adv-x="516" 
d="M471 287v-72c0 -137 -65 -221 -195 -221c-76 0 -123 21 -151 65v-249h-55v690h55v-63c28 45 75 69 151 69c124 0 195 -77 195 -219zM272 45c96 0 144 65 144 170v72c0 109 -49 168 -144 168c-106 0 -147 -64 -147 -162v-87c1 -94 37 -161 147 -161z" />
    <glyph glyph-name="afii10083" unicode="&#x441;" horiz-adv-x="443" 
d="M382 106l44 -31c-33 -53 -92 -81 -170 -81c-134 0 -211 80 -211 221v72c0 142 79 219 211 219c73 0 132 -26 169 -77l-44 -30c-28 38 -75 56 -125 56c-99 0 -156 -60 -156 -168v-72c0 -99 46 -170 156 -170c51 0 98 17 126 61z" />
    <glyph glyph-name="afii10084" unicode="&#x442;" horiz-adv-x="407" 
d="M5 500h397v-51h-172v-449h-55v449h-170v51z" />
    <glyph glyph-name="afii10085" unicode="&#x443;" horiz-adv-x="459" 
d="M73 -190v54c78 0 103 26 137 122l2 6l-205 508h60l173 -428l148 428h58l-181 -520c-41 -120 -73 -170 -192 -170z" />
    <glyph glyph-name="afii10086" unicode="&#x444;" horiz-adv-x="647" 
d="M351 690v-184c157 0 251 -73 251 -219v-72c0 -142 -92 -221 -251 -221v-184h-55v184c-159 0 -251 79 -251 221v72c0 146 94 219 251 219v184h55zM547 287c0 112 -69 168 -196 168v-410c135 0 196 64 196 170v72zM100 215c0 -106 62 -170 196 -170v410
c-127 0 -196 -56 -196 -168v-72z" />
    <glyph glyph-name="afii10087" unicode="&#x445;" horiz-adv-x="452" 
d="M437 0h-66l-145 208l-146 -208h-65l179 256l-164 244h65l131 -197l130 197h66l-164 -244z" />
    <glyph glyph-name="afii10088" unicode="&#x446;" horiz-adv-x="543" 
d="M526 -117h-55v117h-401v500h55v-449h276v449h55v-449h70v-168z" />
    <glyph glyph-name="afii10089" unicode="&#x447;" horiz-adv-x="477" 
d="M100 500v-123c0 -108 58 -130 129 -130c80 0 108 27 123 49v204h55v-500h-55v230c-23 -21 -71 -36 -126 -36c-109 0 -181 42 -181 183v123h55z" />
    <glyph glyph-name="afii10090" unicode="&#x448;" horiz-adv-x="699" 
d="M629 0h-559v500h55v-449h197v449h55v-449h197v449h55v-500z" />
    <glyph glyph-name="afii10091" unicode="&#x449;" horiz-adv-x="716" 
d="M699 -117h-55v117h-574v500h55v-449h197v449h55v-449h197v449h55v-449h70v-168z" />
    <glyph glyph-name="afii10092" unicode="&#x44a;" horiz-adv-x="529" 
d="M177 301h127c133 0 195 -55 195 -149c0 -86 -52 -152 -181 -152h-196v449h-142v51h197v-199zM177 250v-199h131c85 0 131 33 131 101c0 66 -45 98 -137 98h-125z" />
    <glyph glyph-name="afii10093" unicode="&#x44b;" horiz-adv-x="619" 
d="M125 301h102c133 0 195 -55 195 -149c0 -86 -52 -152 -181 -152h-171v500h55v-199zM125 250v-199h106c85 0 131 33 131 101c0 66 -45 98 -137 98h-100zM494 500h55v-500h-55v500z" />
    <glyph glyph-name="afii10094" unicode="&#x44c;" horiz-adv-x="477" 
d="M125 301h127c133 0 195 -55 195 -149c0 -86 -52 -152 -181 -152h-196v500h55v-199zM125 250v-199h131c85 0 131 33 131 101c0 66 -45 98 -137 98h-125z" />
    <glyph glyph-name="afii10095" unicode="&#x44d;" horiz-adv-x="459" 
d="M142 228v51h217v8c0 108 -57 168 -156 168c-50 0 -97 -18 -125 -56l-44 30c37 51 96 77 169 77c132 0 211 -77 211 -219v-72c0 -141 -77 -221 -211 -221c-78 0 -137 28 -170 81l44 31c28 -44 75 -61 126 -61c110 0 156 71 156 170v13h-217z" />
    <glyph glyph-name="afii10096" unicode="&#x44e;" horiz-adv-x="660" 
d="M428 -6c-122 0 -188 80 -188 221v13h-115v-228h-55v500h55v-221h115v8c0 142 67 219 188 219s187 -77 187 -219v-72c0 -137 -60 -221 -187 -221zM428 45c89 0 132 65 132 169v73c0 109 -45 168 -132 168c-88 0 -133 -60 -133 -168v-73c0 -105 40 -169 133 -169z" />
    <glyph glyph-name="afii10097" unicode="&#x44f;" horiz-adv-x="500" 
d="M430 0h-55v199h-119c-8 0 -16 0 -23 1l-130 -200h-63l135 208c-75 20 -117 70 -117 144c0 77 54 148 189 148h183v-500zM375 250v199h-123c-89 0 -134 -36 -134 -98c0 -65 44 -101 140 -101h117z" />
    <glyph glyph-name="afii10071" unicode="&#x451;" horiz-adv-x="484" 
d="M431 236h-331v-21c0 -99 46 -170 152 -170c61 0 102 18 130 61l44 -31c-35 -55 -90 -81 -171 -81c-133 0 -210 82 -210 221v72c0 142 68 219 193 219s193 -77 193 -219v-51zM100 287v-1h276v1c0 109 -47 168 -138 168s-138 -60 -138 -168zM386 623h-67v67h67v-67z
M176 623h-67v67h67v-67z" />
    <glyph glyph-name="afii10099" unicode="&#x452;" 
d="M-24 568v51h94v71h55v-71h180v-51h-180v-177c25 46 73 74 149 74c125 0 182 -77 182 -243v-263c0 -105 -38 -149 -145 -149v51h11c57 0 79 26 79 99v262c0 141 -43 191 -133 191c-95 0 -143 -62 -143 -154v-259h-55v568h-94z" />
    <glyph glyph-name="afii10100" unicode="&#x453;" horiz-adv-x="359" 
d="M364 500v-51h-239v-449h-55v500h294zM173 567l75 158h66l-88 -158h-53z" />
    <glyph glyph-name="afii10101" unicode="&#x454;" horiz-adv-x="459" 
d="M377 106l44 -31c-33 -53 -92 -81 -170 -81c-134 0 -211 80 -211 221v72c0 142 79 219 211 219c73 0 132 -26 169 -77l-44 -30c-28 38 -75 56 -125 56c-99 0 -156 -60 -156 -168v-8h217v-51h-217v-13c0 -99 46 -170 156 -170c51 0 98 17 126 61z" />
    <glyph glyph-name="afii10102" unicode="&#x455;" horiz-adv-x="461" 
d="M398 423l-42 -30c-31 44 -63 61 -136 61c-67 0 -118 -25 -118 -82c0 -70 63 -84 133 -93c97 -13 178 -41 178 -147c0 -78 -50 -138 -183 -138c-99 0 -151 31 -188 83l43 30c30 -42 68 -61 146 -61s127 25 127 85c0 64 -50 86 -149 99c-85 11 -162 40 -162 141
c0 81 61 135 174 135c79 0 139 -21 177 -83z" />
    <glyph glyph-name="afii10103" unicode="&#x456;" horiz-adv-x="225" 
d="M85 0v500h55v-500h-55zM79 623v67h67v-67h-67z" />
    <glyph glyph-name="afii10104" unicode="&#x457;" horiz-adv-x="213" 
d="M65 623h-67v67h67v-67zM148 690h67v-67h-67v67zM79 0v500h55v-500h-55z" />
    <glyph glyph-name="afii10105" unicode="&#x458;" horiz-adv-x="225" 
d="M150 500v-536c0 -104 -35 -154 -150 -154v52c88 0 95 45 95 120v518h55zM89 623v67h67v-67h-67z" />
    <glyph glyph-name="afii10106" unicode="&#x459;" horiz-adv-x="792" 
d="M440 301h127c133 0 195 -55 195 -149c0 -86 -52 -152 -181 -152h-196v449h-216v-165c0 -91 -9 -154 -26 -198c-25 -65 -67 -91 -118 -97v54c31 10 56 28 71 79c15 49 18 112 18 178v200h326v-199zM440 250v-199h131c85 0 131 33 131 101c0 66 -45 98 -137 98h-125z" />
    <glyph glyph-name="afii10107" unicode="&#x45a;" horiz-adv-x="808" 
d="M125 500v-208h276v208h55v-199h127c133 0 195 -55 195 -149c0 -86 -52 -152 -181 -152h-196v241h-276v-241h-55v500h55zM456 250v-199h131c85 0 131 33 131 101c0 66 -45 98 -137 98h-125z" />
    <glyph glyph-name="afii10108" unicode="&#x45b;" 
d="M-24 568v51h94v71h55v-71h180v-51h-180v-172c26 48 72 74 147 74c111 0 184 -69 184 -210v-260h-55v259c0 114 -57 159 -135 159c-94 0 -141 -62 -141 -154v-264h-55v568h-94z" />
    <glyph glyph-name="afii10109" unicode="&#x45c;" horiz-adv-x="473" 
d="M376 500h66l-174 -242l190 -258h-67l-169 229h-97v-229h-55v500h55v-221h94zM196 567l75 158h66l-88 -158h-53z" />
    <glyph glyph-name="afii10110" unicode="&#x45e;" horiz-adv-x="459" 
d="M73 -190v54c78 0 103 26 137 122l2 6l-205 508h60l173 -428l148 428h58l-181 -520c-41 -120 -73 -170 -192 -170zM316 690h48c-2 -78 -48 -118 -131 -118s-130 40 -131 118h48c2 -47 23 -74 83 -74s81 27 83 74z" />
    <glyph glyph-name="afii10193" unicode="&#x45f;" 
d="M290 -117h-55v117h-165v500h55v-449h276v449h55v-500h-166v-117z" />
    <glyph glyph-name="afii10146" unicode="&#x462;" horiz-adv-x="596" 
d="M90 690h58v-94h211v-54h-211v-137h165c177 0 238 -106 238 -203s-61 -202 -238 -202h-223v542h-100v54h100v94zM313 351h-165v-297h165c123 0 180 62 180 148c0 85 -57 149 -180 149z" />
    <glyph glyph-name="afii10194" unicode="&#x463;" horiz-adv-x="477" 
d="M-24 449v51h94v190h55v-190h165v-51h-165v-148h127c133 0 195 -55 195 -149c0 -86 -52 -152 -181 -152h-196v449h-94zM125 250v-199h131c85 0 131 33 131 101c0 66 -45 98 -137 98h-125z" />
    <glyph glyph-name="afii10147" unicode="&#x472;" horiz-adv-x="600" 
d="M545 304c0 -218 -97 -310 -245 -310s-245 92 -245 310v82c0 217 97 310 245 310s245 -93 245 -310v-82zM300 48c113 0 187 69 187 256v27h-374v-27c0 -187 74 -256 187 -256zM113 386v-1h374v1c0 186 -74 256 -187 256s-187 -70 -187 -256z" />
    <glyph glyph-name="afii10195" unicode="&#x473;" horiz-adv-x="496" 
d="M451 214c0 -136 -69 -220 -203 -220c-129 0 -203 80 -203 220v73c0 142 75 219 203 219s203 -77 203 -219v-73zM396 214v14h-296v-14c0 -105 47 -169 148 -169c97 0 148 64 148 169zM100 287v-8h296v8c0 109 -53 168 -148 168c-96 0 -148 -59 -148 -168z" />
    <glyph glyph-name="afii10148" unicode="&#x474;" horiz-adv-x="601" 
d="M21 690h64l213 -597l170 474c30 84 60 128 146 128v-54c-45 0 -64 -20 -84 -76l-204 -565h-55z" />
    <glyph glyph-name="afii10196" unicode="&#x475;" horiz-adv-x="480" 
d="M485 506v-51c-34 0 -46 -22 -62 -64l-155 -391h-54l-204 500h61l169 -427l132 344c26 66 47 89 113 89z" />
    <glyph glyph-name="afii10050" unicode="&#x490;" horiz-adv-x="481" 
d="M418 690v108h58v-162h-328v-636h-58v690h328z" />
    <glyph glyph-name="afii10098" unicode="&#x491;" horiz-adv-x="359" 
d="M309 500v93h55v-144h-239v-449h-55v500h239z" />
    <glyph glyph-name="uni0492" unicode="&#x492;" horiz-adv-x="486" 
d="M481 690v-54h-328v-252h191v-54h-191v-330h-58v330h-110v54h110v306h386z" />
    <glyph glyph-name="uni0493" unicode="&#x493;" horiz-adv-x="376" 
d="M381 500v-51h-239v-170h137v-51h-137v-228h-55v228h-103v51h103v221h294z" />
    <glyph glyph-name="uni0496" unicode="&#x496;" horiz-adv-x="902" 
d="M82 0h-70l226 349l-185 341h65l172 -316h112v316h58v-316h113l172 316h64l-186 -341l192 -295h75v-184h-58v130h-52l-208 320h-112v-320h-58v320h-112z" />
    <glyph glyph-name="uni0497" unicode="&#x497;" horiz-adv-x="686" 
d="M560 500h61l-143 -243l132 -206h66v-168h-55v117h-44l-145 229h-76v-229h-55v229h-75l-146 -229h-65l164 257l-142 243h61l129 -221h74v221h55v-221h74z" />
    <glyph glyph-name="uni0498" unicode="&#x498;" horiz-adv-x="552" 
d="M314 -130h-58v125c-114 8 -187 70 -216 195h58c29 -94 81 -142 185 -142c110 0 166 60 166 144c0 92 -62 141 -186 141h-58v54h62c114 0 160 53 160 131c0 68 -42 124 -148 124c-88 0 -153 -45 -171 -130h-56c16 117 120 184 224 184c134 0 209 -69 209 -178
c0 -76 -40 -127 -114 -155c80 -19 136 -84 136 -171c0 -88 -52 -185 -193 -197v-125z" />
    <glyph glyph-name="uni0499" unicode="&#x499;" horiz-adv-x="448" 
d="M235 -117h-55v113c-70 5 -118 33 -148 79l44 31c26 -38 69 -61 133 -61c72 0 126 35 126 100c0 63 -49 95 -139 95h-55v51h56c72 0 119 27 119 84c0 44 -34 80 -112 80c-51 0 -92 -17 -124 -56l-44 30c32 44 84 77 171 77c104 0 169 -54 169 -126c0 -55 -31 -90 -79 -110
c54 -16 98 -60 98 -128c0 -69 -49 -139 -160 -147v-112z" />
    <glyph glyph-name="uni049A" unicode="&#x49a;" horiz-adv-x="633" 
d="M621 -130h-58v130h-46l-232 320h-137v-320h-58v690h58v-316h132l201 316h66l-215 -339l216 -297h73v-184z" />
    <glyph glyph-name="uni049B" unicode="&#x49b;" horiz-adv-x="499" 
d="M376 500h66l-174 -242l152 -207h69v-168h-55v117h-43l-169 229h-97v-229h-55v500h55v-221h94z" />
    <glyph glyph-name="uni049C" unicode="&#x49c;" horiz-adv-x="624" 
d="M148 690v-316h64v130h54v-130h38l201 316h66l-215 -339l256 -351h-71l-232 320h-43v-125h-54v125h-64v-320h-58v690h58z" />
    <glyph glyph-name="uni049D" unicode="&#x49d;" horiz-adv-x="493" 
d="M70 0v500h55v-221h42v113h51v-113h21l157 221h66l-174 -242l190 -258h-67l-169 229h-24v-114h-51v114h-42v-229h-55z" />
    <glyph glyph-name="uni04A0" unicode="&#x4a0;" horiz-adv-x="658" 
d="M646 0h-71l-232 320h-137v-320h-58v636h-158v54h216v-316h132l201 316h66l-215 -339z" />
    <glyph glyph-name="uni04A1" unicode="&#x4a1;" horiz-adv-x="525" 
d="M428 500h66l-174 -242l190 -258h-67l-169 229h-97v-229h-55v449h-142v51h197v-221h94z" />
    <glyph glyph-name="uni04A2" unicode="&#x4a2;" horiz-adv-x="650" 
d="M148 690v-305h342v305h58v-636h82v-184h-58v130h-82v331h-342v-331h-58v690h58z" />
    <glyph glyph-name="uni04A3" unicode="&#x4a3;" horiz-adv-x="548" 
d="M125 500v-221h276v221h55v-449h75v-168h-55v117h-75v228h-276v-228h-55v500h55z" />
    <glyph glyph-name="uni04AA" unicode="&#x4aa;" horiz-adv-x="580" 
d="M331 -130h-58v125c-135 10 -218 99 -218 309v82c0 223 95 310 245 310c123 0 221 -64 243 -215h-57c-23 117 -92 161 -186 161c-118 0 -187 -68 -187 -256v-82c0 -189 70 -256 187 -256c100 0 164 53 186 163h56c-20 -142 -107 -206 -211 -215v-126z" />
    <glyph glyph-name="uni04AB" unicode="&#x4ab;" horiz-adv-x="443" 
d="M283 -117h-55v113c-117 10 -183 88 -183 219v72c0 142 79 219 211 219c73 0 132 -26 169 -77l-44 -30c-28 38 -75 56 -125 56c-99 0 -156 -60 -156 -168v-72c0 -99 46 -170 156 -170c51 0 98 17 126 61l44 -31c-29 -47 -79 -74 -143 -79v-113z" />
    <glyph glyph-name="uni04AE" unicode="&#x4ae;" horiz-adv-x="536" 
d="M15 690h68l185 -324l185 324h68l-224 -388v-302h-58v302z" />
    <glyph glyph-name="uni04AF" unicode="&#x4af;" horiz-adv-x="480" 
d="M409 500h61l-201 -498v-192h-55v190l-204 500h61l169 -427z" />
    <glyph glyph-name="uni04B0" unicode="&#x4b0;" horiz-adv-x="536" 
d="M15 690h68l185 -324l185 324h68l-224 -388h146v-54h-146v-248h-58v248h-145v54h145z" />
    <glyph glyph-name="uni04B1" unicode="&#x4b1;" horiz-adv-x="480" 
d="M409 500h61l-201 -498v-2h118v-51h-118v-139h-55v139h-119v51h119l-204 500h61l169 -427z" />
    <glyph glyph-name="uni04B2" unicode="&#x4b2;" horiz-adv-x="577" 
d="M92 0h-65l215 357l-196 333h65l165 -280l164 280h66l-197 -333l183 -303h72v-184h-58v130h-47l-183 301z" />
    <glyph glyph-name="uni04B3" unicode="&#x4b3;" horiz-adv-x="476" 
d="M411 0h-40l-145 208l-146 -208h-65l179 256l-164 244h65l131 -197l130 197h66l-164 -244l143 -205h65v-168h-55v117z" />
    <glyph glyph-name="uni04B6" unicode="&#x4b6;" horiz-adv-x="592" 
d="M95 690v-183c0 -141 47 -184 176 -184c82 0 131 24 161 74v293h58v-636h82v-184h-58v130h-82v324c-26 -28 -79 -55 -168 -55c-177 0 -227 76 -227 238v183h58z" />
    <glyph glyph-name="uni04B7" unicode="&#x4b7;" horiz-adv-x="509" 
d="M110 500v-123c0 -108 58 -130 129 -130c80 0 108 27 123 49v204h55v-449h75v-168h-55v117h-75v230c-23 -21 -71 -36 -126 -36c-109 0 -181 42 -181 183v123h55z" />
    <glyph glyph-name="uni04B8" unicode="&#x4b8;" horiz-adv-x="580" 
d="M95 690v-183c0 -129 39 -176 144 -183v132h54v-133c69 4 112 28 139 74v293h58v-690h-58v324c-23 -25 -68 -49 -139 -54v-123h-54v122c-157 7 -202 84 -202 238v183h58z" />
    <glyph glyph-name="uni04B9" unicode="&#x4b9;" horiz-adv-x="487" 
d="M110 500v-123c0 -95 44 -124 103 -129v112h51v-112c61 5 84 28 98 48v204h55v-500h-55v230c-19 -18 -55 -31 -98 -35v-100h-51v99c-96 6 -158 52 -158 183v123h55z" />
    <glyph glyph-name="uni04BA" unicode="&#x4ba;" horiz-adv-x="568" 
d="M485 0v268c0 140 -47 184 -176 184c-82 0 -131 -25 -161 -75v-377h-58v690h58v-240c26 29 79 56 168 56c177 0 227 -76 227 -238v-268h-58z" />
    <glyph glyph-name="uni04BB" unicode="&#x4bb;" 
d="M70 0v690h55v-258c27 48 73 74 147 74c111 0 184 -69 184 -210v-296h-55v295c0 114 -57 159 -135 159c-94 0 -141 -62 -141 -154v-300h-55z" />
    <glyph glyph-name="uni04D8" unicode="&#x4d8;" horiz-adv-x="604" 
d="M304 642c-89 0 -156 -41 -185 -143l-51 20c32 126 126 177 236 177c150 0 245 -87 245 -310v-82c0 -223 -95 -310 -245 -310c-152 0 -249 87 -249 310v33h436v49c0 187 -71 256 -187 256zM304 48c111 0 181 63 186 235h-377c6 -172 77 -235 191 -235z" />
    <glyph glyph-name="afii10846" unicode="&#x4d9;" horiz-adv-x="482" 
d="M51 213v51h331v21c0 98 -47 170 -152 170c-60 0 -103 -19 -131 -61l-43 30c34 55 89 82 171 82c132 0 210 -83 210 -221v-72c0 -142 -69 -219 -193 -219c-125 0 -193 76 -193 219zM244 45c91 0 138 59 138 168v1h-276v-1c0 -109 47 -168 138 -168z" />
    <glyph glyph-name="uni04E2" unicode="&#x4e2;" horiz-adv-x="656" 
d="M90 690h58v-576l368 576h50v-690h-58v573l-367 -573h-51v690zM161 787v51h299v-51h-299z" />
    <glyph glyph-name="uni04E3" unicode="&#x4e3;" horiz-adv-x="536" 
d="M125 500v-404l288 404h53v-500h-55v408l-289 -408h-52v500h55zM119 621v51h259v-51h-259z" />
    <glyph glyph-name="uni04E8" unicode="&#x4e8;" horiz-adv-x="600" 
d="M545 304c0 -218 -97 -310 -245 -310s-245 92 -245 310v82c0 217 97 310 245 310s245 -93 245 -310v-82zM300 48c113 0 187 69 187 256v27h-374v-27c0 -187 74 -256 187 -256zM113 386v-1h374v1c0 186 -74 256 -187 256s-187 -70 -187 -256z" />
    <glyph glyph-name="uni04E9" unicode="&#x4e9;" horiz-adv-x="496" 
d="M451 214c0 -136 -69 -220 -203 -220c-129 0 -203 80 -203 220v73c0 142 75 219 203 219s203 -77 203 -219v-73zM396 214v14h-296v-14c0 -105 47 -169 148 -169c97 0 148 64 148 169zM100 287v-8h296v8c0 109 -53 168 -148 168c-96 0 -148 -59 -148 -168z" />
    <glyph glyph-name="uni04EE" unicode="&#x4ee;" horiz-adv-x="577" 
d="M499 690h61l-235 -574c-39 -95 -77 -122 -192 -122v54c83 0 111 13 140 85l-246 557h64l212 -483zM161 787v51h299v-51h-299z" />
    <glyph glyph-name="uni04EF" unicode="&#x4ef;" horiz-adv-x="459" 
d="M73 -190v54c78 0 103 26 137 122l2 6l-205 508h60l173 -428l148 428h58l-181 -520c-41 -120 -73 -170 -192 -170zM119 621v51h259v-51h-259z" />
    <glyph glyph-name="uni1E9E" unicode="&#x1e9e;" horiz-adv-x="703" 
d="M518 636l-136 -192c98 -5 136 -45 136 -135v-169c0 -120 -73 -140 -175 -140h-47v54h55c62 0 109 21 109 89v164c0 56 -14 86 -96 86h-56v46l127 175c-27 15 -72 30 -129 30c-106 0 -158 -46 -158 -149v-495h-58v499c0 123 72 199 216 199c92 0 169 -36 212 -62z" />
    <glyph glyph-name="uni2010" unicode="&#x2010;" horiz-adv-x="309" 
d="M30 263v51h249v-51h-249z" />
    <glyph glyph-name="uni2011" unicode="&#x2011;" horiz-adv-x="309" 
d="M30 263v51h249v-51h-249z" />
    <glyph glyph-name="figuredash" unicode="&#x2012;" horiz-adv-x="490" 
d="M63 322v51h364v-51h-364z" />
    <glyph glyph-name="endash" unicode="&#x2013;" horiz-adv-x="509" 
d="M65 263v51h379v-51h-379z" />
    <glyph glyph-name="emdash" unicode="&#x2014;" horiz-adv-x="704" 
d="M25 263v51h654v-51h-654z" />
    <glyph glyph-name="quoteleft" unicode="&#x2018;" horiz-adv-x="198" 
d="M65 563v142l68 59v-201h-68z" />
    <glyph glyph-name="quoteright" unicode="&#x2019;" horiz-adv-x="201" 
d="M133 705v-142l-68 -59v201h68z" />
    <glyph glyph-name="quotesinglbase" unicode="&#x201a;" horiz-adv-x="198" 
d="M133 68v-142l-68 -59v201h68z" />
    <glyph glyph-name="quotedblleft" unicode="&#x201c;" horiz-adv-x="341" 
d="M65 563v142l68 59v-201h-68zM206 563v142l68 59v-201h-68z" />
    <glyph glyph-name="quotedblright" unicode="&#x201d;" horiz-adv-x="341" 
d="M274 705v-142l-68 -59v201h68zM133 705v-142l-68 -59v201h68z" />
    <glyph glyph-name="quotedblbase" unicode="&#x201e;" horiz-adv-x="336" 
d="M133 68v-142l-68 -59v201h68zM274 68v-142l-68 -59v201h68z" />
    <glyph glyph-name="dagger" unicode="&#x2020;" horiz-adv-x="536" 
d="M30 488h209v202h58v-202h209v-54h-209v-624h-58v624h-209v54z" />
    <glyph glyph-name="daggerdbl" unicode="&#x2021;" horiz-adv-x="536" 
d="M30 488h209v202h58v-202h209v-54h-209v-368h209v-54h-209v-202h-58v202h-209v54h209v368h-209v54z" />
    <glyph glyph-name="bullet" unicode="&#x2022;" horiz-adv-x="298" 
d="M65 341c0 46 38 84 84 84s84 -38 84 -84s-38 -84 -84 -84s-84 38 -84 84z" />
    <glyph glyph-name="ellipsis" unicode="&#x2026;" horiz-adv-x="663" 
d="M146 81v-81h-81v81h81zM598 81v-81h-81v81h81zM372 81v-81h-81v81h81z" />
    <glyph glyph-name="perthousand" unicode="&#x2030;" horiz-adv-x="1059" 
d="M515 690h58l-385 -690h-59zM160 387c67 0 93 47 93 107v52c0 69 -33 105 -93 105c-58 0 -91 -36 -91 -105v-52c0 -60 24 -107 91 -107zM160 342c-88 0 -138 55 -138 152v53c0 97 52 150 138 150c88 0 140 -53 140 -150v-53c0 -94 -46 -152 -140 -152zM552 39
c67 0 93 47 93 107v52c0 69 -33 105 -93 105c-58 0 -91 -36 -91 -105v-52c0 -60 24 -107 91 -107zM552 -6c-88 0 -138 55 -138 152v53c0 97 52 150 138 150c88 0 140 -53 140 -150v-53c0 -94 -46 -152 -140 -152zM872 39c67 0 93 47 93 107v52c0 69 -33 105 -93 105
c-58 0 -91 -36 -91 -105v-52c0 -60 24 -107 91 -107zM872 -6c-88 0 -138 55 -138 152v53c0 97 52 150 138 150c88 0 140 -53 140 -150v-53c0 -94 -46 -152 -140 -152z" />
    <glyph glyph-name="guilsinglleft" unicode="&#x2039;" horiz-adv-x="326" 
d="M30 283l232 231v-72l-160 -159l160 -159v-72z" />
    <glyph glyph-name="guilsinglright" unicode="&#x203a;" horiz-adv-x="326" 
d="M59 514l232 -231l-232 -231v72l160 159l-160 159v72z" />
    <glyph glyph-name="fraction" unicode="&#x2044;" horiz-adv-x="566" 
d="M486 690h57l-474 -690h-58z" />
    <glyph glyph-name="uni2074" unicode="&#x2074;" horiz-adv-x="296" 
d="M156 690h48l-126 -210h106v61h42v-61h39v-40h-39v-66h-42v66h-159v38z" />
    <glyph glyph-name="Euro" unicode="&#x20ac;" horiz-adv-x="490" 
d="M12 297h67v96h-67v54h69c11 177 77 249 199 249c105 0 175 -64 191 -215h-58c-13 105 -48 161 -133 161c-92 0 -133 -53 -142 -195h167v-54h-168v-96h168v-54h-166c9 -142 53 -195 141 -195c87 0 121 73 132 163h56c-15 -149 -87 -217 -188 -217c-118 0 -187 72 -199 249
h-69v54z" />
    <glyph glyph-name="uni20B4" unicode="&#x20b4;" horiz-adv-x="490" 
d="M7 259v55h475v-55h-345c-21 -23 -30 -51 -30 -87c0 -66 43 -124 134 -124c92 0 123 37 164 92l46 -33c-53 -76 -110 -113 -210 -113c-133 0 -192 92 -192 180c0 34 7 62 20 85h-62zM7 385v55h347c16 19 25 44 25 78c0 79 -43 124 -128 124c-73 0 -109 -36 -145 -91
l-44 32c45 76 106 113 187 113c137 0 188 -84 188 -178c0 -31 -7 -57 -18 -78h63v-55h-475z" />
    <glyph glyph-name="uni20B8" unicode="&#x20b8;" horiz-adv-x="490" 
d="M11 585h468v-54h-205v-531h-58v531h-205v54zM11 690h468v-54h-468v54z" />
    <glyph glyph-name="uni20BD" unicode="&#x20bd;" horiz-adv-x="490" 
d="M12 143v54h84v76h-84v54h84v363h131c159 0 251 -78 251 -209c0 -130 -91 -208 -251 -208h-73v-76h135v-54h-135v-143h-58v143h-84zM154 327h73c133 0 193 57 193 154c0 98 -60 155 -193 155h-73v-309z" />
    <glyph glyph-name="afii61352" unicode="&#x2116;" horiz-adv-x="948" 
d="M912 483c0 -98 -49 -157 -145 -157c-92 0 -145 56 -145 157v56c0 103 54 157 145 157c92 0 145 -54 145 -157v-56zM861 485v52c0 71 -32 108 -94 108s-95 -38 -95 -108v-52c0 -68 30 -108 95 -108c63 0 94 41 94 108zM643 223v51h249v-51h-249zM490 690h58v-690h-56
l-344 574v-574h-58v690h55l345 -579v579z" />
    <glyph glyph-name="trademark" unicode="&#x2122;" horiz-adv-x="898" 
d="M462 690l165 -282l166 282h44v-417h-50v313l-138 -233h-47l-134 233v-313h-51v417h45zM35 690h328v-48h-139v-369h-51v369h-138v48z" />
    <glyph glyph-name="uni2190" unicode="&#x2190;" horiz-adv-x="868" 
d="M466 -92h-43l-353 353l353 353h43l-339 -338h671v-30h-671z" />
    <glyph glyph-name="uni2191" unicode="&#x2191;" horiz-adv-x="846" 
d="M776 272v-43l-338 339v-671h-30v671l-338 -339v43l353 353z" />
    <glyph glyph-name="uni2192" unicode="&#x2192;" horiz-adv-x="868" 
d="M445 -92h-43l339 338h-671v30h671l-339 338h43l353 -353z" />
    <glyph glyph-name="uni2193" unicode="&#x2193;" horiz-adv-x="846" 
d="M70 250v43l338 -339v671h30v-671l338 339v-43l-353 -353z" />
    <glyph glyph-name="uni2196" unicode="&#x2196;" horiz-adv-x="670" 
d="M100 -30l-30 30v500h500l30 -30h-479l474 -474l-21 -21l-474 474v-479z" />
    <glyph glyph-name="uni2197" unicode="&#x2197;" horiz-adv-x="670" 
d="M600 0l-30 -30v479l-474 -474l-21 21l474 474h-479l30 30h500v-500z" />
    <glyph glyph-name="uni2198" unicode="&#x2198;" horiz-adv-x="670" 
d="M100 0l-30 30h479l-474 474l21 21l474 -474v479l30 -30v-500h-500z" />
    <glyph glyph-name="uni2199" unicode="&#x2199;" horiz-adv-x="670" 
d="M600 30l-30 -30h-500v500l30 30v-479l474 474l21 -21l-474 -474h479z" />
    <glyph glyph-name="uni21A3" unicode="&#x21a3;" horiz-adv-x="1217" 
d="M174 402l96 -95h820l-65 65l30 30l122 -122l-122 -123l-30 30l65 66h-820l-96 -96l-30 30l93 93l-93 92zM70 402l122 -122l-122 -123l-30 30l92 93l-92 92z" />
    <glyph glyph-name="partialdiff" unicode="&#x2202;" horiz-adv-x="496" 
d="M451 214c0 -136 -69 -220 -203 -220c-129 0 -203 80 -203 220v73c0 142 75 219 203 219c66 0 116 -21 148 -63v29c0 108 -53 173 -154 173c-45 0 -92 -18 -130 -49l-31 41c42 36 106 59 162 59c134 0 208 -81 208 -224v-258zM396 214v81c0 104 -56 160 -148 160
c-95 0 -148 -60 -148 -168v-73c0 -105 48 -169 148 -169c96 0 148 65 148 169z" />
    <glyph glyph-name="product" unicode="&#x220f;" horiz-adv-x="638" 
d="M548 690v-880h-58v826h-342v-826h-58v880h458z" />
    <glyph glyph-name="summation" unicode="&#x2211;" horiz-adv-x="519" 
d="M327 279v-59l-218 -356h365v-54h-439v43l243 397l-243 397v43h439v-54h-365z" />
    <glyph glyph-name="minus" unicode="&#x2212;" horiz-adv-x="490" 
d="M55 328v51h379v-51h-379z" />
    <glyph glyph-name="uni2215" unicode="&#x2215;" horiz-adv-x="464" 
d="M100 -116h-54l336 928h54z" />
    <glyph glyph-name="radical" unicode="&#x221a;" horiz-adv-x="613" 
d="M124 446h-97v54h139c34 -75 143 -328 177 -403c28 106 118 486 146 593h225v-54h-181c-29 -110 -129 -526 -158 -636h-53c-36 78 -162 367 -198 446z" />
    <glyph glyph-name="infinity" unicode="&#x221e;" horiz-adv-x="762" 
d="M200 222c66 0 105 47 154 121c-48 75 -94 118 -154 118c-61 0 -114 -47 -114 -119c0 -74 53 -120 114 -120zM569 222c60 0 112 46 112 120c0 72 -52 119 -114 119s-103 -43 -150 -117c49 -74 89 -122 152 -122zM383 298c-45 -67 -103 -130 -180 -130
c-102 0 -168 77 -168 174s66 174 168 174c75 0 141 -62 183 -129c42 67 104 129 178 129c103 0 169 -77 169 -174s-66 -174 -169 -174c-77 0 -135 63 -181 130z" />
    <glyph glyph-name="integral" unicode="&#x222b;" horiz-adv-x="285" 
d="M150 531v-575c0 -94 -39 -146 -142 -146h-16v56h15c67 0 85 31 85 103v575c0 96 38 146 141 146h17v-56h-15c-67 0 -85 -30 -85 -103z" />
    <glyph glyph-name="approxequal" unicode="&#x2248;" horiz-adv-x="490" 
d="M419 296l27 -40c-31 -27 -57 -45 -99 -45c-66 0 -140 53 -197 53c-31 0 -54 -17 -80 -41l-27 40c37 34 68 52 108 52c64 0 143 -53 197 -53c29 0 50 15 71 34zM419 455l27 -40c-30 -27 -58 -45 -99 -45c-66 0 -140 53 -197 53c-29 0 -51 -14 -80 -41l-27 40
c37 34 68 52 108 52c64 0 143 -53 197 -53c29 0 50 15 71 34z" />
    <glyph glyph-name="notequal" unicode="&#x2260;" horiz-adv-x="490" 
d="M50 410v51h216l78 181l47 -20l-70 -161h118v-51h-140l-48 -113h188v-51h-210l-78 -182l-47 20l69 162h-123v51h145l49 113h-194z" />
    <glyph glyph-name="lessequal" unicode="&#x2264;" horiz-adv-x="330" 
d="M58 401l232 231v-72l-160 -159l160 -159v-72zM58 228v71l232 -229v-73z" />
    <glyph glyph-name="greaterequal" unicode="&#x2265;" horiz-adv-x="330" 
d="M58 632l232 -231l-232 -231v72l160 159l-160 159v72zM290 299v-71l-232 -231v73z" />
    <glyph glyph-name="uni231A" unicode="&#x231a;" horiz-adv-x="686" 
d="M195 -205v235c-75 45 -125 127 -125 220s50 174 125 219v235h261v-234c67 -40 114 -109 124 -190h36v-60h-36c-10 -81 -57 -150 -124 -190v-235h-261zM100 250c0 -125 101 -226 226 -226s226 101 226 226s-101 226 -226 226s-226 -101 -226 -226zM326 -6
c-36 0 -70 7 -101 20v-189h201v189c-31 -13 -65 -20 -100 -20zM225 674v-189c31 14 65 21 101 21c35 0 69 -7 100 -20v188h-201zM492 318l-166 -93l-133 75l-6 20l20 5l119 -70l153 87l19 -5z" />
    <glyph glyph-name="uni23F2" unicode="&#x23f2;" horiz-adv-x="1092" 
d="M70 342c0 263 213 476 476 476s476 -213 476 -476s-213 -476 -476 -476s-476 213 -476 476zM100 342c0 -247 199 -446 446 -446s446 199 446 446s-199 445 -446 445s-446 -198 -446 -445zM909 517l-363 -207l-257 147l-6 22l21 4l242 -138v-1l348 199l20 -5zM131 357h140
v-30h-140v30zM822 357h140v-30h-140v30zM531 -74v140h30v-140h-30zM531 617v140h30v-140h-30z" />
    <glyph glyph-name="uni2550" unicode="&#x2550;" horiz-adv-x="2158" 
d="M2158 363v-54h-2158v54h2158zM2158 249v-54h-2158v54h2158z" />
    <glyph glyph-name="lozenge" unicode="&#x25ca;" horiz-adv-x="593" 
d="M274 587h60l210 -291l-210 -296h-60l-211 296zM303 536l-172 -240l172 -246l171 246z" />
    <glyph glyph-name="uni261D" unicode="&#x261d;" horiz-adv-x="768" 
d="M698 -49h-393l-235 350s100 101 182 0l46 -56v372c0 46 23 77 65 77c43 0 65 -31 65 -73v-207h13c35 0 66 -14 66 -52h17c47 0 73 -28 73 -58h15c46 0 86 -31 86 -85v-268zM324 -19h344v238c0 33 -21 55 -58 55h-2v-122h-30v122c0 41 -22 58 -57 58h-3v-126h-30v126
c0 40 -15 52 -50 52h-10v-122h-30v344c0 37 -7 58 -35 58s-35 -21 -35 -60v-434l-107 114c-55 59 -105 7 -105 7zM305 -271v177h393v-177h-393zM668 -124h-333v-117h333v117zM606 -156c16 0 27 -11 27 -27s-10 -28 -27 -28c-16 0 -28 12 -28 28s12 27 28 27z" />
    <glyph glyph-name="uni261E" unicode="&#x261e;" horiz-adv-x="1105" 
d="M292 47v393l350 235s101 -100 0 -182l-56 -46h372c46 0 77 -23 77 -65c0 -43 -31 -65 -73 -65h-207v-13c0 -35 -14 -66 -52 -66v-17c0 -47 -28 -73 -58 -73v-15c0 -46 -31 -86 -85 -86h-268zM322 421v-344h238c33 0 55 21 55 58v2h-122v30h122c41 0 58 22 58 57v3h-126
v30h126c40 0 52 15 52 50v10h-122v30h344c37 0 58 7 58 35s-21 35 -60 35h-434l114 107c59 55 7 105 7 105zM70 440h177v-393h-177v393zM217 77v333h-117v-333h117zM185 139c0 -16 -11 -27 -27 -27s-28 10 -28 27c0 16 12 28 28 28s27 -12 27 -28z" />
    <glyph glyph-name="uni26F3" unicode="&#x26f3;" horiz-adv-x="694" 
d="M70 513c0 153 124 277 277 277s277 -124 277 -277c0 -54 -17 -113 -82 -216l-195 -307l-197 309c-64 102 -80 160 -80 214zM264 513c0 -46 37 -82 83 -82c45 0 82 36 82 82s-37 82 -82 82c-46 0 -83 -36 -83 -82zM99 513c0 -56 23 -116 89 -218l161 -246l158 246
c65 102 90 162 90 218c0 139 -112 247 -248 247c-139 0 -250 -108 -250 -247z" />
    <glyph glyph-name="uni2709" unicode="&#x2709;" horiz-adv-x="1256" 
d="M70 578h1116v-578h-1116v578zM100 548v-50l528 -314l528 314v50h-1056zM463 247l-363 -217h1056l-363 217l-165 -98zM1156 463l-334 -199l334 -200v399zM435 264l-335 199v-399z" />
    <glyph glyph-name="uniF040" unicode="&#xf040;" horiz-adv-x="3054" 
d="M0 253v54h1353l96 95l30 -30l-93 -92l93 -93l-30 -30l-96 96h-1353zM1605 402l95 -95h1354v-54h-1354l-95 -96l-30 30l92 93l-92 92z" />
    <glyph glyph-name="uniF041" unicode="&#xf041;" horiz-adv-x="2855" 
d="M1527 388l47 -27l-32 -54h1313v-54h-1344l-47 -81l-46 26zM1389 388l47 -27l-110 -189l-46 26l31 55h-1311v54h1342z" />
    <glyph glyph-name="uniF042" unicode="&#xf042;" horiz-adv-x="2825" 
d="M1454 253v54h1371v-54h-1371zM1251 307v-54h-1251v54h1251z" />
    <glyph glyph-name="uniF043" unicode="&#xf043;" horiz-adv-x="768" 
d="M305 -49h393v268c0 54 -40 85 -86 85h-15c0 30 -26 58 -73 58h-17c0 38 -31 52 -66 52h-13v207c0 42 -22 73 -65 73c-42 0 -65 -31 -65 -77v-372l-46 56c-82 101 -182 0 -182 0zM668 -19h-344l-208 310s50 52 105 -7l107 -114v434c0 39 7 60 35 60s35 -21 35 -58v-344h30
v122h10c35 0 50 -12 50 -52v-126h30v126h3c35 0 57 -17 57 -58v-122h30v122h2c37 0 58 -22 58 -55v-238zM305 -94v-177h393v177h-393zM335 -124h333v-117h-333v117zM606 -156c16 0 27 -11 27 -27s-10 -28 -27 -28c-16 0 -28 12 -28 28s12 27 28 27zM626 604h-158v30h158v-30
zM258 604h-158v30h158v-30zM348 730v158h30v-158h-30z" />
    <glyph glyph-name="uniF044" unicode="&#xf044;" horiz-adv-x="937" 
d="M474 -49h393v268c0 54 -40 85 -86 85h-15c0 30 -26 58 -73 58h-17c0 38 -31 52 -66 52h-13v207c0 42 -22 73 -65 73c-42 0 -65 -31 -65 -77v-456l-156 40c-137 35 -154 -93 -154 -93zM837 -19h-357l-286 142s16 74 107 50l196 -52v483c0 39 7 60 35 60s35 -21 35 -58
v-344h30v122h10c33 0 48 -11 50 -46v-132h30v126h3c35 0 57 -17 57 -58v-122h30v122h2c37 0 58 -22 58 -55v-238zM474 -94v-177h393v177h-393zM504 -124h333v-117h-333v117zM228 -5h-158v158h30v-128h128v-30zM532 794h158v-158h-30v128h-128v30zM775 -156
c16 0 27 -11 27 -27s-10 -28 -27 -28c-16 0 -28 12 -28 28s12 27 28 27z" />
    <glyph glyph-name="uniF045" unicode="&#xf045;" horiz-adv-x="904" 
d="M427 636h457v-30h-456v-192h13c35 0 66 -14 66 -52h17c47 0 73 -28 73 -58h15c46 0 86 -31 86 -85v-268h-393l-235 350s100 101 182 0l46 -56v372c0 46 23 77 65 77c37 0 59 -24 64 -58zM324 -19h344v238c0 33 -21 55 -58 55h-2v-122h-30v128c-2 36 -24 52 -57 52h-3
v-126h-30v132c-2 35 -17 46 -50 46h-10v-122h-30v344c0 37 -7 58 -35 58s-35 -21 -35 -60v-434l-107 114c-55 59 -105 7 -105 7zM305 -271v177h393v-177h-393zM668 -124h-333v-117h333v117zM240 509l-112 112l112 112l21 -21l-91 -91l91 -91zM606 -156c16 0 27 -11 27 -27
s-10 -28 -27 -28c-16 0 -28 12 -28 28s12 27 28 27z" />
    <glyph glyph-name="uniF046" unicode="&#xf046;" horiz-adv-x="946" 
d="M876 -49h-393l-235 350s100 101 182 0l46 -56v361h-456v30h457c6 35 28 58 64 58c43 0 65 -31 65 -73v-207h13c35 0 66 -14 66 -52h17c47 0 73 -28 73 -58h15c46 0 86 -31 86 -85v-268zM502 -19h344v238c0 33 -21 55 -58 55h-2v-122h-30v128c-2 36 -24 52 -57 52h-3v-126
h-30v132c-2 35 -17 46 -50 46h-10v-122h-30v344c0 37 -7 58 -35 58s-35 -21 -35 -60v-434l-107 114c-55 59 -105 7 -105 7zM483 -271v177h393v-177h-393zM846 -124h-333v-117h333v117zM776 621l-112 -112l-21 21l91 91l-91 91l21 21zM784 -156c16 0 27 -11 27 -27
s-10 -28 -27 -28c-16 0 -28 12 -28 28s12 27 28 27z" />
    <glyph glyph-name="uniF047" unicode="&#xf047;" horiz-adv-x="1062" 
d="M459 -117l-197 341l186 378s138 -36 91 -158l-26 -68l323 186c40 23 78 19 99 -18s6 -71 -31 -92l-9 -5v-571h-30v553l-140 -81l6 -11c18 -30 21 -64 -12 -83l9 -15c23 -41 12 -77 -14 -92l7 -13c23 -40 17 -90 -30 -117zM298 222l172 -298l206 119c28 16 37 46 18 78
l-1 1l-105 -61l-15 26l105 61c36 21 40 48 22 79l-1 2l-109 -63l-15 26l109 63c34 20 37 39 20 70l-5 8l-106 -61l-15 26l298 172c32 19 47 35 33 60c-14 24 -36 19 -70 0l-375 -217l45 150c23 77 -47 94 -47 94zM70 113l153 88l197 -340l-154 -89zM379 -128l-167 288
l-101 -58l166 -289zM880 747l112 -112l-21 -21l-91 91l-91 -91l-21 21zM296 -77c16 0 27 -11 27 -27s-10 -28 -27 -28c-16 0 -28 12 -28 28s12 27 28 27z" />
    <glyph glyph-name="uniF048" unicode="&#xf048;" horiz-adv-x="1196" 
d="M263 82l196 341l421 28s38 -137 -92 -158l-71 -11l282 -164v555h30v-573l10 -5c40 -23 56 -58 34 -95c-21 -36 -58 -40 -95 -19l-179 103l-7 -11c-17 -30 -45 -50 -78 -31l-8 -15c-24 -41 -61 -49 -87 -34l-8 -13c-23 -40 -69 -59 -116 -32zM476 391l-172 -298l206 -119
c28 -16 58 -9 77 23v2l-106 60l15 26l106 -60c36 -21 61 -11 79 20l1 2l-109 63l15 26l109 -63c35 -19 53 -12 71 18l5 8l-106 61l15 26l298 -172c32 -18 54 -23 68 2c14 24 -1 41 -35 61l-375 216l152 36c78 18 58 87 58 87zM267 533l153 -88l-196 -341l-154 89zM213 145
l166 289l-101 58l-167 -288zM1014 -198l-112 112l21 21l91 -91l91 91l21 -21zM192 256c16 0 27 -11 27 -27s-10 -28 -27 -28c-16 0 -28 12 -28 28s12 27 28 27z" />
    <glyph glyph-name="uniF400" unicode="&#xf400;" horiz-adv-x="0" 
d="M-281 567l75 158h66l-88 -158h-53z" />
    <glyph glyph-name="uniF401" unicode="&#xf401;" horiz-adv-x="0" 
d="M-325 757l72 129h68l-87 -129h-53z" />
    <glyph glyph-name="uniF406" unicode="&#xf406;" horiz-adv-x="489" 
d="M370 889h54c0 -97 -72 -147 -179 -147s-180 50 -180 147h54c5 -51 36 -93 126 -93c89 0 120 42 125 93z" />
    <glyph glyph-name="uniF407" unicode="&#xf407;" horiz-adv-x="396" 
d="M151 -55l17 78l43 -2l-12 -42c43 -10 72 -35 72 -76c0 -55 -46 -82 -109 -82c-14 0 -29 1 -37 3l9 40c7 -1 16 -1 25 -1c32 0 62 8 62 40c0 29 -31 40 -70 42z" />
    <glyph glyph-name="uniF408" unicode="&#xf408;" horiz-adv-x="484" 
d="M216 889h52l148 -142h-74l-100 100l-101 -100h-74z" />
    <glyph glyph-name="uniF409" unicode="&#xf409;" horiz-adv-x="341" 
d="M202 -64v-103l-63 -55v158h63z" />
    <glyph glyph-name="uniF40A" unicode="&#xf40a;" horiz-adv-x="125" 
d="M108 690v-143l-63 -55v198h63z" />
    <glyph glyph-name="uniF40B" unicode="&#xf40b;" horiz-adv-x="342" 
d="M204 802h-67v67h67v-67z" />
    <glyph glyph-name="uniF40C" unicode="&#xf40c;" horiz-adv-x="420" 
d="M100 800c0 61 49 99 109 99c61 0 110 -38 110 -99c0 -60 -49 -98 -110 -98c-60 0 -109 38 -109 98zM141 800c0 -38 31 -58 68 -58c38 0 68 20 68 58c0 39 -30 58 -68 58c-37 0 -68 -19 -68 -58z" />
    <glyph glyph-name="uniF40D" unicode="&#xf40d;" horiz-adv-x="478" 
d="M297 775c-46 0 -74 30 -115 30c-21 0 -45 -9 -65 -29l-35 36c26 29 60 47 100 47c44 0 72 -30 115 -30c19 0 45 10 64 30l35 -37c-23 -26 -60 -47 -99 -47z" />
    <glyph glyph-name="uniF40E" unicode="&#xf40e;" horiz-adv-x="383" 
d="M242 41l8 -41c-42 -22 -80 -40 -80 -73c0 -30 31 -35 57 -35c10 0 20 1 27 2l9 -41c-8 -2 -23 -3 -41 -3c-49 0 -102 19 -102 74c0 52 45 81 122 117z" />
    <glyph glyph-name="dollar.fitted" unicode="&#xf5f5;" horiz-adv-x="569" 
d="M506 583l-46 -33c-32 46 -73 82 -146 90v-271c123 -28 204 -69 204 -195c0 -84 -56 -172 -204 -179v-111h-52v111c-95 6 -166 44 -212 112l47 33c39 -49 81 -85 165 -91v275c-118 26 -197 77 -197 194c0 92 57 170 197 177v117h52v-117c89 -7 149 -44 192 -112zM460 172
c0 76 -40 115 -146 141v-264c106 6 146 60 146 123zM123 518c0 -86 58 -116 139 -137v260c-85 -5 -139 -44 -139 -123z" />
    <glyph glyph-name="Euro.fitted" unicode="&#xf5f6;" horiz-adv-x="621" 
d="M7 297h88v96h-88v54h91c16 178 106 249 242 249c123 0 221 -64 243 -215h-57c-23 117 -92 161 -186 161c-104 0 -171 -53 -185 -195h211v-54h-213v-96h213v-54h-211c14 -143 81 -195 185 -195c100 0 164 53 186 163h56c-22 -155 -124 -217 -242 -217
c-136 0 -226 71 -242 249h-91v54z" />
    <glyph glyph-name="cent.fitted" unicode="&#xf5f7;" horiz-adv-x="443" 
d="M293 -116h-52v111c-125 5 -196 84 -196 220v72c0 136 73 213 196 218v117h52v-119c56 -7 101 -32 132 -74l-44 -30c-28 38 -75 56 -125 56c-99 0 -156 -60 -156 -168v-72c0 -99 46 -170 156 -170c51 0 98 17 126 61l44 -31c-28 -44 -74 -71 -133 -78v-113z" />
    <glyph glyph-name="sterling.fitted" unicode="&#xf5f8;" horiz-adv-x="480" 
d="M37 0v54h71v288h-71v54h71v43c0 160 56 257 186 257c70 0 122 -28 159 -76l-49 -31c-30 35 -64 53 -110 53c-92 0 -128 -65 -128 -203v-43h156v-54h-156v-288h275v-54h-404z" />
    <glyph glyph-name="yen.fitted" unicode="&#xf5f9;" horiz-adv-x="536" 
d="M75 212h164v90h-164v54h133l-193 334h68l185 -324l185 324h68l-193 -334h133v-54h-164v-90h164v-54h-164v-158h-58v158h-164v54z" />
    <glyph glyph-name="florin.fitted" unicode="&#xf5fa;" horiz-adv-x="316" 
d="M56 500h64v36c0 105 32 154 142 154h23v-53h-21c-81 0 -89 -38 -89 -115v-22h110v-51h-110v-485c0 -104 -35 -154 -150 -154v52c88 0 95 45 95 120v467h-64v51z" />
    <glyph glyph-name="uni20B4.fitted" unicode="&#xf5fb;" horiz-adv-x="545" 
d="M35 259v55h475v-55h-345c-21 -23 -30 -51 -30 -87c0 -66 42 -124 134 -124c91 0 122 37 163 92l47 -33c-53 -76 -111 -113 -210 -113c-134 0 -192 92 -192 180c0 34 7 61 20 85h-62zM35 385v55h347c15 19 25 44 25 78c0 79 -44 124 -128 124c-74 0 -110 -36 -145 -91
l-45 32c46 76 106 113 188 113c137 0 188 -84 188 -178c0 -31 -7 -57 -18 -78h63v-55h-475z" />
    <glyph glyph-name="uni20BD.fitted" unicode="&#xf5fc;" horiz-adv-x="490" 
d="M12 143v54h84v76h-84v54h84v363h131c159 0 251 -78 251 -209c0 -130 -91 -208 -251 -208h-73v-76h135v-54h-135v-143h-58v143h-84zM154 327h73c133 0 193 57 193 154c0 98 -60 155 -193 155h-73v-309z" />
    <glyph glyph-name="uni20B8.fitted" unicode="&#xf5fd;" horiz-adv-x="516" 
d="M10 585h496v-54h-219v-531h-58v531h-219v54zM10 690h496v-54h-496v54z" />
    <glyph glyph-name="uniF639" unicode="&#xf639;" horiz-adv-x="516" 
d="M451 497v-304c0 -127 -89 -199 -193 -199s-193 72 -193 200v302c0 128 89 200 193 200s193 -72 193 -199zM393 497c0 90 -59 145 -135 145c-77 0 -136 -55 -136 -145v-304c0 -90 59 -145 136 -145c76 0 135 55 135 145v304z" />
    <glyph glyph-name="uniF63A" unicode="&#xf63a;" horiz-adv-x="497" 
d="M435 54v-54h-395v48l248 292c60 71 91 119 91 171c0 87 -67 131 -135 131c-74 0 -133 -45 -136 -131h-57c0 114 87 185 193 185c107 0 193 -71 193 -189c0 -79 -64 -148 -117 -212l-202 -241h317z" />
    <glyph glyph-name="uniF63B" unicode="&#xf63b;" horiz-adv-x="489" 
d="M185 329v54h38c107 0 153 50 153 133c0 68 -53 126 -135 126c-78 0 -133 -52 -135 -122h-57c0 109 91 176 192 176c112 0 193 -77 193 -181c0 -84 -49 -135 -111 -158c70 -24 121 -82 121 -170c0 -108 -77 -193 -196 -193c-129 0 -201 77 -208 181h57
c9 -74 55 -127 151 -127c78 0 138 56 138 137c0 89 -56 144 -163 144h-38z" />
    <glyph glyph-name="uniF63C" unicode="&#xf63c;" horiz-adv-x="497" 
d="M271 690h59l-238 -512h241v215h58v-215h69v-54h-69v-124h-58v124h-309v43z" />
    <glyph glyph-name="uniF63D" unicode="&#xf63d;" horiz-adv-x="482" 
d="M243 410c-59 0 -97 -37 -120 -79h-52v359h340v-58h-284v-224c25 34 67 60 125 60c132 0 188 -97 188 -252c0 -136 -69 -222 -197 -222c-104 0 -181 75 -188 170h57c10 -71 64 -116 131 -116c85 0 139 46 139 168c0 126 -41 194 -139 194z" />
    <glyph glyph-name="uniF63E" unicode="&#xf63e;" horiz-adv-x="478" 
d="M249 402c110 0 184 -85 184 -202c0 -122 -79 -206 -194 -206c-113 0 -194 83 -194 203c0 54 25 109 46 159l143 334h65l-138 -312c24 16 57 24 88 24zM103 200c0 -93 54 -152 136 -152c80 0 136 59 136 152c0 90 -56 150 -136 150c-82 0 -136 -60 -136 -150z" />
    <glyph glyph-name="uniF63F" unicode="&#xf63f;" horiz-adv-x="428" 
d="M81 506h-54v184h378v-54l-228 -636h-62l229 636h-263v-130z" />
    <glyph glyph-name="uniF640" unicode="&#xf640;" horiz-adv-x="486" 
d="M103 188c0 -78 61 -140 140 -140c78 0 140 62 140 140c0 82 -67 141 -140 141c-74 0 -140 -59 -140 -141zM113 512c0 -72 57 -130 130 -130c72 0 130 58 130 130s-58 130 -130 130c-73 0 -130 -58 -130 -130zM45 188c0 78 49 143 110 169c-58 27 -100 87 -100 155
c0 107 87 184 188 184s188 -77 188 -184c0 -68 -43 -128 -101 -155c62 -26 111 -91 111 -169c0 -113 -92 -194 -198 -194s-198 81 -198 194z" />
    <glyph glyph-name="uniF641" unicode="&#xf641;" horiz-adv-x="478" 
d="M230 288c-111 0 -185 85 -185 202c0 122 79 206 194 206c113 0 194 -83 194 -203c0 -54 -25 -109 -46 -159l-143 -334h-65l137 312c-24 -17 -52 -24 -86 -24zM375 490c0 92 -54 152 -136 152c-81 0 -136 -60 -136 -152c0 -91 55 -150 136 -150c82 0 136 59 136 150z" />
    <glyph glyph-name="uniF6BA" unicode="&#xf6ba;" horiz-adv-x="309" 
d="M30 319v51h249v-51h-249z" />
    <glyph glyph-name="uniF6BB" unicode="&#xf6bb;" horiz-adv-x="509" 
d="M65 319v51h379v-51h-379z" />
    <glyph glyph-name="uniF6BC" unicode="&#xf6bc;" horiz-adv-x="704" 
d="M25 319v51h654v-51h-654z" />
    <glyph glyph-name="uniF6C3" unicode="&#xf6c3;" horiz-adv-x="279" 
d="M171 -64v-103l-63 -55v158h63z" />
    <glyph glyph-name="uniF6C9" unicode="&#xf6c9;" horiz-adv-x="391" 
d="M125 757l72 129h68l-87 -129h-53z" />
    <glyph glyph-name="uniF6CA" unicode="&#xf6ca;" horiz-adv-x="484" 
d="M141 889l101 -100l100 100h74l-148 -142h-52l-149 142h74z" />
    <glyph glyph-name="uniF6CB" unicode="&#xf6cb;" horiz-adv-x="447" 
d="M362 802h-67v67h67v-67zM152 802h-67v67h67v-67z" />
    <glyph glyph-name="uniF6CE" unicode="&#xf6ce;" horiz-adv-x="360" 
d="M110 886h68l72 -129h-50z" />
    <glyph glyph-name="uniF6CF" unicode="&#xf6cf;" horiz-adv-x="506" 
d="M88 757l80 129h68l-94 -129h-54zM266 757l85 129h67l-99 -129h-53z" />
    <glyph glyph-name="uniF6D0" unicode="&#xf6d0;" horiz-adv-x="460" 
d="M80 787v51h299v-51h-299z" />
    <glyph glyph-name="uniF6D1" unicode="&#xf6d1;" horiz-adv-x="479" 
d="M353 889h56c0 -100 -62 -142 -169 -142s-170 42 -170 142h56c0 -48 21 -96 114 -96s113 48 113 96z" />
    <glyph glyph-name="uniF6D4" unicode="&#xf6d4;" horiz-adv-x="379" 
d="M272 690h48c-2 -78 -48 -118 -131 -118s-130 40 -131 118h48c2 -47 23 -74 83 -74s81 27 83 74z" />
    <glyph glyph-name="uniF6DC" unicode="&#xf6dc;" horiz-adv-x="289" 
d="M199 690v-690h-58v620l-99 -71v65l99 76h58z" />
    <glyph glyph-name="uniFEFF" unicode="&#xfeff;" horiz-adv-x="0" 
 />
    <glyph glyph-name="uniF4D3" unicode="&#x1f4d3;" horiz-adv-x="772" 
d="M70 60v815c0 34 27 61 61 61h510c33 0 61 -27 61 -61v-815c0 -33 -28 -60 -61 -60h-510c-34 0 -61 27 -61 60zM344 86c0 23 18 41 42 41c22 0 41 -18 41 -41s-19 -41 -41 -41c-24 0 -42 18 -42 41zM672 813h-572v-641h572v641zM368 873c0 9 8 16 17 16s17 -7 17 -16
s-8 -17 -17 -17s-17 8 -17 17zM100 843h572v32c0 18 -13 31 -31 31h-509c-18 0 -32 -13 -32 -31v-32zM672 142h-572v-81c0 -18 14 -31 32 -31h509c18 0 31 13 31 31v81z" />
    <glyph glyph-name="uniF4F1" unicode="&#x1f4f1;" horiz-adv-x="572" 
d="M70 60v715c0 34 27 61 61 61h310c33 0 61 -27 61 -61v-715c0 -33 -28 -60 -61 -60h-310c-34 0 -61 27 -61 60zM472 693h-372v-510h372v510zM239 777h94c8 0 11 -6 11 -12s-4 -12 -11 -12h-94c-8 0 -11 6 -11 12s3 12 11 12zM472 153h-372v-91c0 -18 14 -32 32 -32h309
c18 0 31 14 31 32v91zM100 723h372v52c0 18 -13 31 -31 31h-309c-18 0 -32 -13 -32 -31v-52zM244 91c0 23 18 41 42 41c22 0 41 -18 41 -41s-19 -41 -41 -41c-24 0 -42 18 -42 41z" />
    <glyph glyph-name="uni2191.ss02" horiz-adv-x="846" 
d="M776 272l-21 -22l-317 318v-671h-30v671l-317 -318l-21 22l353 353z" />
    <glyph glyph-name="uni2190.ss02" horiz-adv-x="868" 
d="M445 -71l-22 -21l-353 353l353 353l22 -21l-318 -317h671v-30h-671z" />
    <glyph glyph-name="uni2198.ss02" horiz-adv-x="665" 
d="M565 500h30v-500h-500v30h449l-474 474l21 21l474 -474v449z" />
    <glyph glyph-name="uni2193.ss02" horiz-adv-x="846" 
d="M70 250l21 22l317 -318v671h30v-671l317 318l21 -22l-353 -353z" />
    <glyph glyph-name="afii10069.ss01" horiz-adv-x="496" 
d="M451 214c0 -136 -69 -220 -203 -220c-129 0 -203 80 -203 220v73c0 142 75 219 203 219c66 0 116 -21 148 -63v29c0 108 -53 173 -154 173c-45 0 -92 -18 -130 -49l-31 41c42 36 106 59 162 59c134 0 208 -81 208 -224v-258zM396 214v81c0 104 -56 160 -148 160
c-95 0 -148 -60 -148 -168v-73c0 -105 48 -169 148 -169c96 0 148 65 148 169z" />
    <glyph glyph-name="afii10074.ss01" 
d="M456 500v-500h-55v67c-27 -47 -73 -73 -148 -73c-111 0 -183 68 -183 210v296h55v-296c0 -113 57 -158 134 -158c95 0 142 63 142 154v300h55z" />
    <glyph glyph-name="afii10075.ss01" 
d="M456 500v-500h-55v67c-27 -47 -73 -73 -148 -73c-111 0 -183 68 -183 210v296h55v-296c0 -113 57 -158 134 -158c95 0 142 63 142 154v300h55zM346 690h48c-2 -78 -48 -118 -131 -118s-130 40 -131 118h48c2 -47 23 -74 83 -74s81 27 83 74z" />
    <glyph glyph-name="afii10081.ss01" 
d="M70 0v500h55v-68c26 48 72 74 147 74c111 0 184 -69 184 -210v-296h-55v295c0 114 -57 159 -135 159c-94 0 -141 -62 -141 -154v-300h-55z" />
    <glyph glyph-name="afii10084.ss01" horiz-adv-x="797" 
d="M70 0v500h55v-68c21 46 66 74 132 74c71 0 123 -34 149 -98c28 63 83 98 152 98c105 0 169 -74 169 -210v-296h-55v295c0 109 -48 159 -120 159c-80 0 -126 -59 -126 -147v-307h-55v295c0 109 -48 159 -120 159c-82 0 -126 -62 -126 -154v-300h-55z" />
    <glyph glyph-name="uni2192.ss02" horiz-adv-x="868" 
d="M445 -92l-22 21l318 317h-671v30h671l-318 317l22 21l353 -353z" />
    <glyph glyph-name="uni2197.ss02" horiz-adv-x="665" 
d="M595 0h-30v449l-474 -474l-21 21l474 474h-449v30h500v-500z" />
    <glyph glyph-name="uni2199.ss02" horiz-adv-x="665" 
d="M70 500h30v-449l474 474l21 -21l-474 -474h449v-30h-500v500z" />
    <glyph glyph-name="uni261E.ss02" horiz-adv-x="1098" 
d="M70 440h164v-389h-164v389zM96 415v-338h20v338h-20zM208 77v338h-20v-338h20zM142 415v-241h20v241h-20zM142 112v-35h20v35h-20zM285 47v393l350 235s101 -100 0 -182l-56 -46h372c46 0 77 -23 77 -65c0 -43 -31 -65 -73 -65h-207v-13c0 -35 -14 -66 -52 -66v-17
c0 -47 -28 -73 -58 -73v-15c0 -46 -31 -86 -85 -86h-268zM315 421v-344h238c33 0 55 21 55 58v2h-122v30h122c41 0 58 22 58 57v3h-126v30h126c40 0 52 15 52 50v10h-122v30h344c37 0 58 7 58 35s-21 35 -60 35h-434l114 107c59 55 7 105 7 105z" />
    <glyph glyph-name="uni2196.ss02" horiz-adv-x="665" 
d="M100 0h-30v500h500v-30h-449l474 -474l-21 -21l-474 474v-449z" />
    <glyph glyph-name="acircumflex.ss01" horiz-adv-x="516" 
d="M45 215v72c0 142 71 219 195 219c75 0 123 -24 151 -71v65h55v-500h-55v61c-28 -46 -76 -67 -151 -67c-130 0 -195 84 -195 221zM244 45c109 0 147 67 147 161v87c0 98 -43 162 -147 162c-95 0 -144 -59 -144 -168v-72c0 -105 47 -170 144 -170zM222 700h62l108 -142h-60
l-79 105l-79 -105h-60z" />
    <glyph glyph-name="atilde.ss01" horiz-adv-x="516" 
d="M45 215v72c0 142 71 219 195 219c75 0 123 -24 151 -71v65h55v-500h-55v61c-28 -46 -76 -67 -151 -67c-130 0 -195 84 -195 221zM244 45c109 0 147 67 147 161v87c0 98 -43 162 -147 162c-95 0 -144 -59 -144 -168v-72c0 -105 47 -170 144 -170zM314 603
c-46 0 -74 30 -115 30c-21 0 -45 -9 -65 -29l-35 31c26 29 60 47 100 47c44 0 72 -30 115 -30c19 0 45 10 64 30l35 -32c-23 -26 -60 -47 -99 -47z" />
    <glyph glyph-name="adieresis.ss01" horiz-adv-x="516" 
d="M45 215v72c0 142 71 219 195 219c75 0 123 -24 151 -71v65h55v-500h-55v61c-28 -46 -76 -67 -151 -67c-130 0 -195 84 -195 221zM244 45c109 0 147 67 147 161v87c0 98 -43 162 -147 162c-95 0 -144 -59 -144 -168v-72c0 -105 47 -170 144 -170zM393 623h-67v67h67v-67z
M183 623h-67v67h67v-67z" />
    <glyph glyph-name="aring.ss01" horiz-adv-x="516" 
d="M45 215v72c0 142 71 219 195 219c75 0 123 -24 151 -71v65h55v-500h-55v61c-28 -46 -76 -67 -151 -67c-130 0 -195 84 -195 221zM244 45c109 0 147 67 147 161v87c0 98 -43 162 -147 162c-95 0 -144 -59 -144 -168v-72c0 -105 47 -170 144 -170zM147 646
c0 61 49 110 109 110c61 0 110 -49 110 -110c0 -60 -49 -109 -110 -109c-60 0 -109 49 -109 109zM188 646c0 -37 31 -68 68 -68c38 0 68 31 68 68c0 38 -30 68 -68 68c-37 0 -68 -30 -68 -68z" />
    <glyph glyph-name="egrave.ss01" horiz-adv-x="484" 
d="M243 227h-143v-10c0 -99 46 -172 152 -172c61 0 102 18 130 61l44 -31c-35 -55 -90 -81 -171 -81c-133 0 -210 82 -210 221v72c0 142 77 219 204 219c117 0 182 -58 182 -140c0 -84 -66 -139 -188 -139zM100 287v-10h143c87 0 133 29 133 89c0 58 -45 89 -127 89
c-95 0 -149 -60 -149 -168zM221 725l75 -158h-52l-88 158h65z" />
    <glyph glyph-name="eacute.ss01" horiz-adv-x="484" 
d="M243 227h-143v-10c0 -99 46 -172 152 -172c61 0 102 18 130 61l44 -31c-35 -55 -90 -81 -171 -81c-133 0 -210 82 -210 221v72c0 142 77 219 204 219c117 0 182 -58 182 -140c0 -84 -66 -139 -188 -139zM100 287v-10h143c87 0 133 29 133 89c0 58 -45 89 -127 89
c-95 0 -149 -60 -149 -168zM208 567l75 158h66l-88 -158h-53z" />
    <glyph glyph-name="ecircumflex.ss01" horiz-adv-x="484" 
d="M243 227h-143v-10c0 -99 46 -172 152 -172c61 0 102 18 130 61l44 -31c-35 -55 -90 -81 -171 -81c-133 0 -210 82 -210 221v72c0 142 77 219 204 219c117 0 182 -58 182 -140c0 -84 -66 -139 -188 -139zM100 287v-10h143c87 0 133 29 133 89c0 58 -45 89 -127 89
c-95 0 -149 -60 -149 -168zM219 700h62l108 -142h-60l-79 105l-79 -105h-60z" />
    <glyph glyph-name="edieresis.ss01" horiz-adv-x="484" 
d="M243 227h-143v-10c0 -99 46 -172 152 -172c61 0 102 18 130 61l44 -31c-35 -55 -90 -81 -171 -81c-133 0 -210 82 -210 221v72c0 142 77 219 204 219c117 0 182 -58 182 -140c0 -84 -66 -139 -188 -139zM100 287v-10h143c87 0 133 29 133 89c0 58 -45 89 -127 89
c-95 0 -149 -60 -149 -168zM386 623h-67v67h67v-67zM176 623h-67v67h67v-67z" />
    <glyph glyph-name="afii10065.ss01" horiz-adv-x="516" 
d="M45 215v72c0 142 71 219 195 219c75 0 123 -24 151 -71v65h55v-500h-55v61c-28 -46 -76 -67 -151 -67c-130 0 -195 84 -195 221zM244 45c109 0 147 67 147 161v87c0 98 -43 162 -147 162c-95 0 -144 -59 -144 -168v-72c0 -105 47 -170 144 -170z" />
    <glyph glyph-name="afii10070.ss01" horiz-adv-x="484" 
d="M243 227h-143v-10c0 -99 46 -172 152 -172c61 0 102 18 130 61l44 -31c-35 -55 -90 -81 -171 -81c-133 0 -210 82 -210 221v72c0 142 77 219 204 219c117 0 182 -58 182 -140c0 -84 -66 -139 -188 -139zM100 287v-10h143c87 0 133 29 133 89c0 58 -45 89 -127 89
c-95 0 -149 -60 -149 -168z" />
    <glyph glyph-name="afii10071.ss01" horiz-adv-x="484" 
d="M243 227h-143v-10c0 -99 46 -172 152 -172c61 0 102 18 130 61l44 -31c-35 -55 -90 -81 -171 -81c-133 0 -210 82 -210 221v72c0 142 77 219 204 219c117 0 182 -58 182 -140c0 -84 -66 -139 -188 -139zM100 287v-10h143c87 0 133 29 133 89c0 58 -45 89 -127 89
c-95 0 -149 -60 -149 -168zM386 623h-67v67h67v-67zM176 623h-67v67h67v-67z" />
    <glyph glyph-name="aogonek.ss01" horiz-adv-x="516" 
d="M45 215v72c0 142 71 219 195 219c75 0 123 -24 151 -71v65h55v-500c-42 -22 -80 -40 -80 -73c0 -30 30 -35 56 -35c10 0 20 1 28 2l9 -41c-8 -2 -23 -3 -42 -3c-48 0 -101 19 -101 74c0 41 26 67 75 94v43c-28 -46 -76 -67 -151 -67c-130 0 -195 84 -195 221zM244 45
c109 0 147 67 147 161v87c0 98 -43 162 -147 162c-95 0 -144 -59 -144 -168v-72c0 -105 47 -170 144 -170z" />
    <glyph glyph-name="abreve.ss01" horiz-adv-x="516" 
d="M45 215v72c0 142 71 219 195 219c75 0 123 -24 151 -71v65h55v-500h-55v61c-28 -46 -76 -67 -151 -67c-130 0 -195 84 -195 221zM244 45c109 0 147 67 147 161v87c0 98 -43 162 -147 162c-95 0 -144 -59 -144 -168v-72c0 -105 47 -170 144 -170zM339 690h48
c-3 -75 -50 -113 -131 -113s-128 38 -131 113h48c4 -45 26 -69 83 -69c56 0 79 24 83 69z" />
    <glyph glyph-name="eogonek.ss01" horiz-adv-x="484" 
d="M243 227h-143v-10c0 -99 46 -172 152 -172c61 0 102 18 130 61l44 -31c-26 -40 -62 -65 -111 -75c-42 -22 -80 -40 -80 -73c0 -30 31 -35 57 -35c10 0 20 1 27 2l9 -41c-8 -2 -23 -3 -41 -3c-49 0 -102 19 -102 74c0 30 16 52 42 72c-116 10 -182 90 -182 219v72
c0 142 77 219 204 219c117 0 182 -58 182 -140c0 -84 -66 -139 -188 -139zM100 287v-10h143c87 0 133 29 133 89c0 58 -45 89 -127 89c-95 0 -149 -60 -149 -168z" />
    <glyph glyph-name="ecaron.ss01" horiz-adv-x="484" 
d="M243 227h-143v-10c0 -99 46 -172 152 -172c61 0 102 18 130 61l44 -31c-35 -55 -90 -81 -171 -81c-133 0 -210 82 -210 221v72c0 142 77 219 204 219c117 0 182 -58 182 -140c0 -84 -66 -139 -188 -139zM100 287v-10h143c87 0 133 29 133 89c0 58 -45 89 -127 89
c-95 0 -149 -60 -149 -168zM278 558h-62l-108 142h60l79 -105l79 105h60z" />
    <glyph glyph-name="amacron.ss01" horiz-adv-x="516" 
d="M45 215v72c0 142 71 219 195 219c75 0 123 -24 151 -71v65h55v-500h-55v61c-28 -46 -76 -67 -151 -67c-130 0 -195 84 -195 221zM244 45c109 0 147 67 147 161v87c0 98 -43 162 -147 162c-95 0 -144 -59 -144 -168v-72c0 -105 47 -170 144 -170zM128 621v51h259v-51h-259
z" />
    <glyph glyph-name="emacron.ss01" horiz-adv-x="484" 
d="M243 227h-143v-10c0 -99 46 -172 152 -172c61 0 102 18 130 61l44 -31c-35 -55 -90 -81 -171 -81c-133 0 -210 82 -210 221v72c0 142 77 219 204 219c117 0 182 -58 182 -140c0 -84 -66 -139 -188 -139zM100 287v-10h143c87 0 133 29 133 89c0 58 -45 89 -127 89
c-95 0 -149 -60 -149 -168zM119 621v51h259v-51h-259z" />
    <glyph glyph-name="edotaccent.ss01" horiz-adv-x="484" 
d="M243 227h-143v-10c0 -99 46 -172 152 -172c61 0 102 18 130 61l44 -31c-35 -55 -90 -81 -171 -81c-133 0 -210 82 -210 221v72c0 142 77 219 204 219c117 0 182 -58 182 -140c0 -84 -66 -139 -188 -139zM100 287v-10h143c87 0 133 29 133 89c0 58 -45 89 -127 89
c-95 0 -149 -60 -149 -168zM281 623h-67v67h67v-67z" />
    <glyph glyph-name="afii10065.var.accented.ss01" horiz-adv-x="516" 
d="M45 215v72c0 142 71 219 195 219c75 0 123 -24 151 -71v65h55v-500h-55v61c-28 -46 -76 -67 -151 -67c-130 0 -195 84 -195 221zM244 45c109 0 147 67 147 161v87c0 98 -43 162 -147 162c-95 0 -144 -59 -144 -168v-72c0 -105 47 -170 144 -170zM223 567l75 158h66
l-88 -158h-53z" />
    <glyph glyph-name="afii10070.var.accented.ss01" horiz-adv-x="484" 
d="M243 227h-143v-10c0 -99 46 -172 152 -172c61 0 102 18 130 61l44 -31c-35 -55 -90 -81 -171 -81c-133 0 -210 82 -210 221v72c0 142 77 219 204 219c117 0 182 -58 182 -140c0 -84 -66 -139 -188 -139zM100 287v-10h143c87 0 133 29 133 89c0 58 -45 89 -127 89
c-95 0 -149 -60 -149 -168zM208 567l75 158h66l-88 -158h-53z" />
    <glyph glyph-name="afii10074.var.accented.ss01" 
d="M456 500v-500h-55v67c-27 -47 -73 -73 -148 -73c-111 0 -183 68 -183 210v296h55v-296c0 -113 57 -158 134 -158c95 0 142 63 142 154v300h55zM225 567l75 158h66l-88 -158h-53z" />
    <glyph glyph-name="afii10071.var.accented.ss01" horiz-adv-x="484" 
d="M243 227h-143v-10c0 -99 46 -172 152 -172c61 0 102 18 130 61l44 -31c-35 -55 -90 -81 -171 -81c-133 0 -210 82 -210 221v72c0 142 77 219 204 219c117 0 182 -58 182 -140c0 -84 -66 -139 -188 -139zM100 287v-10h143c87 0 133 29 133 89c0 58 -45 89 -127 89
c-95 0 -149 -60 -149 -168zM386 623h-67v67h67v-67zM176 623h-67v67h67v-67zM219 717l75 158h66l-88 -158h-53z" />
    <glyph glyph-name="uni04E3.ss01" 
d="M456 500v-500h-55v67c-27 -47 -73 -73 -148 -73c-111 0 -183 68 -183 210v296h55v-296c0 -113 57 -158 134 -158c95 0 142 63 142 154v300h55zM134 621v51h259v-51h-259z" />
    <glyph glyph-name="afii10193.ss01" 
d="M456 500v-500h-55v67c-24 -41 -61 -66 -120 -72v-112h-55v113c-96 10 -156 78 -156 208v296h55v-296c0 -113 57 -158 134 -158c95 0 142 63 142 154v300h55z" />
    <glyph glyph-name="e.ss01" horiz-adv-x="484" 
d="M243 227h-143v-10c0 -99 46 -172 152 -172c61 0 102 18 130 61l44 -31c-35 -55 -90 -81 -171 -81c-133 0 -210 82 -210 221v72c0 142 77 219 204 219c117 0 182 -58 182 -140c0 -84 -66 -139 -188 -139zM100 287v-10h143c87 0 133 29 133 89c0 58 -45 89 -127 89
c-95 0 -149 -60 -149 -168z" />
    <glyph glyph-name="aacute.ss01" horiz-adv-x="516" 
d="M45 215v72c0 142 71 219 195 219c75 0 123 -24 151 -71v65h55v-500h-55v61c-28 -46 -76 -67 -151 -67c-130 0 -195 84 -195 221zM244 45c109 0 147 67 147 161v87c0 98 -43 162 -147 162c-95 0 -144 -59 -144 -168v-72c0 -105 47 -170 144 -170zM223 567l75 158h66
l-88 -158h-53z" />
    <glyph glyph-name="agrave.ss01" horiz-adv-x="516" 
d="M45 215v72c0 142 71 219 195 219c75 0 123 -24 151 -71v65h55v-500h-55v61c-28 -46 -76 -67 -151 -67c-130 0 -195 84 -195 221zM244 45c109 0 147 67 147 161v87c0 98 -43 162 -147 162c-95 0 -144 -59 -144 -168v-72c0 -105 47 -170 144 -170zM226 725l75 -158h-52
l-88 158h65z" />
    <glyph glyph-name="afii10091.ss01" horiz-adv-x="794" 
d="M361 199v301h55v-296c0 -108 43 -158 114 -158c83 0 122 62 122 153v301h55v-449h70v-168h-55v117h-70v67c-22 -45 -62 -73 -128 -73c-70 0 -119 32 -145 96c-28 -63 -77 -96 -146 -96c-104 0 -163 73 -163 210v296h55v-296c0 -108 43 -158 114 -158c83 0 122 62 122 153
z" />
    <glyph glyph-name="afii10090.ss01" horiz-adv-x="777" 
d="M361 199v301h55v-296c0 -108 43 -158 114 -158c83 0 122 62 122 153v301h55v-500h-55v67c-22 -45 -62 -73 -128 -73c-70 0 -119 32 -145 96c-28 -63 -77 -96 -146 -96c-104 0 -163 73 -163 210v296h55v-296c0 -108 43 -158 114 -158c83 0 122 62 122 153z" />
    <glyph glyph-name="afii10088.ss01" horiz-adv-x="543" 
d="M456 500v-449h70v-168h-55v117h-70v67c-27 -47 -73 -73 -148 -73c-111 0 -183 68 -183 210v296h55v-296c0 -113 57 -158 134 -158c95 0 142 63 142 154v300h55z" />
    <glyph glyph-name="a.ss01" horiz-adv-x="516" 
d="M45 215v72c0 142 71 219 195 219c75 0 123 -24 151 -71v65h55v-500h-55v61c-28 -46 -76 -67 -151 -67c-130 0 -195 84 -195 221zM244 45c109 0 147 67 147 161v87c0 98 -43 162 -147 162c-95 0 -144 -59 -144 -168v-72c0 -105 47 -170 144 -170z" />
    </font>
</defs>
</svg>
